<?xml version="1.0" encoding="utf-8" standalone="no"?>
<!DOCTYPE svg PUBLIC "-//W3C//DTD SVG 1.1//EN"
  "http://www.w3.org/Graphics/SVG/1.1/DTD/svg11.dtd">
<svg xmlns:xlink="http://www.w3.org/1999/xlink" width="576pt" height="864pt" viewBox="0 0 576 864" xmlns="http://www.w3.org/2000/svg" version="1.1">
 <metadata>
  <rdf:RDF xmlns:dc="http://purl.org/dc/elements/1.1/" xmlns:cc="http://creativecommons.org/ns#" xmlns:rdf="http://www.w3.org/1999/02/22-rdf-syntax-ns#">
   <cc:Work>
    <dc:type rdf:resource="http://purl.org/dc/dcmitype/StillImage"/>
    <dc:date>2025-02-19T10:21:14.064856</dc:date>
    <dc:format>image/svg+xml</dc:format>
    <dc:creator>
     <cc:Agent>
      <dc:title>Matplotlib v3.7.5, https://matplotlib.org/</dc:title>
     </cc:Agent>
    </dc:creator>
   </cc:Work>
  </rdf:RDF>
 </metadata>
 <defs>
  <style type="text/css">*{stroke-linejoin: round; stroke-linecap: butt}</style>
 </defs>
 <g id="figure_1">
  <g id="patch_1">
   <path d="M 0 864 
L 576 864 
L 576 0 
L 0 0 
z
" style="fill: #ffffff"/>
  </g>
  <g id="axes_1">
   <g id="patch_2">
    <path d="M 72 248.306087 
L 518.4 248.306087 
L 518.4 103.68 
L 72 103.68 
z
" style="fill: #ffffff"/>
   </g>
   <g id="matplotlib.axis_1">
    <g id="xtick_1">
     <g id="line2d_1">
      <defs>
       <path id="m16f827b2c7" d="M 0 0 
L 0 3.5 
" style="stroke: #000000; stroke-width: 0.8"/>
      </defs>
      <g>
       <use xlink:href="#m16f827b2c7" x="92.290909" y="248.306087" style="stroke: #000000; stroke-width: 0.8"/>
      </g>
     </g>
    </g>
    <g id="xtick_2">
     <g id="line2d_2">
      <g>
       <use xlink:href="#m16f827b2c7" x="143.273093" y="248.306087" style="stroke: #000000; stroke-width: 0.8"/>
      </g>
     </g>
    </g>
    <g id="xtick_3">
     <g id="line2d_3">
      <g>
       <use xlink:href="#m16f827b2c7" x="194.255276" y="248.306087" style="stroke: #000000; stroke-width: 0.8"/>
      </g>
     </g>
    </g>
    <g id="xtick_4">
     <g id="line2d_4">
      <g>
       <use xlink:href="#m16f827b2c7" x="245.23746" y="248.306087" style="stroke: #000000; stroke-width: 0.8"/>
      </g>
     </g>
    </g>
    <g id="xtick_5">
     <g id="line2d_5">
      <g>
       <use xlink:href="#m16f827b2c7" x="296.219644" y="248.306087" style="stroke: #000000; stroke-width: 0.8"/>
      </g>
     </g>
    </g>
    <g id="xtick_6">
     <g id="line2d_6">
      <g>
       <use xlink:href="#m16f827b2c7" x="347.201827" y="248.306087" style="stroke: #000000; stroke-width: 0.8"/>
      </g>
     </g>
    </g>
    <g id="xtick_7">
     <g id="line2d_7">
      <g>
       <use xlink:href="#m16f827b2c7" x="398.184011" y="248.306087" style="stroke: #000000; stroke-width: 0.8"/>
      </g>
     </g>
    </g>
    <g id="xtick_8">
     <g id="line2d_8">
      <g>
       <use xlink:href="#m16f827b2c7" x="449.166195" y="248.306087" style="stroke: #000000; stroke-width: 0.8"/>
      </g>
     </g>
    </g>
    <g id="xtick_9">
     <g id="line2d_9">
      <g>
       <use xlink:href="#m16f827b2c7" x="500.148378" y="248.306087" style="stroke: #000000; stroke-width: 0.8"/>
      </g>
     </g>
    </g>
   </g>
   <g id="matplotlib.axis_2">
    <g id="ytick_1">
     <g id="line2d_10">
      <defs>
       <path id="mf3d385e345" d="M 0 0 
L -3.5 0 
" style="stroke: #000000; stroke-width: 0.8"/>
      </defs>
      <g>
       <use xlink:href="#mf3d385e345" x="72" y="248.306087" style="stroke: #000000; stroke-width: 0.8"/>
      </g>
     </g>
     <g id="text_1">
      <!-- 0.0 -->
      <g transform="translate(49.096875 252.105306) scale(0.1 -0.1)">
       <defs>
        <path id="DejaVuSans-30" d="M 2034 4250 
Q 1547 4250 1301 3770 
Q 1056 3291 1056 2328 
Q 1056 1369 1301 889 
Q 1547 409 2034 409 
Q 2525 409 2770 889 
Q 3016 1369 3016 2328 
Q 3016 3291 2770 3770 
Q 2525 4250 2034 4250 
z
M 2034 4750 
Q 2819 4750 3233 4129 
Q 3647 3509 3647 2328 
Q 3647 1150 3233 529 
Q 2819 -91 2034 -91 
Q 1250 -91 836 529 
Q 422 1150 422 2328 
Q 422 3509 836 4129 
Q 1250 4750 2034 4750 
z
" transform="scale(0.015625)"/>
        <path id="DejaVuSans-2e" d="M 684 794 
L 1344 794 
L 1344 0 
L 684 0 
L 684 794 
z
" transform="scale(0.015625)"/>
       </defs>
       <use xlink:href="#DejaVuSans-30"/>
       <use xlink:href="#DejaVuSans-2e" x="63.623047"/>
       <use xlink:href="#DejaVuSans-30" x="95.410156"/>
      </g>
     </g>
    </g>
    <g id="ytick_2">
     <g id="line2d_11">
      <g>
       <use xlink:href="#mf3d385e345" x="72" y="219.38087" style="stroke: #000000; stroke-width: 0.8"/>
      </g>
     </g>
     <g id="text_2">
      <!-- 0.2 -->
      <g transform="translate(49.096875 223.180088) scale(0.1 -0.1)">
       <defs>
        <path id="DejaVuSans-32" d="M 1228 531 
L 3431 531 
L 3431 0 
L 469 0 
L 469 531 
Q 828 903 1448 1529 
Q 2069 2156 2228 2338 
Q 2531 2678 2651 2914 
Q 2772 3150 2772 3378 
Q 2772 3750 2511 3984 
Q 2250 4219 1831 4219 
Q 1534 4219 1204 4116 
Q 875 4013 500 3803 
L 500 4441 
Q 881 4594 1212 4672 
Q 1544 4750 1819 4750 
Q 2544 4750 2975 4387 
Q 3406 4025 3406 3419 
Q 3406 3131 3298 2873 
Q 3191 2616 2906 2266 
Q 2828 2175 2409 1742 
Q 1991 1309 1228 531 
z
" transform="scale(0.015625)"/>
       </defs>
       <use xlink:href="#DejaVuSans-30"/>
       <use xlink:href="#DejaVuSans-2e" x="63.623047"/>
       <use xlink:href="#DejaVuSans-32" x="95.410156"/>
      </g>
     </g>
    </g>
    <g id="ytick_3">
     <g id="line2d_12">
      <g>
       <use xlink:href="#mf3d385e345" x="72" y="190.455652" style="stroke: #000000; stroke-width: 0.8"/>
      </g>
     </g>
     <g id="text_3">
      <!-- 0.4 -->
      <g transform="translate(49.096875 194.254871) scale(0.1 -0.1)">
       <defs>
        <path id="DejaVuSans-34" d="M 2419 4116 
L 825 1625 
L 2419 1625 
L 2419 4116 
z
M 2253 4666 
L 3047 4666 
L 3047 1625 
L 3713 1625 
L 3713 1100 
L 3047 1100 
L 3047 0 
L 2419 0 
L 2419 1100 
L 313 1100 
L 313 1709 
L 2253 4666 
z
" transform="scale(0.015625)"/>
       </defs>
       <use xlink:href="#DejaVuSans-30"/>
       <use xlink:href="#DejaVuSans-2e" x="63.623047"/>
       <use xlink:href="#DejaVuSans-34" x="95.410156"/>
      </g>
     </g>
    </g>
    <g id="ytick_4">
     <g id="line2d_13">
      <g>
       <use xlink:href="#mf3d385e345" x="72" y="161.530435" style="stroke: #000000; stroke-width: 0.8"/>
      </g>
     </g>
     <g id="text_4">
      <!-- 0.6 -->
      <g transform="translate(49.096875 165.329654) scale(0.1 -0.1)">
       <defs>
        <path id="DejaVuSans-36" d="M 2113 2584 
Q 1688 2584 1439 2293 
Q 1191 2003 1191 1497 
Q 1191 994 1439 701 
Q 1688 409 2113 409 
Q 2538 409 2786 701 
Q 3034 994 3034 1497 
Q 3034 2003 2786 2293 
Q 2538 2584 2113 2584 
z
M 3366 4563 
L 3366 3988 
Q 3128 4100 2886 4159 
Q 2644 4219 2406 4219 
Q 1781 4219 1451 3797 
Q 1122 3375 1075 2522 
Q 1259 2794 1537 2939 
Q 1816 3084 2150 3084 
Q 2853 3084 3261 2657 
Q 3669 2231 3669 1497 
Q 3669 778 3244 343 
Q 2819 -91 2113 -91 
Q 1303 -91 875 529 
Q 447 1150 447 2328 
Q 447 3434 972 4092 
Q 1497 4750 2381 4750 
Q 2619 4750 2861 4703 
Q 3103 4656 3366 4563 
z
" transform="scale(0.015625)"/>
       </defs>
       <use xlink:href="#DejaVuSans-30"/>
       <use xlink:href="#DejaVuSans-2e" x="63.623047"/>
       <use xlink:href="#DejaVuSans-36" x="95.410156"/>
      </g>
     </g>
    </g>
    <g id="ytick_5">
     <g id="line2d_14">
      <g>
       <use xlink:href="#mf3d385e345" x="72" y="132.605217" style="stroke: #000000; stroke-width: 0.8"/>
      </g>
     </g>
     <g id="text_5">
      <!-- 0.8 -->
      <g transform="translate(49.096875 136.404436) scale(0.1 -0.1)">
       <defs>
        <path id="DejaVuSans-38" d="M 2034 2216 
Q 1584 2216 1326 1975 
Q 1069 1734 1069 1313 
Q 1069 891 1326 650 
Q 1584 409 2034 409 
Q 2484 409 2743 651 
Q 3003 894 3003 1313 
Q 3003 1734 2745 1975 
Q 2488 2216 2034 2216 
z
M 1403 2484 
Q 997 2584 770 2862 
Q 544 3141 544 3541 
Q 544 4100 942 4425 
Q 1341 4750 2034 4750 
Q 2731 4750 3128 4425 
Q 3525 4100 3525 3541 
Q 3525 3141 3298 2862 
Q 3072 2584 2669 2484 
Q 3125 2378 3379 2068 
Q 3634 1759 3634 1313 
Q 3634 634 3220 271 
Q 2806 -91 2034 -91 
Q 1263 -91 848 271 
Q 434 634 434 1313 
Q 434 1759 690 2068 
Q 947 2378 1403 2484 
z
M 1172 3481 
Q 1172 3119 1398 2916 
Q 1625 2713 2034 2713 
Q 2441 2713 2670 2916 
Q 2900 3119 2900 3481 
Q 2900 3844 2670 4047 
Q 2441 4250 2034 4250 
Q 1625 4250 1398 4047 
Q 1172 3844 1172 3481 
z
" transform="scale(0.015625)"/>
       </defs>
       <use xlink:href="#DejaVuSans-30"/>
       <use xlink:href="#DejaVuSans-2e" x="63.623047"/>
       <use xlink:href="#DejaVuSans-38" x="95.410156"/>
      </g>
     </g>
    </g>
    <g id="ytick_6">
     <g id="line2d_15">
      <g>
       <use xlink:href="#mf3d385e345" x="72" y="103.68" style="stroke: #000000; stroke-width: 0.8"/>
      </g>
     </g>
     <g id="text_6">
      <!-- 1.0 -->
      <g transform="translate(49.096875 107.479219) scale(0.1 -0.1)">
       <defs>
        <path id="DejaVuSans-31" d="M 794 531 
L 1825 531 
L 1825 4091 
L 703 3866 
L 703 4441 
L 1819 4666 
L 2450 4666 
L 2450 531 
L 3481 531 
L 3481 0 
L 794 0 
L 794 531 
z
" transform="scale(0.015625)"/>
       </defs>
       <use xlink:href="#DejaVuSans-31"/>
       <use xlink:href="#DejaVuSans-2e" x="63.623047"/>
       <use xlink:href="#DejaVuSans-30" x="95.410156"/>
      </g>
     </g>
    </g>
   </g>
   <g id="line2d_16">
    <path d="M 92.290909 175.741725 
L 94.330196 181.40481 
L 96.369484 207.0509 
L 98.408771 198.380377 
L 100.448058 224.018124 
L 102.487346 202.555657 
L 104.526633 220.86978 
L 106.565921 156.738807 
L 108.605208 207.179309 
L 110.644495 221.287815 
L 112.683783 210.346249 
L 114.72307 202.984409 
L 116.762357 218.269951 
L 118.801645 211.36308 
L 120.840932 200.161599 
L 122.880219 221.12217 
L 124.919507 198.931388 
L 126.958794 225.7494 
L 128.998081 219.596144 
L 131.037369 223.090933 
L 133.076656 225.506292 
L 135.115943 173.470029 
L 139.194518 219.966165 
L 141.233805 222.291614 
L 145.31238 204.432759 
L 147.351667 207.874009 
L 149.390955 214.743649 
L 151.430242 207.692774 
L 153.469529 181.648737 
L 155.508817 184.498848 
L 157.548104 190.736822 
L 159.587392 206.901681 
L 161.626679 229.315869 
L 163.665966 204.839279 
L 165.705254 205.557612 
L 167.744541 207.930627 
L 169.783828 204.695638 
L 171.823116 207.489031 
L 173.862403 207.035318 
L 175.90169 188.912012 
L 177.940978 224.839173 
L 179.980265 229.763575 
L 182.019552 224.082212 
L 184.05884 158.087509 
L 186.098127 223.725458 
L 188.137414 229.419117 
L 190.176702 183.54714 
L 192.215989 183.99968 
L 194.255276 208.293753 
L 196.294564 207.994647 
L 198.333851 226.750907 
L 200.373138 194.64075 
L 202.412426 223.233178 
L 204.451713 215.426159 
L 206.491 223.620826 
L 208.530288 190.867219 
L 210.569575 207.862768 
L 212.608862 213.418939 
L 214.64815 171.0587 
L 216.687437 180.673271 
L 218.726725 226.649973 
L 220.766012 215.191803 
L 222.805299 190.580431 
L 224.844587 187.014958 
L 226.883874 205.75685 
L 228.923161 210.535816 
L 230.962449 207.369548 
L 233.001736 154.154915 
L 235.041023 213.483421 
L 237.080311 202.594462 
L 239.119598 172.527502 
L 241.158885 212.108269 
L 243.198173 193.0565 
L 245.23746 219.87697 
L 247.276747 207.156788 
L 249.316035 199.77625 
L 251.355322 207.046396 
L 253.394609 215.799849 
L 255.433897 223.6982 
L 257.473184 205.087029 
L 259.512471 214.780544 
L 261.551759 210.159523 
L 263.591046 189.003478 
L 265.630333 223.81523 
L 267.669621 209.170317 
L 269.708908 200.51438 
L 271.748196 218.172468 
L 273.787483 209.487111 
L 275.82677 211.822555 
L 277.866058 224.56384 
L 279.905345 210.871688 
L 281.944632 182.852057 
L 283.98392 204.503218 
L 286.023207 203.142809 
L 288.062494 222.505585 
L 290.101782 175.134281 
L 292.141069 209.753973 
L 294.180356 199.791564 
L 296.219644 153.104736 
L 298.258931 166.395269 
L 300.298218 203.603848 
L 302.337506 204.752231 
L 304.376793 207.034236 
L 306.41608 207.780253 
L 308.455368 215.130215 
L 310.494655 197.173208 
L 312.533942 202.082393 
L 314.57323 202.025822 
L 316.612517 205.312909 
L 318.651804 210.919264 
L 320.691092 223.000375 
L 322.730379 156.522728 
L 324.769667 205.103119 
L 326.808954 209.226211 
L 328.848241 186.561982 
L 330.887529 204.985365 
L 332.926816 183.540459 
L 334.966103 202.388301 
L 337.005391 227.636029 
L 339.044678 207.319196 
L 341.083965 176.324109 
L 343.123253 194.560343 
L 345.16254 222.550682 
L 347.201827 222.80082 
L 349.241115 223.372026 
L 351.280402 182.839238 
L 353.319689 190.845103 
L 355.358977 200.249341 
L 357.398264 197.299161 
L 359.437551 190.943203 
L 361.476839 190.852913 
L 363.516126 201.548572 
L 365.555413 206.811356 
L 367.594701 205.308332 
L 369.633988 206.802878 
L 371.673275 210.7025 
L 373.712563 211.407725 
L 375.75185 211.63798 
L 377.791138 219.163269 
L 379.830425 176.979772 
L 381.869712 223.283648 
L 383.909 227.223281 
L 385.948287 222.765703 
L 387.987574 207.128587 
L 390.026862 208.160486 
L 392.066149 227.039608 
L 394.105436 203.113288 
L 396.144724 199.983411 
L 398.184011 203.036183 
L 400.223298 207.202399 
L 402.262586 201.554158 
L 404.301873 223.064257 
L 406.34116 161.188176 
L 408.380448 211.400518 
L 410.419735 226.146019 
L 412.459022 226.598415 
L 414.49831 227.75859 
L 416.537597 204.559108 
L 418.576884 221.929137 
L 420.616172 222.611639 
L 422.655459 223.021998 
L 424.694746 205.810228 
L 426.734034 215.422931 
L 428.773321 222.182639 
L 430.812608 222.294661 
L 432.851896 224.796252 
L 434.891183 208.953182 
L 436.930471 205.623213 
L 438.969758 223.150788 
L 441.009045 221.376495 
L 443.048333 197.694647 
L 447.126907 223.39442 
L 449.166195 171.543752 
L 451.205482 207.31877 
L 453.244769 210.545079 
L 455.284057 224.284257 
L 457.323344 193.320908 
L 459.362631 217.54096 
L 461.401919 207.161603 
L 463.441206 222.430171 
L 465.480493 206.538392 
L 467.519781 218.7728 
L 469.559068 169.468816 
L 471.598355 214.451885 
L 473.637643 195.415748 
L 475.67693 216.024489 
L 477.716217 208.187717 
L 479.755505 184.466121 
L 481.794792 187.272039 
L 483.834079 207.327575 
L 485.873367 186.533194 
L 487.912654 209.166963 
L 489.951942 223.188675 
L 491.991229 199.622001 
L 494.030516 202.748887 
L 496.069804 212.382072 
L 498.109091 224.675112 
L 498.109091 224.675112 
" clip-path="url(#pd4d484bfee)" style="fill: none; stroke: #1f77b4; stroke-width: 1.5; stroke-linecap: square"/>
   </g>
   <g id="patch_3">
    <path d="M 72 248.306087 
L 72 103.68 
" style="fill: none; stroke: #000000; stroke-width: 0.8; stroke-linejoin: miter; stroke-linecap: square"/>
   </g>
   <g id="patch_4">
    <path d="M 518.4 248.306087 
L 518.4 103.68 
" style="fill: none; stroke: #000000; stroke-width: 0.8; stroke-linejoin: miter; stroke-linecap: square"/>
   </g>
   <g id="patch_5">
    <path d="M 72 248.306087 
L 518.4 248.306087 
" style="fill: none; stroke: #000000; stroke-width: 0.8; stroke-linejoin: miter; stroke-linecap: square"/>
   </g>
   <g id="patch_6">
    <path d="M 72 103.68 
L 518.4 103.68 
" style="fill: none; stroke: #000000; stroke-width: 0.8; stroke-linejoin: miter; stroke-linecap: square"/>
   </g>
   <g id="text_7">
    <!-- Context 1 -->
    <g transform="translate(265.969687 97.68) scale(0.12 -0.12)">
     <defs>
      <path id="DejaVuSans-43" d="M 4122 4306 
L 4122 3641 
Q 3803 3938 3442 4084 
Q 3081 4231 2675 4231 
Q 1875 4231 1450 3742 
Q 1025 3253 1025 2328 
Q 1025 1406 1450 917 
Q 1875 428 2675 428 
Q 3081 428 3442 575 
Q 3803 722 4122 1019 
L 4122 359 
Q 3791 134 3420 21 
Q 3050 -91 2638 -91 
Q 1578 -91 968 557 
Q 359 1206 359 2328 
Q 359 3453 968 4101 
Q 1578 4750 2638 4750 
Q 3056 4750 3426 4639 
Q 3797 4528 4122 4306 
z
" transform="scale(0.015625)"/>
      <path id="DejaVuSans-6f" d="M 1959 3097 
Q 1497 3097 1228 2736 
Q 959 2375 959 1747 
Q 959 1119 1226 758 
Q 1494 397 1959 397 
Q 2419 397 2687 759 
Q 2956 1122 2956 1747 
Q 2956 2369 2687 2733 
Q 2419 3097 1959 3097 
z
M 1959 3584 
Q 2709 3584 3137 3096 
Q 3566 2609 3566 1747 
Q 3566 888 3137 398 
Q 2709 -91 1959 -91 
Q 1206 -91 779 398 
Q 353 888 353 1747 
Q 353 2609 779 3096 
Q 1206 3584 1959 3584 
z
" transform="scale(0.015625)"/>
      <path id="DejaVuSans-6e" d="M 3513 2113 
L 3513 0 
L 2938 0 
L 2938 2094 
Q 2938 2591 2744 2837 
Q 2550 3084 2163 3084 
Q 1697 3084 1428 2787 
Q 1159 2491 1159 1978 
L 1159 0 
L 581 0 
L 581 3500 
L 1159 3500 
L 1159 2956 
Q 1366 3272 1645 3428 
Q 1925 3584 2291 3584 
Q 2894 3584 3203 3211 
Q 3513 2838 3513 2113 
z
" transform="scale(0.015625)"/>
      <path id="DejaVuSans-74" d="M 1172 4494 
L 1172 3500 
L 2356 3500 
L 2356 3053 
L 1172 3053 
L 1172 1153 
Q 1172 725 1289 603 
Q 1406 481 1766 481 
L 2356 481 
L 2356 0 
L 1766 0 
Q 1100 0 847 248 
Q 594 497 594 1153 
L 594 3053 
L 172 3053 
L 172 3500 
L 594 3500 
L 594 4494 
L 1172 4494 
z
" transform="scale(0.015625)"/>
      <path id="DejaVuSans-65" d="M 3597 1894 
L 3597 1613 
L 953 1613 
Q 991 1019 1311 708 
Q 1631 397 2203 397 
Q 2534 397 2845 478 
Q 3156 559 3463 722 
L 3463 178 
Q 3153 47 2828 -22 
Q 2503 -91 2169 -91 
Q 1331 -91 842 396 
Q 353 884 353 1716 
Q 353 2575 817 3079 
Q 1281 3584 2069 3584 
Q 2775 3584 3186 3129 
Q 3597 2675 3597 1894 
z
M 3022 2063 
Q 3016 2534 2758 2815 
Q 2500 3097 2075 3097 
Q 1594 3097 1305 2825 
Q 1016 2553 972 2059 
L 3022 2063 
z
" transform="scale(0.015625)"/>
      <path id="DejaVuSans-78" d="M 3513 3500 
L 2247 1797 
L 3578 0 
L 2900 0 
L 1881 1375 
L 863 0 
L 184 0 
L 1544 1831 
L 300 3500 
L 978 3500 
L 1906 2253 
L 2834 3500 
L 3513 3500 
z
" transform="scale(0.015625)"/>
      <path id="DejaVuSans-20" transform="scale(0.015625)"/>
     </defs>
     <use xlink:href="#DejaVuSans-43"/>
     <use xlink:href="#DejaVuSans-6f" x="69.824219"/>
     <use xlink:href="#DejaVuSans-6e" x="131.005859"/>
     <use xlink:href="#DejaVuSans-74" x="194.384766"/>
     <use xlink:href="#DejaVuSans-65" x="233.59375"/>
     <use xlink:href="#DejaVuSans-78" x="293.367188"/>
     <use xlink:href="#DejaVuSans-74" x="352.546875"/>
     <use xlink:href="#DejaVuSans-20" x="391.755859"/>
     <use xlink:href="#DejaVuSans-31" x="423.542969"/>
    </g>
   </g>
  </g>
  <g id="axes_2">
   <g id="patch_7">
    <path d="M 72 421.857391 
L 518.4 421.857391 
L 518.4 277.231304 
L 72 277.231304 
z
" style="fill: #ffffff"/>
   </g>
   <g id="matplotlib.axis_3">
    <g id="xtick_10">
     <g id="line2d_17">
      <g>
       <use xlink:href="#m16f827b2c7" x="92.290909" y="421.857391" style="stroke: #000000; stroke-width: 0.8"/>
      </g>
     </g>
    </g>
    <g id="xtick_11">
     <g id="line2d_18">
      <g>
       <use xlink:href="#m16f827b2c7" x="143.273093" y="421.857391" style="stroke: #000000; stroke-width: 0.8"/>
      </g>
     </g>
    </g>
    <g id="xtick_12">
     <g id="line2d_19">
      <g>
       <use xlink:href="#m16f827b2c7" x="194.255276" y="421.857391" style="stroke: #000000; stroke-width: 0.8"/>
      </g>
     </g>
    </g>
    <g id="xtick_13">
     <g id="line2d_20">
      <g>
       <use xlink:href="#m16f827b2c7" x="245.23746" y="421.857391" style="stroke: #000000; stroke-width: 0.8"/>
      </g>
     </g>
    </g>
    <g id="xtick_14">
     <g id="line2d_21">
      <g>
       <use xlink:href="#m16f827b2c7" x="296.219644" y="421.857391" style="stroke: #000000; stroke-width: 0.8"/>
      </g>
     </g>
    </g>
    <g id="xtick_15">
     <g id="line2d_22">
      <g>
       <use xlink:href="#m16f827b2c7" x="347.201827" y="421.857391" style="stroke: #000000; stroke-width: 0.8"/>
      </g>
     </g>
    </g>
    <g id="xtick_16">
     <g id="line2d_23">
      <g>
       <use xlink:href="#m16f827b2c7" x="398.184011" y="421.857391" style="stroke: #000000; stroke-width: 0.8"/>
      </g>
     </g>
    </g>
    <g id="xtick_17">
     <g id="line2d_24">
      <g>
       <use xlink:href="#m16f827b2c7" x="449.166195" y="421.857391" style="stroke: #000000; stroke-width: 0.8"/>
      </g>
     </g>
    </g>
    <g id="xtick_18">
     <g id="line2d_25">
      <g>
       <use xlink:href="#m16f827b2c7" x="500.148378" y="421.857391" style="stroke: #000000; stroke-width: 0.8"/>
      </g>
     </g>
    </g>
   </g>
   <g id="matplotlib.axis_4">
    <g id="ytick_7">
     <g id="line2d_26">
      <g>
       <use xlink:href="#mf3d385e345" x="72" y="421.857391" style="stroke: #000000; stroke-width: 0.8"/>
      </g>
     </g>
     <g id="text_8">
      <!-- 0.0 -->
      <g transform="translate(49.096875 425.65661) scale(0.1 -0.1)">
       <use xlink:href="#DejaVuSans-30"/>
       <use xlink:href="#DejaVuSans-2e" x="63.623047"/>
       <use xlink:href="#DejaVuSans-30" x="95.410156"/>
      </g>
     </g>
    </g>
    <g id="ytick_8">
     <g id="line2d_27">
      <g>
       <use xlink:href="#mf3d385e345" x="72" y="392.932174" style="stroke: #000000; stroke-width: 0.8"/>
      </g>
     </g>
     <g id="text_9">
      <!-- 0.2 -->
      <g transform="translate(49.096875 396.731393) scale(0.1 -0.1)">
       <use xlink:href="#DejaVuSans-30"/>
       <use xlink:href="#DejaVuSans-2e" x="63.623047"/>
       <use xlink:href="#DejaVuSans-32" x="95.410156"/>
      </g>
     </g>
    </g>
    <g id="ytick_9">
     <g id="line2d_28">
      <g>
       <use xlink:href="#mf3d385e345" x="72" y="364.006957" style="stroke: #000000; stroke-width: 0.8"/>
      </g>
     </g>
     <g id="text_10">
      <!-- 0.4 -->
      <g transform="translate(49.096875 367.806175) scale(0.1 -0.1)">
       <use xlink:href="#DejaVuSans-30"/>
       <use xlink:href="#DejaVuSans-2e" x="63.623047"/>
       <use xlink:href="#DejaVuSans-34" x="95.410156"/>
      </g>
     </g>
    </g>
    <g id="ytick_10">
     <g id="line2d_29">
      <g>
       <use xlink:href="#mf3d385e345" x="72" y="335.081739" style="stroke: #000000; stroke-width: 0.8"/>
      </g>
     </g>
     <g id="text_11">
      <!-- 0.6 -->
      <g transform="translate(49.096875 338.880958) scale(0.1 -0.1)">
       <use xlink:href="#DejaVuSans-30"/>
       <use xlink:href="#DejaVuSans-2e" x="63.623047"/>
       <use xlink:href="#DejaVuSans-36" x="95.410156"/>
      </g>
     </g>
    </g>
    <g id="ytick_11">
     <g id="line2d_30">
      <g>
       <use xlink:href="#mf3d385e345" x="72" y="306.156522" style="stroke: #000000; stroke-width: 0.8"/>
      </g>
     </g>
     <g id="text_12">
      <!-- 0.8 -->
      <g transform="translate(49.096875 309.95574) scale(0.1 -0.1)">
       <use xlink:href="#DejaVuSans-30"/>
       <use xlink:href="#DejaVuSans-2e" x="63.623047"/>
       <use xlink:href="#DejaVuSans-38" x="95.410156"/>
      </g>
     </g>
    </g>
    <g id="ytick_12">
     <g id="line2d_31">
      <g>
       <use xlink:href="#mf3d385e345" x="72" y="277.231304" style="stroke: #000000; stroke-width: 0.8"/>
      </g>
     </g>
     <g id="text_13">
      <!-- 1.0 -->
      <g transform="translate(49.096875 281.030523) scale(0.1 -0.1)">
       <use xlink:href="#DejaVuSans-31"/>
       <use xlink:href="#DejaVuSans-2e" x="63.623047"/>
       <use xlink:href="#DejaVuSans-30" x="95.410156"/>
      </g>
     </g>
    </g>
   </g>
   <g id="line2d_32">
    <path d="M 92.290909 403.318991 
L 94.330196 381.019767 
L 96.369484 398.846351 
L 98.408771 398.056366 
L 100.448058 396.636489 
L 102.487346 382.431157 
L 104.526633 372.104154 
L 106.565921 403.469368 
L 108.605208 388.41616 
L 110.644495 396.801255 
L 112.683783 398.367907 
L 114.72307 373.880014 
L 116.762357 399.528993 
L 118.801645 400.910128 
L 120.840932 381.697101 
L 122.880219 377.675354 
L 124.919507 374.632875 
L 126.958794 400.589171 
L 128.998081 400.001024 
L 131.037369 399.23434 
L 133.076656 399.821354 
L 135.115943 400.981156 
L 137.155231 399.868966 
L 139.194518 396.114404 
L 141.233805 398.202247 
L 143.273093 366.274208 
L 145.31238 379.549202 
L 147.351667 387.664354 
L 149.390955 400.433388 
L 151.430242 394.939387 
L 153.469529 382.885977 
L 155.508817 402.564124 
L 157.548104 401.967815 
L 159.587392 382.431605 
L 161.626679 402.602818 
L 163.665966 376.528787 
L 165.705254 386.670872 
L 167.744541 395.168892 
L 169.783828 386.877667 
L 171.823116 399.2265 
L 173.862403 387.310824 
L 175.90169 371.984335 
L 177.940978 399.487322 
L 179.980265 406.164673 
L 182.019552 399.326257 
L 184.05884 378.724115 
L 186.098127 400.495966 
L 188.137414 405.452572 
L 190.176702 403.022271 
L 192.215989 376.249723 
L 194.255276 403.852099 
L 196.294564 404.205764 
L 198.333851 398.720606 
L 200.373138 401.053138 
L 202.412426 397.615336 
L 204.451713 373.674245 
L 206.491 396.385153 
L 208.530288 369.750379 
L 210.569575 399.536885 
L 212.608862 401.921224 
L 214.64815 393.398821 
L 216.687437 399.927934 
L 218.726725 399.772228 
L 220.766012 372.612912 
L 222.805299 404.769204 
L 224.844587 370.587017 
L 226.883874 398.8756 
L 228.923161 400.617584 
L 230.962449 373.594998 
L 233.001736 372.362813 
L 235.041023 381.849139 
L 237.080311 384.746205 
L 239.119598 397.722065 
L 241.158885 373.931128 
L 243.198173 401.406632 
L 245.23746 380.214959 
L 247.276747 377.852766 
L 249.316035 383.535756 
L 251.355322 388.471123 
L 253.394609 399.694056 
L 255.433897 400.17738 
L 257.473184 390.548139 
L 259.512471 376.415657 
L 261.551759 375.404499 
L 263.591046 373.255505 
L 265.630333 371.752955 
L 267.669621 401.407203 
L 269.708908 375.945342 
L 271.748196 371.236003 
L 273.787483 400.222003 
L 275.82677 381.607492 
L 277.866058 396.666719 
L 279.905345 373.089972 
L 281.944632 399.832101 
L 283.98392 400.732147 
L 286.023207 385.948671 
L 288.062494 399.703636 
L 290.101782 398.266104 
L 292.141069 402.381436 
L 294.180356 389.353905 
L 296.219644 399.219929 
L 298.258931 397.825954 
L 300.298218 401.691335 
L 302.337506 397.441263 
L 304.376793 371.831021 
L 306.41608 378.405919 
L 308.455368 399.541353 
L 310.494655 382.830884 
L 312.533942 374.312119 
L 314.57323 371.637377 
L 316.612517 403.762461 
L 318.651804 369.009426 
L 320.691092 397.973138 
L 322.730379 396.336664 
L 324.769667 395.991187 
L 326.808954 395.335059 
L 328.848241 377.090577 
L 330.887529 382.993008 
L 332.926816 403.441677 
L 334.966103 395.732681 
L 337.005391 402.141578 
L 339.044678 374.819132 
L 341.083965 374.670736 
L 343.123253 400.09954 
L 345.16254 397.047415 
L 347.201827 399.806863 
L 349.241115 397.506817 
L 351.280402 371.786967 
L 353.319689 398.914834 
L 355.358977 393.42327 
L 357.398264 372.080741 
L 359.437551 366.886035 
L 361.476839 376.279136 
L 363.516126 372.955749 
L 365.555413 401.896735 
L 367.594701 364.48462 
L 369.633988 389.329483 
L 371.673275 392.295715 
L 373.712563 373.280574 
L 375.75185 377.230818 
L 377.791138 396.764284 
L 379.830425 401.047106 
L 381.869712 396.452431 
L 383.909 399.807037 
L 385.948287 400.279495 
L 387.987574 382.278257 
L 390.026862 400.824618 
L 392.066149 398.268283 
L 394.105436 376.141322 
L 396.144724 377.209728 
L 398.184011 385.761447 
L 400.223298 391.149312 
L 402.262586 391.724729 
L 404.301873 399.340254 
L 406.34116 403.140252 
L 408.380448 375.740996 
L 410.419735 398.653873 
L 412.459022 402.258839 
L 414.49831 401.652742 
L 416.537597 381.173805 
L 418.576884 395.09046 
L 420.616172 398.839681 
L 422.655459 394.639665 
L 424.694746 387.862244 
L 426.734034 399.155877 
L 428.773321 398.104272 
L 430.812608 398.052151 
L 432.851896 401.625301 
L 434.891183 391.716886 
L 436.930471 383.397847 
L 438.969758 396.481141 
L 441.009045 400.960307 
L 443.048333 396.058911 
L 445.08762 374.164676 
L 447.126907 400.794113 
L 449.166195 399.331418 
L 451.205482 394.076659 
L 453.244769 372.829145 
L 455.284057 401.066937 
L 457.323344 401.071323 
L 459.362631 406.480179 
L 461.401919 375.473427 
L 463.441206 401.033723 
L 465.480493 403.826196 
L 467.519781 371.94575 
L 469.559068 396.68407 
L 471.598355 369.326717 
L 473.637643 401.617982 
L 475.67693 369.966087 
L 477.716217 374.60891 
L 479.755505 403.865895 
L 481.794792 371.623787 
L 483.834079 371.761618 
L 485.873367 401.679165 
L 487.912654 382.409791 
L 489.951942 398.311715 
L 491.991229 392.174211 
L 494.030516 388.155406 
L 496.069804 374.551438 
L 498.109091 399.618361 
L 498.109091 399.618361 
" clip-path="url(#p38089d711b)" style="fill: none; stroke: #1f77b4; stroke-width: 1.5; stroke-linecap: square"/>
   </g>
   <g id="patch_8">
    <path d="M 72 421.857391 
L 72 277.231304 
" style="fill: none; stroke: #000000; stroke-width: 0.8; stroke-linejoin: miter; stroke-linecap: square"/>
   </g>
   <g id="patch_9">
    <path d="M 518.4 421.857391 
L 518.4 277.231304 
" style="fill: none; stroke: #000000; stroke-width: 0.8; stroke-linejoin: miter; stroke-linecap: square"/>
   </g>
   <g id="patch_10">
    <path d="M 72 421.857391 
L 518.4 421.857391 
" style="fill: none; stroke: #000000; stroke-width: 0.8; stroke-linejoin: miter; stroke-linecap: square"/>
   </g>
   <g id="patch_11">
    <path d="M 72 277.231304 
L 518.4 277.231304 
" style="fill: none; stroke: #000000; stroke-width: 0.8; stroke-linejoin: miter; stroke-linecap: square"/>
   </g>
   <g id="text_14">
    <!-- Context 2 -->
    <g transform="translate(265.969687 271.231304) scale(0.12 -0.12)">
     <use xlink:href="#DejaVuSans-43"/>
     <use xlink:href="#DejaVuSans-6f" x="69.824219"/>
     <use xlink:href="#DejaVuSans-6e" x="131.005859"/>
     <use xlink:href="#DejaVuSans-74" x="194.384766"/>
     <use xlink:href="#DejaVuSans-65" x="233.59375"/>
     <use xlink:href="#DejaVuSans-78" x="293.367188"/>
     <use xlink:href="#DejaVuSans-74" x="352.546875"/>
     <use xlink:href="#DejaVuSans-20" x="391.755859"/>
     <use xlink:href="#DejaVuSans-32" x="423.542969"/>
    </g>
   </g>
  </g>
  <g id="axes_3">
   <g id="patch_12">
    <path d="M 72 595.408696 
L 518.4 595.408696 
L 518.4 450.782609 
L 72 450.782609 
z
" style="fill: #ffffff"/>
   </g>
   <g id="matplotlib.axis_5">
    <g id="xtick_19">
     <g id="line2d_33">
      <g>
       <use xlink:href="#m16f827b2c7" x="92.290909" y="595.408696" style="stroke: #000000; stroke-width: 0.8"/>
      </g>
     </g>
    </g>
    <g id="xtick_20">
     <g id="line2d_34">
      <g>
       <use xlink:href="#m16f827b2c7" x="143.273093" y="595.408696" style="stroke: #000000; stroke-width: 0.8"/>
      </g>
     </g>
    </g>
    <g id="xtick_21">
     <g id="line2d_35">
      <g>
       <use xlink:href="#m16f827b2c7" x="194.255276" y="595.408696" style="stroke: #000000; stroke-width: 0.8"/>
      </g>
     </g>
    </g>
    <g id="xtick_22">
     <g id="line2d_36">
      <g>
       <use xlink:href="#m16f827b2c7" x="245.23746" y="595.408696" style="stroke: #000000; stroke-width: 0.8"/>
      </g>
     </g>
    </g>
    <g id="xtick_23">
     <g id="line2d_37">
      <g>
       <use xlink:href="#m16f827b2c7" x="296.219644" y="595.408696" style="stroke: #000000; stroke-width: 0.8"/>
      </g>
     </g>
    </g>
    <g id="xtick_24">
     <g id="line2d_38">
      <g>
       <use xlink:href="#m16f827b2c7" x="347.201827" y="595.408696" style="stroke: #000000; stroke-width: 0.8"/>
      </g>
     </g>
    </g>
    <g id="xtick_25">
     <g id="line2d_39">
      <g>
       <use xlink:href="#m16f827b2c7" x="398.184011" y="595.408696" style="stroke: #000000; stroke-width: 0.8"/>
      </g>
     </g>
    </g>
    <g id="xtick_26">
     <g id="line2d_40">
      <g>
       <use xlink:href="#m16f827b2c7" x="449.166195" y="595.408696" style="stroke: #000000; stroke-width: 0.8"/>
      </g>
     </g>
    </g>
    <g id="xtick_27">
     <g id="line2d_41">
      <g>
       <use xlink:href="#m16f827b2c7" x="500.148378" y="595.408696" style="stroke: #000000; stroke-width: 0.8"/>
      </g>
     </g>
    </g>
   </g>
   <g id="matplotlib.axis_6">
    <g id="ytick_13">
     <g id="line2d_42">
      <g>
       <use xlink:href="#mf3d385e345" x="72" y="595.408696" style="stroke: #000000; stroke-width: 0.8"/>
      </g>
     </g>
     <g id="text_15">
      <!-- 0.0 -->
      <g transform="translate(49.096875 599.207914) scale(0.1 -0.1)">
       <use xlink:href="#DejaVuSans-30"/>
       <use xlink:href="#DejaVuSans-2e" x="63.623047"/>
       <use xlink:href="#DejaVuSans-30" x="95.410156"/>
      </g>
     </g>
    </g>
    <g id="ytick_14">
     <g id="line2d_43">
      <g>
       <use xlink:href="#mf3d385e345" x="72" y="566.483478" style="stroke: #000000; stroke-width: 0.8"/>
      </g>
     </g>
     <g id="text_16">
      <!-- 0.2 -->
      <g transform="translate(49.096875 570.282697) scale(0.1 -0.1)">
       <use xlink:href="#DejaVuSans-30"/>
       <use xlink:href="#DejaVuSans-2e" x="63.623047"/>
       <use xlink:href="#DejaVuSans-32" x="95.410156"/>
      </g>
     </g>
    </g>
    <g id="ytick_15">
     <g id="line2d_44">
      <g>
       <use xlink:href="#mf3d385e345" x="72" y="537.558261" style="stroke: #000000; stroke-width: 0.8"/>
      </g>
     </g>
     <g id="text_17">
      <!-- 0.4 -->
      <g transform="translate(49.096875 541.35748) scale(0.1 -0.1)">
       <use xlink:href="#DejaVuSans-30"/>
       <use xlink:href="#DejaVuSans-2e" x="63.623047"/>
       <use xlink:href="#DejaVuSans-34" x="95.410156"/>
      </g>
     </g>
    </g>
    <g id="ytick_16">
     <g id="line2d_45">
      <g>
       <use xlink:href="#mf3d385e345" x="72" y="508.633043" style="stroke: #000000; stroke-width: 0.8"/>
      </g>
     </g>
     <g id="text_18">
      <!-- 0.6 -->
      <g transform="translate(49.096875 512.432262) scale(0.1 -0.1)">
       <use xlink:href="#DejaVuSans-30"/>
       <use xlink:href="#DejaVuSans-2e" x="63.623047"/>
       <use xlink:href="#DejaVuSans-36" x="95.410156"/>
      </g>
     </g>
    </g>
    <g id="ytick_17">
     <g id="line2d_46">
      <g>
       <use xlink:href="#mf3d385e345" x="72" y="479.707826" style="stroke: #000000; stroke-width: 0.8"/>
      </g>
     </g>
     <g id="text_19">
      <!-- 0.8 -->
      <g transform="translate(49.096875 483.507045) scale(0.1 -0.1)">
       <use xlink:href="#DejaVuSans-30"/>
       <use xlink:href="#DejaVuSans-2e" x="63.623047"/>
       <use xlink:href="#DejaVuSans-38" x="95.410156"/>
      </g>
     </g>
    </g>
    <g id="ytick_18">
     <g id="line2d_47">
      <g>
       <use xlink:href="#mf3d385e345" x="72" y="450.782609" style="stroke: #000000; stroke-width: 0.8"/>
      </g>
     </g>
     <g id="text_20">
      <!-- 1.0 -->
      <g transform="translate(49.096875 454.581827) scale(0.1 -0.1)">
       <use xlink:href="#DejaVuSans-31"/>
       <use xlink:href="#DejaVuSans-2e" x="63.623047"/>
       <use xlink:href="#DejaVuSans-30" x="95.410156"/>
      </g>
     </g>
    </g>
   </g>
   <g id="line2d_48">
    <path d="M 92.290909 527.942469 
L 94.330196 528.00451 
L 96.369484 576.651586 
L 98.408771 574.07937 
L 100.448058 569.608202 
L 102.487346 575.319779 
L 104.526633 551.298695 
L 106.565921 507.691496 
L 108.605208 576.508841 
L 110.644495 573.845348 
L 112.683783 575.350532 
L 114.72307 567.445231 
L 116.762357 570.450041 
L 118.801645 574.77949 
L 120.840932 574.001612 
L 122.880219 555.437752 
L 124.919507 526.350482 
L 126.958794 588.802164 
L 128.998081 569.482398 
L 131.037369 570.2154 
L 133.076656 582.524741 
L 135.115943 518.703781 
L 137.155231 573.773814 
L 139.194518 577.764243 
L 141.233805 570.610247 
L 143.273093 540.697891 
L 145.31238 566.694371 
L 147.351667 576.098405 
L 149.390955 574.0404 
L 151.430242 579.886279 
L 153.469529 530.31492 
L 155.508817 556.590388 
L 157.548104 567.003649 
L 161.626679 589.635047 
L 163.665966 569.151785 
L 165.705254 574.076077 
L 167.744541 579.697442 
L 169.783828 576.385849 
L 171.823116 575.675637 
L 173.862403 576.839163 
L 175.90169 543.707182 
L 177.940978 584.513198 
L 179.980265 591.264039 
L 182.019552 585.041103 
L 184.05884 505.715177 
L 186.098127 584.764598 
L 188.137414 590.330214 
L 190.176702 567.474294 
L 192.215989 530.922614 
L 194.255276 575.404882 
L 196.294564 574.109776 
L 198.333851 577.441438 
L 200.373138 570.530025 
L 202.412426 572.442128 
L 204.451713 559.10083 
L 206.491 581.102135 
L 208.530288 531.103539 
L 210.569575 573.594512 
L 212.608862 573.098808 
L 214.64815 518.38743 
L 216.687437 549.718837 
L 218.726725 567.812485 
L 220.766012 548.662361 
L 222.805299 560.277323 
L 224.844587 558.036148 
L 226.883874 576.295588 
L 228.923161 577.743174 
L 230.962449 534.771664 
L 233.001736 516.172206 
L 235.041023 555.365052 
L 237.080311 576.927624 
L 239.119598 568.760516 
L 241.158885 541.36826 
L 243.198173 564.626259 
L 247.276747 541.976312 
L 249.316035 577.110529 
L 251.355322 576.521713 
L 253.394609 571.270544 
L 255.433897 568.691006 
L 257.473184 576.430462 
L 259.512471 545.988377 
L 261.551759 559.635794 
L 263.591046 538.882235 
L 265.630333 550.944401 
L 267.669621 576.573634 
L 269.708908 542.902848 
L 271.748196 560.565296 
L 273.787483 576.964017 
L 275.82677 542.960906 
L 277.866058 572.302672 
L 279.905345 533.790936 
L 281.944632 536.977397 
L 283.98392 573.225879 
L 286.023207 577.504077 
L 288.062494 567.277463 
L 290.101782 520.404393 
L 292.141069 573.160247 
L 294.180356 577.52604 
L 296.219644 495.358024 
L 298.258931 576.188423 
L 300.298218 577.015228 
L 302.337506 573.427247 
L 304.376793 572.786993 
L 306.41608 578.474988 
L 308.455368 572.504926 
L 310.494655 540.309556 
L 312.533942 549.015185 
L 314.57323 528.286797 
L 316.612517 572.495404 
L 318.651804 537.107612 
L 320.691092 574.054802 
L 322.730379 501.160967 
L 324.769667 576.274146 
L 326.808954 572.04044 
L 328.848241 533.146803 
L 330.887529 577.003373 
L 332.926816 533.065478 
L 334.966103 572.582119 
L 337.005391 586.255838 
L 339.044678 537.959522 
L 341.083965 547.090408 
L 343.123253 568.789375 
L 345.16254 567.347993 
L 347.201827 568.525594 
L 349.241115 578.593132 
L 351.280402 558.224645 
L 353.319689 533.855175 
L 355.358977 576.257645 
L 357.398264 535.731591 
L 359.437551 539.651277 
L 361.476839 539.222663 
L 363.516126 553.316206 
L 365.555413 577.880943 
L 367.594701 528.961118 
L 369.633988 577.740079 
L 371.673275 579.918944 
L 373.712563 536.720703 
L 375.75185 551.419432 
L 377.791138 571.357755 
L 379.830425 530.066433 
L 381.869712 574.912225 
L 383.909 570.735555 
L 385.948287 568.724647 
L 387.987574 579.4537 
L 390.026862 575.598349 
L 392.066149 579.243521 
L 394.105436 576.154099 
L 396.144724 544.844728 
L 398.184011 563.102465 
L 400.223298 575.601386 
L 402.262586 576.551376 
L 404.301873 587.506051 
L 406.34116 509.84654 
L 408.380448 576.284666 
L 410.419735 581.995427 
L 412.459022 586.523893 
L 414.49831 587.990827 
L 416.537597 569.569227 
L 418.576884 579.210625 
L 420.616172 580.920599 
L 422.655459 571.394691 
L 424.694746 572.070887 
L 426.734034 567.480669 
L 428.773321 579.970682 
L 430.812608 570.900932 
L 432.851896 567.050852 
L 434.891183 579.523692 
L 436.930471 575.176894 
L 438.969758 573.268922 
L 441.009045 573.072888 
L 443.048333 570.990955 
L 445.08762 546.908341 
L 447.126907 570.538857 
L 449.166195 575.188801 
L 451.205482 575.986167 
L 453.244769 543.416757 
L 455.284057 588.942778 
L 457.323344 568.597557 
L 459.362631 568.323881 
L 461.401919 568.815566 
L 463.441206 570.411441 
L 465.480493 570.48854 
L 467.519781 539.396601 
L 469.559068 577.001996 
L 471.598355 542.80983 
L 473.637643 570.857024 
L 475.67693 540.516945 
L 477.716217 528.924266 
L 479.755505 566.086403 
L 481.794792 517.644413 
L 483.834079 530.022008 
L 485.873367 564.361455 
L 487.912654 575.045472 
L 489.951942 565.120998 
L 491.991229 570.822549 
L 494.030516 578.95019 
L 496.069804 574.136564 
L 498.109091 584.937449 
L 498.109091 584.937449 
" clip-path="url(#p295783d383)" style="fill: none; stroke: #1f77b4; stroke-width: 1.5; stroke-linecap: square"/>
   </g>
   <g id="patch_13">
    <path d="M 72 595.408696 
L 72 450.782609 
" style="fill: none; stroke: #000000; stroke-width: 0.8; stroke-linejoin: miter; stroke-linecap: square"/>
   </g>
   <g id="patch_14">
    <path d="M 518.4 595.408696 
L 518.4 450.782609 
" style="fill: none; stroke: #000000; stroke-width: 0.8; stroke-linejoin: miter; stroke-linecap: square"/>
   </g>
   <g id="patch_15">
    <path d="M 72 595.408696 
L 518.4 595.408696 
" style="fill: none; stroke: #000000; stroke-width: 0.8; stroke-linejoin: miter; stroke-linecap: square"/>
   </g>
   <g id="patch_16">
    <path d="M 72 450.782609 
L 518.4 450.782609 
" style="fill: none; stroke: #000000; stroke-width: 0.8; stroke-linejoin: miter; stroke-linecap: square"/>
   </g>
   <g id="text_21">
    <!-- Context 3 -->
    <g transform="translate(265.969687 444.782609) scale(0.12 -0.12)">
     <defs>
      <path id="DejaVuSans-33" d="M 2597 2516 
Q 3050 2419 3304 2112 
Q 3559 1806 3559 1356 
Q 3559 666 3084 287 
Q 2609 -91 1734 -91 
Q 1441 -91 1130 -33 
Q 819 25 488 141 
L 488 750 
Q 750 597 1062 519 
Q 1375 441 1716 441 
Q 2309 441 2620 675 
Q 2931 909 2931 1356 
Q 2931 1769 2642 2001 
Q 2353 2234 1838 2234 
L 1294 2234 
L 1294 2753 
L 1863 2753 
Q 2328 2753 2575 2939 
Q 2822 3125 2822 3475 
Q 2822 3834 2567 4026 
Q 2313 4219 1838 4219 
Q 1578 4219 1281 4162 
Q 984 4106 628 3988 
L 628 4550 
Q 988 4650 1302 4700 
Q 1616 4750 1894 4750 
Q 2613 4750 3031 4423 
Q 3450 4097 3450 3541 
Q 3450 3153 3228 2886 
Q 3006 2619 2597 2516 
z
" transform="scale(0.015625)"/>
     </defs>
     <use xlink:href="#DejaVuSans-43"/>
     <use xlink:href="#DejaVuSans-6f" x="69.824219"/>
     <use xlink:href="#DejaVuSans-6e" x="131.005859"/>
     <use xlink:href="#DejaVuSans-74" x="194.384766"/>
     <use xlink:href="#DejaVuSans-65" x="233.59375"/>
     <use xlink:href="#DejaVuSans-78" x="293.367188"/>
     <use xlink:href="#DejaVuSans-74" x="352.546875"/>
     <use xlink:href="#DejaVuSans-20" x="391.755859"/>
     <use xlink:href="#DejaVuSans-33" x="423.542969"/>
    </g>
   </g>
  </g>
  <g id="axes_4">
   <g id="patch_17">
    <path d="M 72 768.96 
L 518.4 768.96 
L 518.4 624.333913 
L 72 624.333913 
z
" style="fill: #ffffff"/>
   </g>
   <g id="matplotlib.axis_7">
    <g id="xtick_28">
     <g id="line2d_49">
      <g>
       <use xlink:href="#m16f827b2c7" x="92.290909" y="768.96" style="stroke: #000000; stroke-width: 0.8"/>
      </g>
     </g>
     <g id="text_22">
      <!-- 0 -->
      <g transform="translate(89.109659 783.558437) scale(0.1 -0.1)">
       <use xlink:href="#DejaVuSans-30"/>
      </g>
     </g>
    </g>
    <g id="xtick_29">
     <g id="line2d_50">
      <g>
       <use xlink:href="#m16f827b2c7" x="143.273093" y="768.96" style="stroke: #000000; stroke-width: 0.8"/>
      </g>
     </g>
     <g id="text_23">
      <!-- 25 -->
      <g transform="translate(136.910593 783.558437) scale(0.1 -0.1)">
       <defs>
        <path id="DejaVuSans-35" d="M 691 4666 
L 3169 4666 
L 3169 4134 
L 1269 4134 
L 1269 2991 
Q 1406 3038 1543 3061 
Q 1681 3084 1819 3084 
Q 2600 3084 3056 2656 
Q 3513 2228 3513 1497 
Q 3513 744 3044 326 
Q 2575 -91 1722 -91 
Q 1428 -91 1123 -41 
Q 819 9 494 109 
L 494 744 
Q 775 591 1075 516 
Q 1375 441 1709 441 
Q 2250 441 2565 725 
Q 2881 1009 2881 1497 
Q 2881 1984 2565 2268 
Q 2250 2553 1709 2553 
Q 1456 2553 1204 2497 
Q 953 2441 691 2322 
L 691 4666 
z
" transform="scale(0.015625)"/>
       </defs>
       <use xlink:href="#DejaVuSans-32"/>
       <use xlink:href="#DejaVuSans-35" x="63.623047"/>
      </g>
     </g>
    </g>
    <g id="xtick_30">
     <g id="line2d_51">
      <g>
       <use xlink:href="#m16f827b2c7" x="194.255276" y="768.96" style="stroke: #000000; stroke-width: 0.8"/>
      </g>
     </g>
     <g id="text_24">
      <!-- 50 -->
      <g transform="translate(187.892776 783.558437) scale(0.1 -0.1)">
       <use xlink:href="#DejaVuSans-35"/>
       <use xlink:href="#DejaVuSans-30" x="63.623047"/>
      </g>
     </g>
    </g>
    <g id="xtick_31">
     <g id="line2d_52">
      <g>
       <use xlink:href="#m16f827b2c7" x="245.23746" y="768.96" style="stroke: #000000; stroke-width: 0.8"/>
      </g>
     </g>
     <g id="text_25">
      <!-- 75 -->
      <g transform="translate(238.87496 783.558437) scale(0.1 -0.1)">
       <defs>
        <path id="DejaVuSans-37" d="M 525 4666 
L 3525 4666 
L 3525 4397 
L 1831 0 
L 1172 0 
L 2766 4134 
L 525 4134 
L 525 4666 
z
" transform="scale(0.015625)"/>
       </defs>
       <use xlink:href="#DejaVuSans-37"/>
       <use xlink:href="#DejaVuSans-35" x="63.623047"/>
      </g>
     </g>
    </g>
    <g id="xtick_32">
     <g id="line2d_53">
      <g>
       <use xlink:href="#m16f827b2c7" x="296.219644" y="768.96" style="stroke: #000000; stroke-width: 0.8"/>
      </g>
     </g>
     <g id="text_26">
      <!-- 100 -->
      <g transform="translate(286.675894 783.558437) scale(0.1 -0.1)">
       <use xlink:href="#DejaVuSans-31"/>
       <use xlink:href="#DejaVuSans-30" x="63.623047"/>
       <use xlink:href="#DejaVuSans-30" x="127.246094"/>
      </g>
     </g>
    </g>
    <g id="xtick_33">
     <g id="line2d_54">
      <g>
       <use xlink:href="#m16f827b2c7" x="347.201827" y="768.96" style="stroke: #000000; stroke-width: 0.8"/>
      </g>
     </g>
     <g id="text_27">
      <!-- 125 -->
      <g transform="translate(337.658077 783.558437) scale(0.1 -0.1)">
       <use xlink:href="#DejaVuSans-31"/>
       <use xlink:href="#DejaVuSans-32" x="63.623047"/>
       <use xlink:href="#DejaVuSans-35" x="127.246094"/>
      </g>
     </g>
    </g>
    <g id="xtick_34">
     <g id="line2d_55">
      <g>
       <use xlink:href="#m16f827b2c7" x="398.184011" y="768.96" style="stroke: #000000; stroke-width: 0.8"/>
      </g>
     </g>
     <g id="text_28">
      <!-- 150 -->
      <g transform="translate(388.640261 783.558437) scale(0.1 -0.1)">
       <use xlink:href="#DejaVuSans-31"/>
       <use xlink:href="#DejaVuSans-35" x="63.623047"/>
       <use xlink:href="#DejaVuSans-30" x="127.246094"/>
      </g>
     </g>
    </g>
    <g id="xtick_35">
     <g id="line2d_56">
      <g>
       <use xlink:href="#m16f827b2c7" x="449.166195" y="768.96" style="stroke: #000000; stroke-width: 0.8"/>
      </g>
     </g>
     <g id="text_29">
      <!-- 175 -->
      <g transform="translate(439.622445 783.558437) scale(0.1 -0.1)">
       <use xlink:href="#DejaVuSans-31"/>
       <use xlink:href="#DejaVuSans-37" x="63.623047"/>
       <use xlink:href="#DejaVuSans-35" x="127.246094"/>
      </g>
     </g>
    </g>
    <g id="xtick_36">
     <g id="line2d_57">
      <g>
       <use xlink:href="#m16f827b2c7" x="500.148378" y="768.96" style="stroke: #000000; stroke-width: 0.8"/>
      </g>
     </g>
     <g id="text_30">
      <!-- 200 -->
      <g transform="translate(490.604628 783.558437) scale(0.1 -0.1)">
       <use xlink:href="#DejaVuSans-32"/>
       <use xlink:href="#DejaVuSans-30" x="63.623047"/>
       <use xlink:href="#DejaVuSans-30" x="127.246094"/>
      </g>
     </g>
    </g>
    <g id="text_31">
     <!-- t -->
     <g transform="translate(293.239844 797.236562) scale(0.1 -0.1)">
      <use xlink:href="#DejaVuSans-74"/>
     </g>
    </g>
   </g>
   <g id="matplotlib.axis_8">
    <g id="ytick_19">
     <g id="line2d_58">
      <g>
       <use xlink:href="#mf3d385e345" x="72" y="768.96" style="stroke: #000000; stroke-width: 0.8"/>
      </g>
     </g>
     <g id="text_32">
      <!-- 0.0 -->
      <g transform="translate(49.096875 772.759219) scale(0.1 -0.1)">
       <use xlink:href="#DejaVuSans-30"/>
       <use xlink:href="#DejaVuSans-2e" x="63.623047"/>
       <use xlink:href="#DejaVuSans-30" x="95.410156"/>
      </g>
     </g>
    </g>
    <g id="ytick_20">
     <g id="line2d_59">
      <g>
       <use xlink:href="#mf3d385e345" x="72" y="740.034783" style="stroke: #000000; stroke-width: 0.8"/>
      </g>
     </g>
     <g id="text_33">
      <!-- 0.2 -->
      <g transform="translate(49.096875 743.834001) scale(0.1 -0.1)">
       <use xlink:href="#DejaVuSans-30"/>
       <use xlink:href="#DejaVuSans-2e" x="63.623047"/>
       <use xlink:href="#DejaVuSans-32" x="95.410156"/>
      </g>
     </g>
    </g>
    <g id="ytick_21">
     <g id="line2d_60">
      <g>
       <use xlink:href="#mf3d385e345" x="72" y="711.109565" style="stroke: #000000; stroke-width: 0.8"/>
      </g>
     </g>
     <g id="text_34">
      <!-- 0.4 -->
      <g transform="translate(49.096875 714.908784) scale(0.1 -0.1)">
       <use xlink:href="#DejaVuSans-30"/>
       <use xlink:href="#DejaVuSans-2e" x="63.623047"/>
       <use xlink:href="#DejaVuSans-34" x="95.410156"/>
      </g>
     </g>
    </g>
    <g id="ytick_22">
     <g id="line2d_61">
      <g>
       <use xlink:href="#mf3d385e345" x="72" y="682.184348" style="stroke: #000000; stroke-width: 0.8"/>
      </g>
     </g>
     <g id="text_35">
      <!-- 0.6 -->
      <g transform="translate(49.096875 685.983567) scale(0.1 -0.1)">
       <use xlink:href="#DejaVuSans-30"/>
       <use xlink:href="#DejaVuSans-2e" x="63.623047"/>
       <use xlink:href="#DejaVuSans-36" x="95.410156"/>
      </g>
     </g>
    </g>
    <g id="ytick_23">
     <g id="line2d_62">
      <g>
       <use xlink:href="#mf3d385e345" x="72" y="653.25913" style="stroke: #000000; stroke-width: 0.8"/>
      </g>
     </g>
     <g id="text_36">
      <!-- 0.8 -->
      <g transform="translate(49.096875 657.058349) scale(0.1 -0.1)">
       <use xlink:href="#DejaVuSans-30"/>
       <use xlink:href="#DejaVuSans-2e" x="63.623047"/>
       <use xlink:href="#DejaVuSans-38" x="95.410156"/>
      </g>
     </g>
    </g>
    <g id="ytick_24">
     <g id="line2d_63">
      <g>
       <use xlink:href="#mf3d385e345" x="72" y="624.333913" style="stroke: #000000; stroke-width: 0.8"/>
      </g>
     </g>
     <g id="text_37">
      <!-- 1.0 -->
      <g transform="translate(49.096875 628.133132) scale(0.1 -0.1)">
       <use xlink:href="#DejaVuSans-31"/>
       <use xlink:href="#DejaVuSans-2e" x="63.623047"/>
       <use xlink:href="#DejaVuSans-30" x="95.410156"/>
      </g>
     </g>
    </g>
    <g id="text_38">
     <!-- |$\dot{r}(t)$| -->
     <g transform="translate(42.696875 707.946957) rotate(-90) scale(0.1 -0.1)">
      <defs>
       <path id="DejaVuSans-7c" d="M 1344 4891 
L 1344 -1509 
L 813 -1509 
L 813 4891 
L 1344 4891 
z
" transform="scale(0.015625)"/>
       <path id="DejaVuSans-307" d="M -1894 4863 
L -1319 4863 
L -1319 4134 
L -1894 4134 
L -1894 4863 
z
M -1600 3584 
L -1600 3584 
z
" transform="scale(0.015625)"/>
       <path id="DejaVuSans-Oblique-72" d="M 2853 2969 
Q 2766 3016 2653 3041 
Q 2541 3066 2413 3066 
Q 1953 3066 1609 2717 
Q 1266 2369 1153 1784 
L 800 0 
L 225 0 
L 909 3500 
L 1484 3500 
L 1375 2956 
Q 1603 3259 1920 3421 
Q 2238 3584 2597 3584 
Q 2691 3584 2781 3573 
Q 2872 3563 2963 3538 
L 2853 2969 
z
" transform="scale(0.015625)"/>
       <path id="DejaVuSans-28" d="M 1984 4856 
Q 1566 4138 1362 3434 
Q 1159 2731 1159 2009 
Q 1159 1288 1364 580 
Q 1569 -128 1984 -844 
L 1484 -844 
Q 1016 -109 783 600 
Q 550 1309 550 2009 
Q 550 2706 781 3412 
Q 1013 4119 1484 4856 
L 1984 4856 
z
" transform="scale(0.015625)"/>
       <path id="DejaVuSans-Oblique-74" d="M 2706 3500 
L 2619 3053 
L 1472 3053 
L 1100 1153 
Q 1081 1047 1072 975 
Q 1063 903 1063 863 
Q 1063 663 1183 572 
Q 1303 481 1569 481 
L 2150 481 
L 2053 0 
L 1503 0 
Q 991 0 739 200 
Q 488 400 488 806 
Q 488 878 497 964 
Q 506 1050 525 1153 
L 897 3053 
L 409 3053 
L 500 3500 
L 978 3500 
L 1172 4494 
L 1747 4494 
L 1556 3500 
L 2706 3500 
z
" transform="scale(0.015625)"/>
       <path id="DejaVuSans-29" d="M 513 4856 
L 1013 4856 
Q 1481 4119 1714 3412 
Q 1947 2706 1947 2009 
Q 1947 1309 1714 600 
Q 1481 -109 1013 -844 
L 513 -844 
Q 928 -128 1133 580 
Q 1338 1288 1338 2009 
Q 1338 2731 1133 3434 
Q 928 4138 513 4856 
z
" transform="scale(0.015625)"/>
      </defs>
      <use xlink:href="#DejaVuSans-7c" transform="translate(0 0.515625)"/>
      <use xlink:href="#DejaVuSans-307" transform="translate(84.563477 13.015625)"/>
      <use xlink:href="#DejaVuSans-Oblique-72" transform="translate(33.691406 0.515625)"/>
      <use xlink:href="#DejaVuSans-28" transform="translate(74.804688 0.515625)"/>
      <use xlink:href="#DejaVuSans-Oblique-74" transform="translate(113.818359 0.515625)"/>
      <use xlink:href="#DejaVuSans-29" transform="translate(153.027344 0.515625)"/>
      <use xlink:href="#DejaVuSans-7c" transform="translate(192.041016 0.515625)"/>
     </g>
    </g>
   </g>
   <g id="line2d_64">
    <path d="M 92.290909 746.13568 
L 94.330196 749.486555 
L 96.369484 749.575117 
L 98.408771 748.014148 
L 100.448058 741.494354 
L 102.487346 750.953862 
L 104.526633 737.317688 
L 106.565921 745.679612 
L 108.605208 752.830196 
L 110.644495 739.392669 
L 112.683783 748.729522 
L 114.72307 746.727678 
L 116.762357 744.382437 
L 118.801645 743.729805 
L 120.840932 753.997044 
L 122.880219 737.364908 
L 124.919507 737.271483 
L 126.958794 764.04583 
L 128.998081 743.60381 
L 131.037369 745.341781 
L 133.076656 753.878979 
L 135.115943 745.886227 
L 137.155231 751.727138 
L 139.194518 749.794678 
L 141.233805 743.757794 
L 143.273093 740.413698 
L 145.31238 749.686962 
L 147.351667 752.058492 
L 149.390955 748.92925 
L 151.430242 749.824748 
L 153.469529 730.47937 
L 155.508817 748.040063 
L 157.548104 750.221204 
L 159.587392 749.810538 
L 161.626679 762.901116 
L 163.665966 744.702778 
L 165.705254 752.174037 
L 167.744541 750.103456 
L 169.783828 750.175997 
L 171.823116 752.90594 
L 173.862403 749.708862 
L 175.90169 735.770288 
L 177.940978 754.761038 
L 179.980265 765.967134 
L 182.019552 758.408897 
L 184.05884 730.689178 
L 186.098127 759.860628 
L 188.137414 764.682171 
L 190.176702 747.162635 
L 192.215989 731.758274 
L 194.255276 749.768405 
L 196.294564 749.915155 
L 198.333851 750.381078 
L 200.373138 749.403692 
L 202.412426 746.795863 
L 204.451713 733.132743 
L 206.491 754.801933 
L 208.530288 727.000057 
L 210.569575 744.337452 
L 212.608862 744.277271 
L 214.64815 750.736149 
L 216.687437 743.223125 
L 218.726725 743.481685 
L 220.766012 731.075655 
L 222.805299 749.451589 
L 224.844587 739.551482 
L 226.883874 747.094112 
L 228.923161 750.748677 
L 230.962449 735.916703 
L 233.001736 726.663828 
L 235.041023 733.058446 
L 237.080311 751.551821 
L 239.119598 744.939713 
L 241.158885 744.287327 
L 243.198173 749.953871 
L 245.23746 733.96395 
L 247.276747 736.489969 
L 249.316035 752.252164 
L 251.355322 753.197617 
L 253.394609 744.113604 
L 255.433897 741.973621 
L 257.473184 752.77863 
L 259.512471 729.361453 
L 261.551759 747.970971 
L 263.591046 730.180657 
L 265.630333 734.828075 
L 267.669621 748.991206 
L 269.708908 730.37031 
L 271.748196 736.831147 
L 273.787483 749.966627 
L 275.82677 734.812593 
L 277.866058 748.01251 
L 279.905345 735.276309 
L 281.944632 750.080002 
L 283.98392 748.435765 
L 286.023207 752.120664 
L 288.062494 745.796476 
L 290.101782 749.143552 
L 292.141069 746.833739 
L 294.180356 749.630811 
L 296.219644 744.934218 
L 300.298218 750.523062 
L 302.337506 748.306905 
L 306.41608 747.832381 
L 308.455368 745.457673 
L 310.494655 729.054166 
L 312.533942 744.460157 
L 314.57323 740.429732 
L 316.612517 746.534769 
L 318.651804 743.710552 
L 320.691092 745.406804 
L 322.730379 746.121829 
L 324.769667 748.748409 
L 326.808954 749.376939 
L 328.848241 732.310862 
L 330.887529 751.199747 
L 332.926816 748.887859 
L 334.966103 749.035938 
L 337.005391 760.249015 
L 339.044678 739.341117 
L 341.083965 741.500698 
L 343.123253 748.652229 
L 345.16254 743.194479 
L 347.201827 741.009494 
L 349.241115 751.409881 
L 351.280402 748.557661 
L 353.319689 747.152129 
L 355.358977 750.093922 
L 357.398264 745.088581 
L 359.437551 739.41597 
L 361.476839 732.792061 
L 363.516126 749.593328 
L 365.555413 749.744309 
L 367.594701 734.124695 
L 369.633988 754.295951 
L 371.673275 750.463491 
L 373.712563 737.116402 
L 375.75185 732.292871 
L 377.791138 746.960164 
L 379.830425 749.772953 
L 381.869712 749.391929 
L 383.909 741.879642 
L 385.948287 744.711999 
L 387.987574 751.25312 
L 390.026862 747.658749 
L 392.066149 753.95846 
L 394.105436 753.804086 
L 396.144724 732.501717 
L 398.184011 751.358542 
L 400.223298 749.505231 
L 402.262586 751.050386 
L 404.301873 759.588324 
L 406.34116 744.740684 
L 410.419735 755.194245 
L 414.49831 762.151566 
L 416.537597 751.188005 
L 418.576884 753.259546 
L 420.616172 755.031263 
L 422.655459 746.275369 
L 424.694746 753.998534 
L 426.734034 746.369956 
L 428.773321 753.407904 
L 430.812608 742.66811 
L 432.851896 744.53601 
L 434.891183 751.259504 
L 436.930471 751.381303 
L 438.969758 746.368781 
L 441.009045 744.932593 
L 443.048333 749.766507 
L 445.08762 736.431913 
L 447.126907 742.521124 
L 449.166195 750.583168 
L 451.205482 750.404562 
L 453.244769 733.886949 
L 455.284057 762.854334 
L 457.323344 742.696262 
L 459.362631 741.374442 
L 461.401919 750.217071 
L 463.441206 745.533619 
L 465.480493 747.569698 
L 467.519781 738.391053 
L 469.559068 748.554319 
L 471.598355 737.350775 
L 473.637643 748.207309 
L 475.67693 736.311448 
L 477.716217 732.727175 
L 479.755505 745.017527 
L 481.794792 738.998474 
L 483.834079 737.539706 
L 485.873367 745.092262 
L 487.912654 753.343565 
L 489.951942 745.077605 
L 491.991229 749.722676 
L 494.030516 751.256457 
L 496.069804 753.24695 
L 498.109091 759.515589 
L 498.109091 759.515589 
" clip-path="url(#p6fe7592897)" style="fill: none; stroke: #1f77b4; stroke-width: 1.5; stroke-linecap: square"/>
   </g>
   <g id="patch_18">
    <path d="M 72 768.96 
L 72 624.333913 
" style="fill: none; stroke: #000000; stroke-width: 0.8; stroke-linejoin: miter; stroke-linecap: square"/>
   </g>
   <g id="patch_19">
    <path d="M 518.4 768.96 
L 518.4 624.333913 
" style="fill: none; stroke: #000000; stroke-width: 0.8; stroke-linejoin: miter; stroke-linecap: square"/>
   </g>
   <g id="patch_20">
    <path d="M 72 768.96 
L 518.4 768.96 
" style="fill: none; stroke: #000000; stroke-width: 0.8; stroke-linejoin: miter; stroke-linecap: square"/>
   </g>
   <g id="patch_21">
    <path d="M 72 624.333913 
L 518.4 624.333913 
" style="fill: none; stroke: #000000; stroke-width: 0.8; stroke-linejoin: miter; stroke-linecap: square"/>
   </g>
   <g id="text_39">
    <!-- Context 4 -->
    <g transform="translate(265.969687 618.333913) scale(0.12 -0.12)">
     <use xlink:href="#DejaVuSans-43"/>
     <use xlink:href="#DejaVuSans-6f" x="69.824219"/>
     <use xlink:href="#DejaVuSans-6e" x="131.005859"/>
     <use xlink:href="#DejaVuSans-74" x="194.384766"/>
     <use xlink:href="#DejaVuSans-65" x="233.59375"/>
     <use xlink:href="#DejaVuSans-78" x="293.367188"/>
     <use xlink:href="#DejaVuSans-74" x="352.546875"/>
     <use xlink:href="#DejaVuSans-20" x="391.755859"/>
     <use xlink:href="#DejaVuSans-34" x="423.542969"/>
    </g>
   </g>
  </g>
 </g>
 <defs>
  <clipPath id="pd4d484bfee">
   <rect x="72" y="103.68" width="446.4" height="144.626087"/>
  </clipPath>
  <clipPath id="p38089d711b">
   <rect x="72" y="277.231304" width="446.4" height="144.626087"/>
  </clipPath>
  <clipPath id="p295783d383">
   <rect x="72" y="450.782609" width="446.4" height="144.626087"/>
  </clipPath>
  <clipPath id="p6fe7592897">
   <rect x="72" y="624.333913" width="446.4" height="144.626087"/>
  </clipPath>
 </defs>
</svg>
