<?xml version="1.0" encoding="utf-8" standalone="no"?>
<!DOCTYPE svg PUBLIC "-//W3C//DTD SVG 1.1//EN"
  "http://www.w3.org/Graphics/SVG/1.1/DTD/svg11.dtd">
<svg xmlns:xlink="http://www.w3.org/1999/xlink" width="576pt" height="864pt" viewBox="0 0 576 864" xmlns="http://www.w3.org/2000/svg" version="1.1">
 <metadata>
  <rdf:RDF xmlns:dc="http://purl.org/dc/elements/1.1/" xmlns:cc="http://creativecommons.org/ns#" xmlns:rdf="http://www.w3.org/1999/02/22-rdf-syntax-ns#">
   <cc:Work>
    <dc:type rdf:resource="http://purl.org/dc/dcmitype/StillImage"/>
    <dc:date>2025-02-19T10:21:13.040259</dc:date>
    <dc:format>image/svg+xml</dc:format>
    <dc:creator>
     <cc:Agent>
      <dc:title>Matplotlib v3.7.5, https://matplotlib.org/</dc:title>
     </cc:Agent>
    </dc:creator>
   </cc:Work>
  </rdf:RDF>
 </metadata>
 <defs>
  <style type="text/css">*{stroke-linejoin: round; stroke-linecap: butt}</style>
 </defs>
 <g id="figure_1">
  <g id="patch_1">
   <path d="M 0 864 
L 576 864 
L 576 0 
L 0 0 
z
" style="fill: #ffffff"/>
  </g>
  <g id="axes_1">
   <g id="patch_2">
    <path d="M 72 248.306087 
L 518.4 248.306087 
L 518.4 103.68 
L 72 103.68 
z
" style="fill: #ffffff"/>
   </g>
   <g id="matplotlib.axis_1">
    <g id="xtick_1">
     <g id="line2d_1">
      <defs>
       <path id="m7633e7d067" d="M 0 0 
L 0 3.5 
" style="stroke: #000000; stroke-width: 0.8"/>
      </defs>
      <g>
       <use xlink:href="#m7633e7d067" x="92.290909" y="248.306087" style="stroke: #000000; stroke-width: 0.8"/>
      </g>
     </g>
    </g>
    <g id="xtick_2">
     <g id="line2d_2">
      <g>
       <use xlink:href="#m7633e7d067" x="143.273093" y="248.306087" style="stroke: #000000; stroke-width: 0.8"/>
      </g>
     </g>
    </g>
    <g id="xtick_3">
     <g id="line2d_3">
      <g>
       <use xlink:href="#m7633e7d067" x="194.255276" y="248.306087" style="stroke: #000000; stroke-width: 0.8"/>
      </g>
     </g>
    </g>
    <g id="xtick_4">
     <g id="line2d_4">
      <g>
       <use xlink:href="#m7633e7d067" x="245.23746" y="248.306087" style="stroke: #000000; stroke-width: 0.8"/>
      </g>
     </g>
    </g>
    <g id="xtick_5">
     <g id="line2d_5">
      <g>
       <use xlink:href="#m7633e7d067" x="296.219644" y="248.306087" style="stroke: #000000; stroke-width: 0.8"/>
      </g>
     </g>
    </g>
    <g id="xtick_6">
     <g id="line2d_6">
      <g>
       <use xlink:href="#m7633e7d067" x="347.201827" y="248.306087" style="stroke: #000000; stroke-width: 0.8"/>
      </g>
     </g>
    </g>
    <g id="xtick_7">
     <g id="line2d_7">
      <g>
       <use xlink:href="#m7633e7d067" x="398.184011" y="248.306087" style="stroke: #000000; stroke-width: 0.8"/>
      </g>
     </g>
    </g>
    <g id="xtick_8">
     <g id="line2d_8">
      <g>
       <use xlink:href="#m7633e7d067" x="449.166195" y="248.306087" style="stroke: #000000; stroke-width: 0.8"/>
      </g>
     </g>
    </g>
    <g id="xtick_9">
     <g id="line2d_9">
      <g>
       <use xlink:href="#m7633e7d067" x="500.148378" y="248.306087" style="stroke: #000000; stroke-width: 0.8"/>
      </g>
     </g>
    </g>
   </g>
   <g id="matplotlib.axis_2">
    <g id="ytick_1">
     <g id="line2d_10">
      <defs>
       <path id="m23863fc853" d="M 0 0 
L -3.5 0 
" style="stroke: #000000; stroke-width: 0.8"/>
      </defs>
      <g>
       <use xlink:href="#m23863fc853" x="72" y="248.306087" style="stroke: #000000; stroke-width: 0.8"/>
      </g>
     </g>
     <g id="text_1">
      <!-- 0.0 -->
      <g transform="translate(49.096875 252.105306) scale(0.1 -0.1)">
       <defs>
        <path id="DejaVuSans-30" d="M 2034 4250 
Q 1547 4250 1301 3770 
Q 1056 3291 1056 2328 
Q 1056 1369 1301 889 
Q 1547 409 2034 409 
Q 2525 409 2770 889 
Q 3016 1369 3016 2328 
Q 3016 3291 2770 3770 
Q 2525 4250 2034 4250 
z
M 2034 4750 
Q 2819 4750 3233 4129 
Q 3647 3509 3647 2328 
Q 3647 1150 3233 529 
Q 2819 -91 2034 -91 
Q 1250 -91 836 529 
Q 422 1150 422 2328 
Q 422 3509 836 4129 
Q 1250 4750 2034 4750 
z
" transform="scale(0.015625)"/>
        <path id="DejaVuSans-2e" d="M 684 794 
L 1344 794 
L 1344 0 
L 684 0 
L 684 794 
z
" transform="scale(0.015625)"/>
       </defs>
       <use xlink:href="#DejaVuSans-30"/>
       <use xlink:href="#DejaVuSans-2e" x="63.623047"/>
       <use xlink:href="#DejaVuSans-30" x="95.410156"/>
      </g>
     </g>
    </g>
    <g id="ytick_2">
     <g id="line2d_11">
      <g>
       <use xlink:href="#m23863fc853" x="72" y="224.201739" style="stroke: #000000; stroke-width: 0.8"/>
      </g>
     </g>
     <g id="text_2">
      <!-- 2.5 -->
      <g transform="translate(49.096875 228.000958) scale(0.1 -0.1)">
       <defs>
        <path id="DejaVuSans-32" d="M 1228 531 
L 3431 531 
L 3431 0 
L 469 0 
L 469 531 
Q 828 903 1448 1529 
Q 2069 2156 2228 2338 
Q 2531 2678 2651 2914 
Q 2772 3150 2772 3378 
Q 2772 3750 2511 3984 
Q 2250 4219 1831 4219 
Q 1534 4219 1204 4116 
Q 875 4013 500 3803 
L 500 4441 
Q 881 4594 1212 4672 
Q 1544 4750 1819 4750 
Q 2544 4750 2975 4387 
Q 3406 4025 3406 3419 
Q 3406 3131 3298 2873 
Q 3191 2616 2906 2266 
Q 2828 2175 2409 1742 
Q 1991 1309 1228 531 
z
" transform="scale(0.015625)"/>
        <path id="DejaVuSans-35" d="M 691 4666 
L 3169 4666 
L 3169 4134 
L 1269 4134 
L 1269 2991 
Q 1406 3038 1543 3061 
Q 1681 3084 1819 3084 
Q 2600 3084 3056 2656 
Q 3513 2228 3513 1497 
Q 3513 744 3044 326 
Q 2575 -91 1722 -91 
Q 1428 -91 1123 -41 
Q 819 9 494 109 
L 494 744 
Q 775 591 1075 516 
Q 1375 441 1709 441 
Q 2250 441 2565 725 
Q 2881 1009 2881 1497 
Q 2881 1984 2565 2268 
Q 2250 2553 1709 2553 
Q 1456 2553 1204 2497 
Q 953 2441 691 2322 
L 691 4666 
z
" transform="scale(0.015625)"/>
       </defs>
       <use xlink:href="#DejaVuSans-32"/>
       <use xlink:href="#DejaVuSans-2e" x="63.623047"/>
       <use xlink:href="#DejaVuSans-35" x="95.410156"/>
      </g>
     </g>
    </g>
    <g id="ytick_3">
     <g id="line2d_12">
      <g>
       <use xlink:href="#m23863fc853" x="72" y="200.097391" style="stroke: #000000; stroke-width: 0.8"/>
      </g>
     </g>
     <g id="text_3">
      <!-- 5.0 -->
      <g transform="translate(49.096875 203.89661) scale(0.1 -0.1)">
       <use xlink:href="#DejaVuSans-35"/>
       <use xlink:href="#DejaVuSans-2e" x="63.623047"/>
       <use xlink:href="#DejaVuSans-30" x="95.410156"/>
      </g>
     </g>
    </g>
    <g id="ytick_4">
     <g id="line2d_13">
      <g>
       <use xlink:href="#m23863fc853" x="72" y="175.993043" style="stroke: #000000; stroke-width: 0.8"/>
      </g>
     </g>
     <g id="text_4">
      <!-- 7.5 -->
      <g transform="translate(49.096875 179.792262) scale(0.1 -0.1)">
       <defs>
        <path id="DejaVuSans-37" d="M 525 4666 
L 3525 4666 
L 3525 4397 
L 1831 0 
L 1172 0 
L 2766 4134 
L 525 4134 
L 525 4666 
z
" transform="scale(0.015625)"/>
       </defs>
       <use xlink:href="#DejaVuSans-37"/>
       <use xlink:href="#DejaVuSans-2e" x="63.623047"/>
       <use xlink:href="#DejaVuSans-35" x="95.410156"/>
      </g>
     </g>
    </g>
    <g id="ytick_5">
     <g id="line2d_14">
      <g>
       <use xlink:href="#m23863fc853" x="72" y="151.888696" style="stroke: #000000; stroke-width: 0.8"/>
      </g>
     </g>
     <g id="text_5">
      <!-- 10.0 -->
      <g transform="translate(42.734375 155.687914) scale(0.1 -0.1)">
       <defs>
        <path id="DejaVuSans-31" d="M 794 531 
L 1825 531 
L 1825 4091 
L 703 3866 
L 703 4441 
L 1819 4666 
L 2450 4666 
L 2450 531 
L 3481 531 
L 3481 0 
L 794 0 
L 794 531 
z
" transform="scale(0.015625)"/>
       </defs>
       <use xlink:href="#DejaVuSans-31"/>
       <use xlink:href="#DejaVuSans-30" x="63.623047"/>
       <use xlink:href="#DejaVuSans-2e" x="127.246094"/>
       <use xlink:href="#DejaVuSans-30" x="159.033203"/>
      </g>
     </g>
    </g>
    <g id="ytick_6">
     <g id="line2d_15">
      <g>
       <use xlink:href="#m23863fc853" x="72" y="127.784348" style="stroke: #000000; stroke-width: 0.8"/>
      </g>
     </g>
     <g id="text_6">
      <!-- 12.5 -->
      <g transform="translate(42.734375 131.583567) scale(0.1 -0.1)">
       <use xlink:href="#DejaVuSans-31"/>
       <use xlink:href="#DejaVuSans-32" x="63.623047"/>
       <use xlink:href="#DejaVuSans-2e" x="127.246094"/>
       <use xlink:href="#DejaVuSans-35" x="159.033203"/>
      </g>
     </g>
    </g>
    <g id="ytick_7">
     <g id="line2d_16">
      <g>
       <use xlink:href="#m23863fc853" x="72" y="103.68" style="stroke: #000000; stroke-width: 0.8"/>
      </g>
     </g>
     <g id="text_7">
      <!-- 15.0 -->
      <g transform="translate(42.734375 107.479219) scale(0.1 -0.1)">
       <use xlink:href="#DejaVuSans-31"/>
       <use xlink:href="#DejaVuSans-35" x="63.623047"/>
       <use xlink:href="#DejaVuSans-2e" x="127.246094"/>
       <use xlink:href="#DejaVuSans-30" x="159.033203"/>
      </g>
     </g>
    </g>
   </g>
   <g id="line2d_17">
    <path d="M 92.290909 208.761882 
L 94.330196 215.103243 
L 96.369484 232.010909 
L 98.408771 229.327283 
L 100.448058 209.973324 
L 102.487346 225.734285 
L 104.526633 231.452485 
L 106.565921 175.926434 
L 108.605208 231.636588 
L 110.644495 201.054047 
L 112.683783 229.014706 
L 114.72307 230.084084 
L 116.762357 228.99509 
L 118.801645 200.062298 
L 120.840932 216.605567 
L 122.880219 230.882911 
L 124.919507 199.88618 
L 126.958794 179.847556 
L 128.998081 218.048677 
L 131.037369 211.143258 
L 133.076656 213.721781 
L 135.115943 203.079034 
L 137.155231 228.211495 
L 139.194518 185.892217 
L 141.233805 217.524438 
L 143.273093 223.276834 
L 145.31238 231.790694 
L 147.351667 231.962758 
L 149.390955 209.202607 
L 151.430242 196.856567 
L 153.469529 218.792341 
L 155.508817 217.762837 
L 157.548104 223.724951 
L 159.587392 233.354507 
L 161.626679 214.091805 
L 163.665966 232.289232 
L 165.705254 229.488106 
L 167.744541 232.273056 
L 169.783828 223.475231 
L 171.823116 229.566285 
L 173.862403 233.738947 
L 175.90169 217.812145 
L 177.940978 215.733207 
L 179.980265 211.567896 
L 182.019552 209.595968 
L 184.05884 187.363384 
L 186.098127 192.043886 
L 188.137414 184.150784 
L 190.176702 223.642499 
L 192.215989 217.918875 
L 194.255276 209.61696 
L 196.294564 231.462456 
L 198.333851 216.772387 
L 200.373138 228.121997 
L 202.412426 221.668076 
L 204.451713 227.875529 
L 206.491 214.209088 
L 208.530288 225.520654 
L 210.569575 195.280342 
L 212.608862 128.010896 
L 214.64815 197.179508 
L 216.687437 201.029827 
L 218.726725 179.013696 
L 220.766012 227.447211 
L 222.805299 224.940283 
L 224.844587 212.990929 
L 226.883874 212.097385 
L 228.923161 210.931151 
L 230.962449 195.238808 
L 233.001736 181.829105 
L 235.041023 226.245302 
L 237.080311 230.127791 
L 239.119598 194.262654 
L 241.158885 225.880071 
L 243.198173 226.97735 
L 245.23746 226.800919 
L 247.276747 210.554989 
L 249.316035 216.038224 
L 251.355322 233.690064 
L 253.394609 211.542375 
L 255.433897 227.031228 
L 257.473184 222.915536 
L 259.512471 217.920643 
L 261.551759 234.014156 
L 263.591046 218.498514 
L 265.630333 229.387022 
L 267.669621 209.738404 
L 269.708908 229.29673 
L 271.748196 231.033364 
L 273.787483 177.772397 
L 275.82677 186.18263 
L 277.866058 223.503474 
L 279.905345 212.520545 
L 281.944632 217.566439 
L 283.98392 230.977692 
L 286.023207 220.321974 
L 288.062494 190.753283 
L 290.101782 200.260163 
L 292.141069 227.242069 
L 294.180356 228.236618 
L 296.219644 166.130641 
L 298.258931 200.307094 
L 300.298218 231.579203 
L 302.337506 230.983632 
L 304.376793 232.452471 
L 306.41608 233.652853 
L 308.455368 226.836596 
L 310.494655 227.552453 
L 312.533942 227.692095 
L 314.57323 216.638051 
L 316.612517 220.781319 
L 318.651804 213.817031 
L 320.691092 220.73947 
L 322.730379 164.782339 
L 324.769667 232.63499 
L 326.808954 233.64049 
L 328.848241 211.322167 
L 330.887529 230.674079 
L 332.926816 215.899718 
L 334.966103 230.797415 
L 337.005391 209.403128 
L 339.044678 226.834725 
L 341.083965 190.857638 
L 343.123253 228.557234 
L 345.16254 225.79974 
L 347.201827 200.837986 
L 349.241115 208.380622 
L 351.280402 206.182777 
L 353.319689 215.893822 
L 355.358977 230.410271 
L 357.398264 219.431518 
L 359.437551 225.312578 
L 361.476839 223.310265 
L 363.516126 226.311511 
L 365.555413 191.465929 
L 369.633988 233.768504 
L 371.673275 234.370102 
L 373.712563 226.851648 
L 375.75185 205.145821 
L 377.791138 223.664574 
L 379.830425 212.609478 
L 381.869712 219.531057 
L 383.909 225.593138 
L 385.948287 223.689456 
L 387.987574 234.590496 
L 390.026862 231.061701 
L 392.066149 203.627286 
L 394.105436 230.142336 
L 396.144724 230.208223 
L 398.184011 231.640652 
L 400.223298 234.520515 
L 402.262586 231.241386 
L 404.301873 206.333967 
L 406.34116 179.029939 
L 408.380448 233.382091 
L 410.419735 207.432177 
L 412.459022 213.238575 
L 414.49831 213.888598 
L 416.537597 228.980852 
L 420.616172 199.579658 
L 422.655459 221.981728 
L 424.694746 232.791238 
L 426.734034 209.917329 
L 428.773321 211.525695 
L 432.851896 218.587955 
L 434.891183 231.916294 
L 436.930471 231.705249 
L 438.969758 226.842651 
L 441.009045 227.246749 
L 443.048333 228.757213 
L 445.08762 207.309607 
L 447.126907 222.907651 
L 449.166195 208.644617 
L 451.205482 232.655625 
L 453.244769 228.937055 
L 455.284057 185.074834 
L 457.323344 227.149721 
L 459.362631 204.848222 
L 461.401919 233.683425 
L 463.441206 190.031249 
L 465.480493 216.122508 
L 467.519781 226.503035 
L 469.559068 195.216896 
L 471.598355 226.177835 
L 473.637643 226.315913 
L 475.67693 221.828954 
L 477.716217 204.838457 
L 479.755505 213.233943 
L 481.794792 173.64519 
L 483.834079 214.448933 
L 485.873367 217.278594 
L 487.912654 233.342951 
L 489.951942 222.708851 
L 491.991229 231.067838 
L 494.030516 208.582298 
L 496.069804 233.986142 
L 498.109091 203.505143 
L 498.109091 203.505143 
" clip-path="url(#p9ac2318aff)" style="fill: none; stroke: #1f77b4; stroke-width: 1.5; stroke-linecap: square"/>
   </g>
   <g id="patch_3">
    <path d="M 72 248.306087 
L 72 103.68 
" style="fill: none; stroke: #000000; stroke-width: 0.8; stroke-linejoin: miter; stroke-linecap: square"/>
   </g>
   <g id="patch_4">
    <path d="M 518.4 248.306087 
L 518.4 103.68 
" style="fill: none; stroke: #000000; stroke-width: 0.8; stroke-linejoin: miter; stroke-linecap: square"/>
   </g>
   <g id="patch_5">
    <path d="M 72 248.306087 
L 518.4 248.306087 
" style="fill: none; stroke: #000000; stroke-width: 0.8; stroke-linejoin: miter; stroke-linecap: square"/>
   </g>
   <g id="patch_6">
    <path d="M 72 103.68 
L 518.4 103.68 
" style="fill: none; stroke: #000000; stroke-width: 0.8; stroke-linejoin: miter; stroke-linecap: square"/>
   </g>
   <g id="text_8">
    <!-- Context 1 -->
    <g transform="translate(265.969687 97.68) scale(0.12 -0.12)">
     <defs>
      <path id="DejaVuSans-43" d="M 4122 4306 
L 4122 3641 
Q 3803 3938 3442 4084 
Q 3081 4231 2675 4231 
Q 1875 4231 1450 3742 
Q 1025 3253 1025 2328 
Q 1025 1406 1450 917 
Q 1875 428 2675 428 
Q 3081 428 3442 575 
Q 3803 722 4122 1019 
L 4122 359 
Q 3791 134 3420 21 
Q 3050 -91 2638 -91 
Q 1578 -91 968 557 
Q 359 1206 359 2328 
Q 359 3453 968 4101 
Q 1578 4750 2638 4750 
Q 3056 4750 3426 4639 
Q 3797 4528 4122 4306 
z
" transform="scale(0.015625)"/>
      <path id="DejaVuSans-6f" d="M 1959 3097 
Q 1497 3097 1228 2736 
Q 959 2375 959 1747 
Q 959 1119 1226 758 
Q 1494 397 1959 397 
Q 2419 397 2687 759 
Q 2956 1122 2956 1747 
Q 2956 2369 2687 2733 
Q 2419 3097 1959 3097 
z
M 1959 3584 
Q 2709 3584 3137 3096 
Q 3566 2609 3566 1747 
Q 3566 888 3137 398 
Q 2709 -91 1959 -91 
Q 1206 -91 779 398 
Q 353 888 353 1747 
Q 353 2609 779 3096 
Q 1206 3584 1959 3584 
z
" transform="scale(0.015625)"/>
      <path id="DejaVuSans-6e" d="M 3513 2113 
L 3513 0 
L 2938 0 
L 2938 2094 
Q 2938 2591 2744 2837 
Q 2550 3084 2163 3084 
Q 1697 3084 1428 2787 
Q 1159 2491 1159 1978 
L 1159 0 
L 581 0 
L 581 3500 
L 1159 3500 
L 1159 2956 
Q 1366 3272 1645 3428 
Q 1925 3584 2291 3584 
Q 2894 3584 3203 3211 
Q 3513 2838 3513 2113 
z
" transform="scale(0.015625)"/>
      <path id="DejaVuSans-74" d="M 1172 4494 
L 1172 3500 
L 2356 3500 
L 2356 3053 
L 1172 3053 
L 1172 1153 
Q 1172 725 1289 603 
Q 1406 481 1766 481 
L 2356 481 
L 2356 0 
L 1766 0 
Q 1100 0 847 248 
Q 594 497 594 1153 
L 594 3053 
L 172 3053 
L 172 3500 
L 594 3500 
L 594 4494 
L 1172 4494 
z
" transform="scale(0.015625)"/>
      <path id="DejaVuSans-65" d="M 3597 1894 
L 3597 1613 
L 953 1613 
Q 991 1019 1311 708 
Q 1631 397 2203 397 
Q 2534 397 2845 478 
Q 3156 559 3463 722 
L 3463 178 
Q 3153 47 2828 -22 
Q 2503 -91 2169 -91 
Q 1331 -91 842 396 
Q 353 884 353 1716 
Q 353 2575 817 3079 
Q 1281 3584 2069 3584 
Q 2775 3584 3186 3129 
Q 3597 2675 3597 1894 
z
M 3022 2063 
Q 3016 2534 2758 2815 
Q 2500 3097 2075 3097 
Q 1594 3097 1305 2825 
Q 1016 2553 972 2059 
L 3022 2063 
z
" transform="scale(0.015625)"/>
      <path id="DejaVuSans-78" d="M 3513 3500 
L 2247 1797 
L 3578 0 
L 2900 0 
L 1881 1375 
L 863 0 
L 184 0 
L 1544 1831 
L 300 3500 
L 978 3500 
L 1906 2253 
L 2834 3500 
L 3513 3500 
z
" transform="scale(0.015625)"/>
      <path id="DejaVuSans-20" transform="scale(0.015625)"/>
     </defs>
     <use xlink:href="#DejaVuSans-43"/>
     <use xlink:href="#DejaVuSans-6f" x="69.824219"/>
     <use xlink:href="#DejaVuSans-6e" x="131.005859"/>
     <use xlink:href="#DejaVuSans-74" x="194.384766"/>
     <use xlink:href="#DejaVuSans-65" x="233.59375"/>
     <use xlink:href="#DejaVuSans-78" x="293.367188"/>
     <use xlink:href="#DejaVuSans-74" x="352.546875"/>
     <use xlink:href="#DejaVuSans-20" x="391.755859"/>
     <use xlink:href="#DejaVuSans-31" x="423.542969"/>
    </g>
   </g>
  </g>
  <g id="axes_2">
   <g id="patch_7">
    <path d="M 72 421.857391 
L 518.4 421.857391 
L 518.4 277.231304 
L 72 277.231304 
z
" style="fill: #ffffff"/>
   </g>
   <g id="matplotlib.axis_3">
    <g id="xtick_10">
     <g id="line2d_18">
      <g>
       <use xlink:href="#m7633e7d067" x="92.290909" y="421.857391" style="stroke: #000000; stroke-width: 0.8"/>
      </g>
     </g>
    </g>
    <g id="xtick_11">
     <g id="line2d_19">
      <g>
       <use xlink:href="#m7633e7d067" x="143.273093" y="421.857391" style="stroke: #000000; stroke-width: 0.8"/>
      </g>
     </g>
    </g>
    <g id="xtick_12">
     <g id="line2d_20">
      <g>
       <use xlink:href="#m7633e7d067" x="194.255276" y="421.857391" style="stroke: #000000; stroke-width: 0.8"/>
      </g>
     </g>
    </g>
    <g id="xtick_13">
     <g id="line2d_21">
      <g>
       <use xlink:href="#m7633e7d067" x="245.23746" y="421.857391" style="stroke: #000000; stroke-width: 0.8"/>
      </g>
     </g>
    </g>
    <g id="xtick_14">
     <g id="line2d_22">
      <g>
       <use xlink:href="#m7633e7d067" x="296.219644" y="421.857391" style="stroke: #000000; stroke-width: 0.8"/>
      </g>
     </g>
    </g>
    <g id="xtick_15">
     <g id="line2d_23">
      <g>
       <use xlink:href="#m7633e7d067" x="347.201827" y="421.857391" style="stroke: #000000; stroke-width: 0.8"/>
      </g>
     </g>
    </g>
    <g id="xtick_16">
     <g id="line2d_24">
      <g>
       <use xlink:href="#m7633e7d067" x="398.184011" y="421.857391" style="stroke: #000000; stroke-width: 0.8"/>
      </g>
     </g>
    </g>
    <g id="xtick_17">
     <g id="line2d_25">
      <g>
       <use xlink:href="#m7633e7d067" x="449.166195" y="421.857391" style="stroke: #000000; stroke-width: 0.8"/>
      </g>
     </g>
    </g>
    <g id="xtick_18">
     <g id="line2d_26">
      <g>
       <use xlink:href="#m7633e7d067" x="500.148378" y="421.857391" style="stroke: #000000; stroke-width: 0.8"/>
      </g>
     </g>
    </g>
   </g>
   <g id="matplotlib.axis_4">
    <g id="ytick_8">
     <g id="line2d_27">
      <g>
       <use xlink:href="#m23863fc853" x="72" y="421.857391" style="stroke: #000000; stroke-width: 0.8"/>
      </g>
     </g>
     <g id="text_9">
      <!-- 0.0 -->
      <g transform="translate(49.096875 425.65661) scale(0.1 -0.1)">
       <use xlink:href="#DejaVuSans-30"/>
       <use xlink:href="#DejaVuSans-2e" x="63.623047"/>
       <use xlink:href="#DejaVuSans-30" x="95.410156"/>
      </g>
     </g>
    </g>
    <g id="ytick_9">
     <g id="line2d_28">
      <g>
       <use xlink:href="#m23863fc853" x="72" y="397.753043" style="stroke: #000000; stroke-width: 0.8"/>
      </g>
     </g>
     <g id="text_10">
      <!-- 2.5 -->
      <g transform="translate(49.096875 401.552262) scale(0.1 -0.1)">
       <use xlink:href="#DejaVuSans-32"/>
       <use xlink:href="#DejaVuSans-2e" x="63.623047"/>
       <use xlink:href="#DejaVuSans-35" x="95.410156"/>
      </g>
     </g>
    </g>
    <g id="ytick_10">
     <g id="line2d_29">
      <g>
       <use xlink:href="#m23863fc853" x="72" y="373.648696" style="stroke: #000000; stroke-width: 0.8"/>
      </g>
     </g>
     <g id="text_11">
      <!-- 5.0 -->
      <g transform="translate(49.096875 377.447914) scale(0.1 -0.1)">
       <use xlink:href="#DejaVuSans-35"/>
       <use xlink:href="#DejaVuSans-2e" x="63.623047"/>
       <use xlink:href="#DejaVuSans-30" x="95.410156"/>
      </g>
     </g>
    </g>
    <g id="ytick_11">
     <g id="line2d_30">
      <g>
       <use xlink:href="#m23863fc853" x="72" y="349.544348" style="stroke: #000000; stroke-width: 0.8"/>
      </g>
     </g>
     <g id="text_12">
      <!-- 7.5 -->
      <g transform="translate(49.096875 353.343567) scale(0.1 -0.1)">
       <use xlink:href="#DejaVuSans-37"/>
       <use xlink:href="#DejaVuSans-2e" x="63.623047"/>
       <use xlink:href="#DejaVuSans-35" x="95.410156"/>
      </g>
     </g>
    </g>
    <g id="ytick_12">
     <g id="line2d_31">
      <g>
       <use xlink:href="#m23863fc853" x="72" y="325.44" style="stroke: #000000; stroke-width: 0.8"/>
      </g>
     </g>
     <g id="text_13">
      <!-- 10.0 -->
      <g transform="translate(42.734375 329.239219) scale(0.1 -0.1)">
       <use xlink:href="#DejaVuSans-31"/>
       <use xlink:href="#DejaVuSans-30" x="63.623047"/>
       <use xlink:href="#DejaVuSans-2e" x="127.246094"/>
       <use xlink:href="#DejaVuSans-30" x="159.033203"/>
      </g>
     </g>
    </g>
    <g id="ytick_13">
     <g id="line2d_32">
      <g>
       <use xlink:href="#m23863fc853" x="72" y="301.335652" style="stroke: #000000; stroke-width: 0.8"/>
      </g>
     </g>
     <g id="text_14">
      <!-- 12.5 -->
      <g transform="translate(42.734375 305.134871) scale(0.1 -0.1)">
       <use xlink:href="#DejaVuSans-31"/>
       <use xlink:href="#DejaVuSans-32" x="63.623047"/>
       <use xlink:href="#DejaVuSans-2e" x="127.246094"/>
       <use xlink:href="#DejaVuSans-35" x="159.033203"/>
      </g>
     </g>
    </g>
    <g id="ytick_14">
     <g id="line2d_33">
      <g>
       <use xlink:href="#m23863fc853" x="72" y="277.231304" style="stroke: #000000; stroke-width: 0.8"/>
      </g>
     </g>
     <g id="text_15">
      <!-- 15.0 -->
      <g transform="translate(42.734375 281.030523) scale(0.1 -0.1)">
       <use xlink:href="#DejaVuSans-31"/>
       <use xlink:href="#DejaVuSans-35" x="63.623047"/>
       <use xlink:href="#DejaVuSans-2e" x="127.246094"/>
       <use xlink:href="#DejaVuSans-30" x="159.033203"/>
      </g>
     </g>
    </g>
   </g>
   <g id="line2d_34">
    <path d="M 92.290909 406.176828 
L 94.330196 407.426876 
L 96.369484 407.499201 
L 98.408771 407.413327 
L 100.448058 400.857953 
L 102.487346 409.078942 
L 104.526633 406.716109 
L 106.565921 404.657688 
L 108.605208 408.309495 
L 110.644495 407.344558 
L 112.683783 406.810617 
L 114.72307 407.737627 
L 116.762357 403.122876 
L 118.801645 406.882028 
L 120.840932 408.226612 
L 122.880219 408.265688 
L 124.919507 408.803339 
L 126.958794 376.339286 
L 128.998081 402.521469 
L 131.037369 398.529943 
L 133.076656 393.707928 
L 135.115943 405.030914 
L 137.155231 406.562216 
L 139.194518 396.941817 
L 141.233805 401.971428 
L 143.273093 406.543931 
L 145.31238 407.272933 
L 147.351667 407.302796 
L 149.390955 403.959486 
L 151.430242 407.697957 
L 153.469529 408.788508 
L 155.508817 406.395407 
L 157.548104 406.890501 
L 159.587392 407.55272 
L 161.626679 390.59992 
L 163.665966 408.13302 
L 165.705254 408.730959 
L 167.744541 406.560561 
L 171.823116 408.115497 
L 173.862403 408.44532 
L 175.90169 407.808047 
L 177.940978 391.051812 
L 179.980265 385.634971 
L 182.019552 387.138506 
L 184.05884 408.191603 
L 186.098127 385.00851 
L 188.137414 378.183047 
L 190.176702 406.361705 
L 192.215989 407.093289 
L 194.255276 406.849518 
L 196.294564 407.9099 
L 198.333851 392.066071 
L 200.373138 407.942882 
L 202.412426 400.465498 
L 204.451713 407.637221 
L 206.491 391.083535 
L 208.530288 406.454554 
L 210.569575 405.535569 
L 212.608862 407.148228 
L 214.64815 408.296772 
L 216.687437 403.88478 
L 218.726725 404.445605 
L 220.766012 407.667112 
L 222.805299 406.867274 
L 224.844587 407.908962 
L 226.883874 406.706479 
L 228.923161 407.654333 
L 230.962449 408.081844 
L 233.001736 407.88319 
L 235.041023 409.235041 
L 237.080311 408.997626 
L 239.119598 400.941676 
L 241.158885 408.6309 
L 243.198173 406.827293 
L 245.23746 408.432852 
L 247.276747 407.508936 
L 249.316035 408.023382 
L 251.355322 407.96498 
L 253.394609 406.162421 
L 255.433897 401.231468 
L 257.473184 408.109933 
L 259.512471 408.066466 
L 261.551759 408.778472 
L 263.591046 408.378454 
L 265.630333 407.272195 
L 267.669621 406.882866 
L 269.708908 408.593185 
L 271.748196 406.829261 
L 273.787483 407.109166 
L 275.82677 409.176488 
L 277.866058 396.461128 
L 279.905345 408.129833 
L 283.98392 406.428058 
L 286.023207 407.66499 
L 288.062494 402.319242 
L 290.101782 408.091408 
L 292.141069 403.444364 
L 294.180356 408.503978 
L 296.219644 401.32455 
L 298.258931 400.02838 
L 300.298218 407.709591 
L 302.337506 407.907743 
L 304.376793 407.321675 
L 306.41608 406.591949 
L 308.455368 402.778369 
L 310.494655 407.796763 
L 312.533942 408.826293 
L 314.57323 408.091691 
L 316.612517 406.283507 
L 318.651804 407.071958 
L 320.691092 395.987347 
L 322.730379 401.0164 
L 324.769667 408.314158 
L 326.808954 407.430963 
L 328.848241 407.510965 
L 330.887529 407.882653 
L 332.926816 407.814883 
L 334.966103 406.584227 
L 337.005391 387.228209 
L 339.044678 408.974608 
L 341.083965 409.121805 
L 343.123253 406.941432 
L 345.16254 399.484295 
L 347.201827 401.493576 
L 349.241115 396.048124 
L 351.280402 407.951262 
L 353.319689 406.539898 
L 355.358977 408.388673 
L 359.437551 406.987145 
L 361.476839 408.438122 
L 363.516126 408.119671 
L 365.555413 405.894069 
L 367.594701 406.085038 
L 369.633988 408.261743 
L 371.673275 407.701611 
L 373.712563 408.248876 
L 375.75185 407.005518 
L 377.791138 397.677065 
L 379.830425 406.417812 
L 381.869712 395.327161 
L 383.909 402.539213 
L 385.948287 399.4029 
L 387.987574 406.566873 
L 390.026862 406.697845 
L 392.066149 394.519279 
L 394.105436 406.43089 
L 396.144724 408.442372 
L 398.184011 407.542825 
L 400.223298 409.283271 
L 402.262586 407.325305 
L 404.301873 386.567975 
L 406.34116 406.511273 
L 408.380448 406.684764 
L 410.419735 387.197854 
L 412.459022 389.773965 
L 414.49831 390.25187 
L 416.537597 409.169402 
L 418.576884 398.882199 
L 420.616172 385.785517 
L 422.655459 398.714391 
L 424.694746 408.372908 
L 426.734034 402.707713 
L 428.773321 389.63418 
L 430.812608 403.101242 
L 432.851896 404.14749 
L 434.891183 407.767206 
L 436.930471 407.853725 
L 438.969758 400.54144 
L 441.009045 405.428549 
L 443.048333 406.342099 
L 445.08762 407.941629 
L 447.126907 399.31392 
L 449.166195 403.290473 
L 451.205482 407.81185 
L 453.244769 408.286454 
L 455.284057 379.316538 
L 457.323344 406.557853 
L 459.362631 405.748888 
L 461.401919 407.820903 
L 463.441206 402.981817 
L 465.480493 406.010491 
L 467.519781 408.220289 
L 469.559068 399.242513 
L 471.598355 407.530733 
L 473.637643 407.144089 
L 475.67693 407.741262 
L 477.716217 407.733705 
L 479.755505 405.201147 
L 481.794792 408.019709 
L 483.834079 408.143218 
L 485.873367 406.052249 
L 487.912654 408.086763 
L 489.951942 399.876507 
L 491.991229 406.248092 
L 494.030516 408.059896 
L 496.069804 407.10869 
L 498.109091 386.175485 
L 498.109091 386.175485 
" clip-path="url(#p3a9da52bf2)" style="fill: none; stroke: #1f77b4; stroke-width: 1.5; stroke-linecap: square"/>
   </g>
   <g id="patch_8">
    <path d="M 72 421.857391 
L 72 277.231304 
" style="fill: none; stroke: #000000; stroke-width: 0.8; stroke-linejoin: miter; stroke-linecap: square"/>
   </g>
   <g id="patch_9">
    <path d="M 518.4 421.857391 
L 518.4 277.231304 
" style="fill: none; stroke: #000000; stroke-width: 0.8; stroke-linejoin: miter; stroke-linecap: square"/>
   </g>
   <g id="patch_10">
    <path d="M 72 421.857391 
L 518.4 421.857391 
" style="fill: none; stroke: #000000; stroke-width: 0.8; stroke-linejoin: miter; stroke-linecap: square"/>
   </g>
   <g id="patch_11">
    <path d="M 72 277.231304 
L 518.4 277.231304 
" style="fill: none; stroke: #000000; stroke-width: 0.8; stroke-linejoin: miter; stroke-linecap: square"/>
   </g>
   <g id="text_16">
    <!-- Context 2 -->
    <g transform="translate(265.969687 271.231304) scale(0.12 -0.12)">
     <use xlink:href="#DejaVuSans-43"/>
     <use xlink:href="#DejaVuSans-6f" x="69.824219"/>
     <use xlink:href="#DejaVuSans-6e" x="131.005859"/>
     <use xlink:href="#DejaVuSans-74" x="194.384766"/>
     <use xlink:href="#DejaVuSans-65" x="233.59375"/>
     <use xlink:href="#DejaVuSans-78" x="293.367188"/>
     <use xlink:href="#DejaVuSans-74" x="352.546875"/>
     <use xlink:href="#DejaVuSans-20" x="391.755859"/>
     <use xlink:href="#DejaVuSans-32" x="423.542969"/>
    </g>
   </g>
  </g>
  <g id="axes_3">
   <g id="patch_12">
    <path d="M 72 595.408696 
L 518.4 595.408696 
L 518.4 450.782609 
L 72 450.782609 
z
" style="fill: #ffffff"/>
   </g>
   <g id="matplotlib.axis_5">
    <g id="xtick_19">
     <g id="line2d_35">
      <g>
       <use xlink:href="#m7633e7d067" x="92.290909" y="595.408696" style="stroke: #000000; stroke-width: 0.8"/>
      </g>
     </g>
    </g>
    <g id="xtick_20">
     <g id="line2d_36">
      <g>
       <use xlink:href="#m7633e7d067" x="143.273093" y="595.408696" style="stroke: #000000; stroke-width: 0.8"/>
      </g>
     </g>
    </g>
    <g id="xtick_21">
     <g id="line2d_37">
      <g>
       <use xlink:href="#m7633e7d067" x="194.255276" y="595.408696" style="stroke: #000000; stroke-width: 0.8"/>
      </g>
     </g>
    </g>
    <g id="xtick_22">
     <g id="line2d_38">
      <g>
       <use xlink:href="#m7633e7d067" x="245.23746" y="595.408696" style="stroke: #000000; stroke-width: 0.8"/>
      </g>
     </g>
    </g>
    <g id="xtick_23">
     <g id="line2d_39">
      <g>
       <use xlink:href="#m7633e7d067" x="296.219644" y="595.408696" style="stroke: #000000; stroke-width: 0.8"/>
      </g>
     </g>
    </g>
    <g id="xtick_24">
     <g id="line2d_40">
      <g>
       <use xlink:href="#m7633e7d067" x="347.201827" y="595.408696" style="stroke: #000000; stroke-width: 0.8"/>
      </g>
     </g>
    </g>
    <g id="xtick_25">
     <g id="line2d_41">
      <g>
       <use xlink:href="#m7633e7d067" x="398.184011" y="595.408696" style="stroke: #000000; stroke-width: 0.8"/>
      </g>
     </g>
    </g>
    <g id="xtick_26">
     <g id="line2d_42">
      <g>
       <use xlink:href="#m7633e7d067" x="449.166195" y="595.408696" style="stroke: #000000; stroke-width: 0.8"/>
      </g>
     </g>
    </g>
    <g id="xtick_27">
     <g id="line2d_43">
      <g>
       <use xlink:href="#m7633e7d067" x="500.148378" y="595.408696" style="stroke: #000000; stroke-width: 0.8"/>
      </g>
     </g>
    </g>
   </g>
   <g id="matplotlib.axis_6">
    <g id="ytick_15">
     <g id="line2d_44">
      <g>
       <use xlink:href="#m23863fc853" x="72" y="595.408696" style="stroke: #000000; stroke-width: 0.8"/>
      </g>
     </g>
     <g id="text_17">
      <!-- 0.0 -->
      <g transform="translate(49.096875 599.207914) scale(0.1 -0.1)">
       <use xlink:href="#DejaVuSans-30"/>
       <use xlink:href="#DejaVuSans-2e" x="63.623047"/>
       <use xlink:href="#DejaVuSans-30" x="95.410156"/>
      </g>
     </g>
    </g>
    <g id="ytick_16">
     <g id="line2d_45">
      <g>
       <use xlink:href="#m23863fc853" x="72" y="571.304348" style="stroke: #000000; stroke-width: 0.8"/>
      </g>
     </g>
     <g id="text_18">
      <!-- 2.5 -->
      <g transform="translate(49.096875 575.103567) scale(0.1 -0.1)">
       <use xlink:href="#DejaVuSans-32"/>
       <use xlink:href="#DejaVuSans-2e" x="63.623047"/>
       <use xlink:href="#DejaVuSans-35" x="95.410156"/>
      </g>
     </g>
    </g>
    <g id="ytick_17">
     <g id="line2d_46">
      <g>
       <use xlink:href="#m23863fc853" x="72" y="547.2" style="stroke: #000000; stroke-width: 0.8"/>
      </g>
     </g>
     <g id="text_19">
      <!-- 5.0 -->
      <g transform="translate(49.096875 550.999219) scale(0.1 -0.1)">
       <use xlink:href="#DejaVuSans-35"/>
       <use xlink:href="#DejaVuSans-2e" x="63.623047"/>
       <use xlink:href="#DejaVuSans-30" x="95.410156"/>
      </g>
     </g>
    </g>
    <g id="ytick_18">
     <g id="line2d_47">
      <g>
       <use xlink:href="#m23863fc853" x="72" y="523.095652" style="stroke: #000000; stroke-width: 0.8"/>
      </g>
     </g>
     <g id="text_20">
      <!-- 7.5 -->
      <g transform="translate(49.096875 526.894871) scale(0.1 -0.1)">
       <use xlink:href="#DejaVuSans-37"/>
       <use xlink:href="#DejaVuSans-2e" x="63.623047"/>
       <use xlink:href="#DejaVuSans-35" x="95.410156"/>
      </g>
     </g>
    </g>
    <g id="ytick_19">
     <g id="line2d_48">
      <g>
       <use xlink:href="#m23863fc853" x="72" y="498.991304" style="stroke: #000000; stroke-width: 0.8"/>
      </g>
     </g>
     <g id="text_21">
      <!-- 10.0 -->
      <g transform="translate(42.734375 502.790523) scale(0.1 -0.1)">
       <use xlink:href="#DejaVuSans-31"/>
       <use xlink:href="#DejaVuSans-30" x="63.623047"/>
       <use xlink:href="#DejaVuSans-2e" x="127.246094"/>
       <use xlink:href="#DejaVuSans-30" x="159.033203"/>
      </g>
     </g>
    </g>
    <g id="ytick_20">
     <g id="line2d_49">
      <g>
       <use xlink:href="#m23863fc853" x="72" y="474.886957" style="stroke: #000000; stroke-width: 0.8"/>
      </g>
     </g>
     <g id="text_22">
      <!-- 12.5 -->
      <g transform="translate(42.734375 478.686175) scale(0.1 -0.1)">
       <use xlink:href="#DejaVuSans-31"/>
       <use xlink:href="#DejaVuSans-32" x="63.623047"/>
       <use xlink:href="#DejaVuSans-2e" x="127.246094"/>
       <use xlink:href="#DejaVuSans-35" x="159.033203"/>
      </g>
     </g>
    </g>
    <g id="ytick_21">
     <g id="line2d_50">
      <g>
       <use xlink:href="#m23863fc853" x="72" y="450.782609" style="stroke: #000000; stroke-width: 0.8"/>
      </g>
     </g>
     <g id="text_23">
      <!-- 15.0 -->
      <g transform="translate(42.734375 454.581827) scale(0.1 -0.1)">
       <use xlink:href="#DejaVuSans-31"/>
       <use xlink:href="#DejaVuSans-35" x="63.623047"/>
       <use xlink:href="#DejaVuSans-2e" x="127.246094"/>
       <use xlink:href="#DejaVuSans-30" x="159.033203"/>
      </g>
     </g>
    </g>
   </g>
   <g id="line2d_51">
    <path d="M 92.290909 553.357259 
L 94.330196 561.577391 
L 96.369484 576.19433 
L 98.408771 573.22032 
L 100.448058 545.40912 
L 102.487346 571.330646 
L 104.526633 577.681386 
L 106.565921 520.190251 
L 108.605208 578.169457 
L 110.644495 549.260967 
L 112.683783 575.682061 
L 114.72307 578.765317 
L 116.762357 563.814179 
L 118.801645 547.226151 
L 120.840932 562.224357 
L 122.880219 578.550117 
L 124.919507 545.975873 
L 126.958794 486.255679 
L 128.998081 554.877919 
L 131.037369 541.435669 
L 133.076656 534.344333 
L 135.115943 549.994293 
L 137.155231 572.80278 
L 139.194518 520.973161 
L 141.233805 553.192484 
L 143.273093 570.405471 
L 145.31238 579.300899 
L 147.351667 579.344194 
L 149.390955 549.650829 
L 151.430242 544.864997 
L 153.469529 566.611807 
L 155.508817 561.133053 
L 157.548104 570.019814 
L 159.587392 580.411231 
L 161.626679 526.575967 
L 163.665966 579.094827 
L 165.705254 573.287807 
L 167.744541 578.737026 
L 169.783828 571.564955 
L 171.823116 573.834355 
L 173.862403 578.504295 
L 175.90169 564.485362 
L 177.940978 529.369455 
L 179.980265 517.676017 
L 182.019552 519.969045 
L 184.05884 533.748372 
L 186.098127 506.734729 
L 188.137414 486.352144 
L 190.176702 565.845891 
L 192.215989 563.200276 
L 194.255276 556.947241 
L 196.294564 574.736209 
L 198.333851 533.738386 
L 200.373138 573.738956 
L 202.412426 552.538226 
L 204.451713 576.312119 
L 206.491 529.968937 
L 208.530288 570.920646 
L 210.569575 539.285267 
L 212.608862 474.205877 
L 214.64815 543.820818 
L 216.687437 541.931565 
L 218.726725 525.072773 
L 220.766012 573.987794 
L 222.805299 567.562633 
L 224.844587 562.097244 
L 226.883874 557.357082 
L 228.923161 556.48811 
L 230.962449 540.517876 
L 233.001736 529.712675 
L 235.041023 573.389783 
L 237.080311 576.356945 
L 239.119598 533.254077 
L 241.158885 573.66358 
L 243.198173 569.224506 
L 245.23746 573.361772 
L 247.276747 558.423215 
L 249.316035 562.40047 
L 251.355322 579.373858 
L 253.394609 554.061543 
L 255.433897 559.264242 
L 257.473184 569.446813 
L 259.512471 564.300957 
L 261.551759 581.02379 
L 263.591046 567.665483 
L 265.630333 576.930674 
L 267.669621 555.501423 
L 269.708908 575.944428 
L 271.748196 580.312859 
L 273.787483 525.700632 
L 275.82677 533.507962 
L 279.905345 557.957755 
L 281.944632 562.687557 
L 283.98392 572.28544 
L 286.023207 568.865388 
L 288.062494 530.956663 
L 290.101782 544.974239 
L 292.141069 563.978318 
L 294.180356 574.477055 
L 296.219644 507.251363 
L 298.258931 536.166604 
L 300.298218 575.233784 
L 302.337506 575.850144 
L 304.376793 579.189131 
L 306.41608 579.982538 
L 308.455368 560.849982 
L 310.494655 575.667321 
L 312.533942 574.079832 
L 314.57323 561.453191 
L 316.612517 562.269146 
L 318.651804 560.152728 
L 320.691092 542.651866 
L 322.730379 507.712975 
L 324.769667 578.855344 
L 326.808954 575.660893 
L 328.848241 559.923725 
L 330.887529 576.553791 
L 332.926816 559.610945 
L 334.966103 573.863366 
L 337.005391 520.176973 
L 339.044678 573.813917 
L 341.083965 540.312638 
L 343.123253 571.295603 
L 345.16254 552.718473 
L 347.201827 539.131429 
L 349.241115 534.965828 
L 351.280402 555.701269 
L 353.319689 560.208531 
L 355.358977 576.10914 
L 357.398264 565.494129 
L 359.437551 574.542356 
L 361.476839 570.68745 
L 363.516126 572.558858 
L 365.555413 536.841767 
L 367.594701 559.05848 
L 369.633988 579.892303 
L 371.673275 579.710782 
L 373.712563 571.711761 
L 375.75185 549.795339 
L 377.791138 548.449423 
L 379.830425 557.458681 
L 381.869712 541.923137 
L 383.909 558.585117 
L 385.948287 552.072973 
L 387.987574 579.764812 
L 390.026862 573.959006 
L 392.066149 529.740173 
L 394.105436 578.637407 
L 396.144724 578.144089 
L 398.184011 578.664018 
L 400.223298 578.428731 
L 402.262586 579.105528 
L 404.301873 515.727534 
L 406.34116 526.145917 
L 408.380448 579.904008 
L 410.419735 519.232501 
L 412.459022 526.500907 
L 414.49831 526.030997 
L 416.537597 577.324792 
L 418.576884 545.665029 
L 420.616172 510.752509 
L 422.655459 551.395108 
L 424.694746 580.379067 
L 426.734034 549.075088 
L 428.773321 524.348031 
L 430.812608 553.467872 
L 432.851896 557.871963 
L 434.891183 577.610721 
L 436.930471 578.954597 
L 438.969758 555.144318 
L 441.009045 567.699481 
L 443.048333 575.53159 
L 445.08762 555.207686 
L 447.126907 549.060992 
L 449.166195 547.44247 
L 451.205482 576.373544 
L 453.244769 577.088152 
L 455.284057 490.38266 
L 457.323344 568.541461 
L 459.362631 548.3471 
L 461.401919 580.659929 
L 463.441206 530.220409 
L 465.480493 560.534793 
L 467.519781 572.120634 
L 469.559068 529.256746 
L 471.598355 572.462909 
L 473.637643 571.393963 
L 475.67693 567.46274 
L 477.716217 550.479163 
L 479.755505 555.179738 
L 481.794792 521.869842 
L 483.834079 559.713753 
L 485.873367 559.826708 
L 487.912654 580.462248 
L 489.951942 553.43744 
L 491.991229 574.881369 
L 494.030516 557.097484 
L 496.069804 580.974192 
L 498.109091 512.071773 
L 498.109091 512.071773 
" clip-path="url(#p178585255d)" style="fill: none; stroke: #1f77b4; stroke-width: 1.5; stroke-linecap: square"/>
   </g>
   <g id="patch_13">
    <path d="M 72 595.408696 
L 72 450.782609 
" style="fill: none; stroke: #000000; stroke-width: 0.8; stroke-linejoin: miter; stroke-linecap: square"/>
   </g>
   <g id="patch_14">
    <path d="M 518.4 595.408696 
L 518.4 450.782609 
" style="fill: none; stroke: #000000; stroke-width: 0.8; stroke-linejoin: miter; stroke-linecap: square"/>
   </g>
   <g id="patch_15">
    <path d="M 72 595.408696 
L 518.4 595.408696 
" style="fill: none; stroke: #000000; stroke-width: 0.8; stroke-linejoin: miter; stroke-linecap: square"/>
   </g>
   <g id="patch_16">
    <path d="M 72 450.782609 
L 518.4 450.782609 
" style="fill: none; stroke: #000000; stroke-width: 0.8; stroke-linejoin: miter; stroke-linecap: square"/>
   </g>
   <g id="text_24">
    <!-- Context 3 -->
    <g transform="translate(265.969687 444.782609) scale(0.12 -0.12)">
     <defs>
      <path id="DejaVuSans-33" d="M 2597 2516 
Q 3050 2419 3304 2112 
Q 3559 1806 3559 1356 
Q 3559 666 3084 287 
Q 2609 -91 1734 -91 
Q 1441 -91 1130 -33 
Q 819 25 488 141 
L 488 750 
Q 750 597 1062 519 
Q 1375 441 1716 441 
Q 2309 441 2620 675 
Q 2931 909 2931 1356 
Q 2931 1769 2642 2001 
Q 2353 2234 1838 2234 
L 1294 2234 
L 1294 2753 
L 1863 2753 
Q 2328 2753 2575 2939 
Q 2822 3125 2822 3475 
Q 2822 3834 2567 4026 
Q 2313 4219 1838 4219 
Q 1578 4219 1281 4162 
Q 984 4106 628 3988 
L 628 4550 
Q 988 4650 1302 4700 
Q 1616 4750 1894 4750 
Q 2613 4750 3031 4423 
Q 3450 4097 3450 3541 
Q 3450 3153 3228 2886 
Q 3006 2619 2597 2516 
z
" transform="scale(0.015625)"/>
     </defs>
     <use xlink:href="#DejaVuSans-43"/>
     <use xlink:href="#DejaVuSans-6f" x="69.824219"/>
     <use xlink:href="#DejaVuSans-6e" x="131.005859"/>
     <use xlink:href="#DejaVuSans-74" x="194.384766"/>
     <use xlink:href="#DejaVuSans-65" x="233.59375"/>
     <use xlink:href="#DejaVuSans-78" x="293.367188"/>
     <use xlink:href="#DejaVuSans-74" x="352.546875"/>
     <use xlink:href="#DejaVuSans-20" x="391.755859"/>
     <use xlink:href="#DejaVuSans-33" x="423.542969"/>
    </g>
   </g>
  </g>
  <g id="axes_4">
   <g id="patch_17">
    <path d="M 72 768.96 
L 518.4 768.96 
L 518.4 624.333913 
L 72 624.333913 
z
" style="fill: #ffffff"/>
   </g>
   <g id="matplotlib.axis_7">
    <g id="xtick_28">
     <g id="line2d_52">
      <g>
       <use xlink:href="#m7633e7d067" x="92.290909" y="768.96" style="stroke: #000000; stroke-width: 0.8"/>
      </g>
     </g>
     <g id="text_25">
      <!-- 0 -->
      <g transform="translate(89.109659 783.558437) scale(0.1 -0.1)">
       <use xlink:href="#DejaVuSans-30"/>
      </g>
     </g>
    </g>
    <g id="xtick_29">
     <g id="line2d_53">
      <g>
       <use xlink:href="#m7633e7d067" x="143.273093" y="768.96" style="stroke: #000000; stroke-width: 0.8"/>
      </g>
     </g>
     <g id="text_26">
      <!-- 25 -->
      <g transform="translate(136.910593 783.558437) scale(0.1 -0.1)">
       <use xlink:href="#DejaVuSans-32"/>
       <use xlink:href="#DejaVuSans-35" x="63.623047"/>
      </g>
     </g>
    </g>
    <g id="xtick_30">
     <g id="line2d_54">
      <g>
       <use xlink:href="#m7633e7d067" x="194.255276" y="768.96" style="stroke: #000000; stroke-width: 0.8"/>
      </g>
     </g>
     <g id="text_27">
      <!-- 50 -->
      <g transform="translate(187.892776 783.558437) scale(0.1 -0.1)">
       <use xlink:href="#DejaVuSans-35"/>
       <use xlink:href="#DejaVuSans-30" x="63.623047"/>
      </g>
     </g>
    </g>
    <g id="xtick_31">
     <g id="line2d_55">
      <g>
       <use xlink:href="#m7633e7d067" x="245.23746" y="768.96" style="stroke: #000000; stroke-width: 0.8"/>
      </g>
     </g>
     <g id="text_28">
      <!-- 75 -->
      <g transform="translate(238.87496 783.558437) scale(0.1 -0.1)">
       <use xlink:href="#DejaVuSans-37"/>
       <use xlink:href="#DejaVuSans-35" x="63.623047"/>
      </g>
     </g>
    </g>
    <g id="xtick_32">
     <g id="line2d_56">
      <g>
       <use xlink:href="#m7633e7d067" x="296.219644" y="768.96" style="stroke: #000000; stroke-width: 0.8"/>
      </g>
     </g>
     <g id="text_29">
      <!-- 100 -->
      <g transform="translate(286.675894 783.558437) scale(0.1 -0.1)">
       <use xlink:href="#DejaVuSans-31"/>
       <use xlink:href="#DejaVuSans-30" x="63.623047"/>
       <use xlink:href="#DejaVuSans-30" x="127.246094"/>
      </g>
     </g>
    </g>
    <g id="xtick_33">
     <g id="line2d_57">
      <g>
       <use xlink:href="#m7633e7d067" x="347.201827" y="768.96" style="stroke: #000000; stroke-width: 0.8"/>
      </g>
     </g>
     <g id="text_30">
      <!-- 125 -->
      <g transform="translate(337.658077 783.558437) scale(0.1 -0.1)">
       <use xlink:href="#DejaVuSans-31"/>
       <use xlink:href="#DejaVuSans-32" x="63.623047"/>
       <use xlink:href="#DejaVuSans-35" x="127.246094"/>
      </g>
     </g>
    </g>
    <g id="xtick_34">
     <g id="line2d_58">
      <g>
       <use xlink:href="#m7633e7d067" x="398.184011" y="768.96" style="stroke: #000000; stroke-width: 0.8"/>
      </g>
     </g>
     <g id="text_31">
      <!-- 150 -->
      <g transform="translate(388.640261 783.558437) scale(0.1 -0.1)">
       <use xlink:href="#DejaVuSans-31"/>
       <use xlink:href="#DejaVuSans-35" x="63.623047"/>
       <use xlink:href="#DejaVuSans-30" x="127.246094"/>
      </g>
     </g>
    </g>
    <g id="xtick_35">
     <g id="line2d_59">
      <g>
       <use xlink:href="#m7633e7d067" x="449.166195" y="768.96" style="stroke: #000000; stroke-width: 0.8"/>
      </g>
     </g>
     <g id="text_32">
      <!-- 175 -->
      <g transform="translate(439.622445 783.558437) scale(0.1 -0.1)">
       <use xlink:href="#DejaVuSans-31"/>
       <use xlink:href="#DejaVuSans-37" x="63.623047"/>
       <use xlink:href="#DejaVuSans-35" x="127.246094"/>
      </g>
     </g>
    </g>
    <g id="xtick_36">
     <g id="line2d_60">
      <g>
       <use xlink:href="#m7633e7d067" x="500.148378" y="768.96" style="stroke: #000000; stroke-width: 0.8"/>
      </g>
     </g>
     <g id="text_33">
      <!-- 200 -->
      <g transform="translate(490.604628 783.558437) scale(0.1 -0.1)">
       <use xlink:href="#DejaVuSans-32"/>
       <use xlink:href="#DejaVuSans-30" x="63.623047"/>
       <use xlink:href="#DejaVuSans-30" x="127.246094"/>
      </g>
     </g>
    </g>
    <g id="text_34">
     <!-- t -->
     <g transform="translate(293.239844 797.236562) scale(0.1 -0.1)">
      <use xlink:href="#DejaVuSans-74"/>
     </g>
    </g>
   </g>
   <g id="matplotlib.axis_8">
    <g id="ytick_22">
     <g id="line2d_61">
      <g>
       <use xlink:href="#m23863fc853" x="72" y="768.96" style="stroke: #000000; stroke-width: 0.8"/>
      </g>
     </g>
     <g id="text_35">
      <!-- 0.0 -->
      <g transform="translate(49.096875 772.759219) scale(0.1 -0.1)">
       <use xlink:href="#DejaVuSans-30"/>
       <use xlink:href="#DejaVuSans-2e" x="63.623047"/>
       <use xlink:href="#DejaVuSans-30" x="95.410156"/>
      </g>
     </g>
    </g>
    <g id="ytick_23">
     <g id="line2d_62">
      <g>
       <use xlink:href="#m23863fc853" x="72" y="744.855652" style="stroke: #000000; stroke-width: 0.8"/>
      </g>
     </g>
     <g id="text_36">
      <!-- 2.5 -->
      <g transform="translate(49.096875 748.654871) scale(0.1 -0.1)">
       <use xlink:href="#DejaVuSans-32"/>
       <use xlink:href="#DejaVuSans-2e" x="63.623047"/>
       <use xlink:href="#DejaVuSans-35" x="95.410156"/>
      </g>
     </g>
    </g>
    <g id="ytick_24">
     <g id="line2d_63">
      <g>
       <use xlink:href="#m23863fc853" x="72" y="720.751304" style="stroke: #000000; stroke-width: 0.8"/>
      </g>
     </g>
     <g id="text_37">
      <!-- 5.0 -->
      <g transform="translate(49.096875 724.550523) scale(0.1 -0.1)">
       <use xlink:href="#DejaVuSans-35"/>
       <use xlink:href="#DejaVuSans-2e" x="63.623047"/>
       <use xlink:href="#DejaVuSans-30" x="95.410156"/>
      </g>
     </g>
    </g>
    <g id="ytick_25">
     <g id="line2d_64">
      <g>
       <use xlink:href="#m23863fc853" x="72" y="696.646957" style="stroke: #000000; stroke-width: 0.8"/>
      </g>
     </g>
     <g id="text_38">
      <!-- 7.5 -->
      <g transform="translate(49.096875 700.446175) scale(0.1 -0.1)">
       <use xlink:href="#DejaVuSans-37"/>
       <use xlink:href="#DejaVuSans-2e" x="63.623047"/>
       <use xlink:href="#DejaVuSans-35" x="95.410156"/>
      </g>
     </g>
    </g>
    <g id="ytick_26">
     <g id="line2d_65">
      <g>
       <use xlink:href="#m23863fc853" x="72" y="672.542609" style="stroke: #000000; stroke-width: 0.8"/>
      </g>
     </g>
     <g id="text_39">
      <!-- 10.0 -->
      <g transform="translate(42.734375 676.341827) scale(0.1 -0.1)">
       <use xlink:href="#DejaVuSans-31"/>
       <use xlink:href="#DejaVuSans-30" x="63.623047"/>
       <use xlink:href="#DejaVuSans-2e" x="127.246094"/>
       <use xlink:href="#DejaVuSans-30" x="159.033203"/>
      </g>
     </g>
    </g>
    <g id="ytick_27">
     <g id="line2d_66">
      <g>
       <use xlink:href="#m23863fc853" x="72" y="648.438261" style="stroke: #000000; stroke-width: 0.8"/>
      </g>
     </g>
     <g id="text_40">
      <!-- 12.5 -->
      <g transform="translate(42.734375 652.23748) scale(0.1 -0.1)">
       <use xlink:href="#DejaVuSans-31"/>
       <use xlink:href="#DejaVuSans-32" x="63.623047"/>
       <use xlink:href="#DejaVuSans-2e" x="127.246094"/>
       <use xlink:href="#DejaVuSans-35" x="159.033203"/>
      </g>
     </g>
    </g>
    <g id="ytick_28">
     <g id="line2d_67">
      <g>
       <use xlink:href="#m23863fc853" x="72" y="624.333913" style="stroke: #000000; stroke-width: 0.8"/>
      </g>
     </g>
     <g id="text_41">
      <!-- 15.0 -->
      <g transform="translate(42.734375 628.133132) scale(0.1 -0.1)">
       <use xlink:href="#DejaVuSans-31"/>
       <use xlink:href="#DejaVuSans-35" x="63.623047"/>
       <use xlink:href="#DejaVuSans-2e" x="127.246094"/>
       <use xlink:href="#DejaVuSans-30" x="159.033203"/>
      </g>
     </g>
    </g>
    <g id="text_42">
     <!-- |$\dot{x}(t)$| -->
     <g transform="translate(36.334375 708.846957) rotate(-90) scale(0.1 -0.1)">
      <defs>
       <path id="DejaVuSans-7c" d="M 1344 4891 
L 1344 -1509 
L 813 -1509 
L 813 4891 
L 1344 4891 
z
" transform="scale(0.015625)"/>
       <path id="DejaVuSans-307" d="M -1894 4863 
L -1319 4863 
L -1319 4134 
L -1894 4134 
L -1894 4863 
z
M -1600 3584 
L -1600 3584 
z
" transform="scale(0.015625)"/>
       <path id="DejaVuSans-Oblique-78" d="M 3841 3500 
L 2234 1784 
L 3219 0 
L 2559 0 
L 1819 1388 
L 531 0 
L -166 0 
L 1556 1844 
L 641 3500 
L 1300 3500 
L 1972 2234 
L 3144 3500 
L 3841 3500 
z
" transform="scale(0.015625)"/>
       <path id="DejaVuSans-28" d="M 1984 4856 
Q 1566 4138 1362 3434 
Q 1159 2731 1159 2009 
Q 1159 1288 1364 580 
Q 1569 -128 1984 -844 
L 1484 -844 
Q 1016 -109 783 600 
Q 550 1309 550 2009 
Q 550 2706 781 3412 
Q 1013 4119 1484 4856 
L 1984 4856 
z
" transform="scale(0.015625)"/>
       <path id="DejaVuSans-Oblique-74" d="M 2706 3500 
L 2619 3053 
L 1472 3053 
L 1100 1153 
Q 1081 1047 1072 975 
Q 1063 903 1063 863 
Q 1063 663 1183 572 
Q 1303 481 1569 481 
L 2150 481 
L 2053 0 
L 1503 0 
Q 991 0 739 200 
Q 488 400 488 806 
Q 488 878 497 964 
Q 506 1050 525 1153 
L 897 3053 
L 409 3053 
L 500 3500 
L 978 3500 
L 1172 4494 
L 1747 4494 
L 1556 3500 
L 2706 3500 
z
" transform="scale(0.015625)"/>
       <path id="DejaVuSans-29" d="M 513 4856 
L 1013 4856 
Q 1481 4119 1714 3412 
Q 1947 2706 1947 2009 
Q 1947 1309 1714 600 
Q 1481 -109 1013 -844 
L 513 -844 
Q 928 -128 1133 580 
Q 1338 1288 1338 2009 
Q 1338 2731 1133 3434 
Q 928 4138 513 4856 
z
" transform="scale(0.015625)"/>
      </defs>
      <use xlink:href="#DejaVuSans-7c" transform="translate(0 0.828125)"/>
      <use xlink:href="#DejaVuSans-307" transform="translate(96.080078 12.015625)"/>
      <use xlink:href="#DejaVuSans-Oblique-78" transform="translate(33.691406 0.828125)"/>
      <use xlink:href="#DejaVuSans-28" transform="translate(92.871094 0.828125)"/>
      <use xlink:href="#DejaVuSans-Oblique-74" transform="translate(131.884766 0.828125)"/>
      <use xlink:href="#DejaVuSans-29" transform="translate(171.09375 0.828125)"/>
      <use xlink:href="#DejaVuSans-7c" transform="translate(210.107422 0.828125)"/>
     </g>
    </g>
   </g>
   <g id="line2d_68">
    <path d="M 92.290909 747.394459 
L 94.330196 753.238855 
L 96.369484 751.874012 
L 98.408771 750.93691 
L 100.448058 730.331041 
L 102.487346 753.63396 
L 104.526633 755.482693 
L 106.565921 742.273042 
L 108.605208 752.806617 
L 110.644495 753.564132 
L 112.683783 751.306517 
L 114.72307 753.923575 
L 116.762357 737.468756 
L 118.801645 744.489077 
L 120.840932 753.75754 
L 122.880219 754.700219 
L 124.919507 754.723318 
L 126.958794 671.140892 
L 128.998081 733.409354 
L 131.037369 720.573269 
L 133.076656 709.558967 
L 135.115943 746.728078 
L 137.155231 750.858748 
L 139.194518 719.821218 
L 141.233805 733.627325 
L 143.273093 754.810168 
L 145.31238 753.141783 
L 147.351667 753.235685 
L 149.390955 738.42383 
L 151.430242 752.645828 
L 153.469529 753.020103 
L 155.508817 747.929487 
L 157.548104 750.98359 
L 159.587392 752.898042 
L 161.626679 700.481231 
L 163.665966 753.889355 
L 165.705254 753.332695 
L 167.744541 751.317577 
L 169.783828 753.315903 
L 171.823116 751.956959 
L 173.862403 753.013753 
L 175.90169 753.838119 
L 177.940978 703.151109 
L 179.980265 692.786738 
L 182.019552 695.045105 
L 184.05884 754.362889 
L 186.098127 690.520239 
L 188.137414 672.838479 
L 190.176702 748.096258 
L 192.215989 753.872703 
L 194.255276 750.244712 
L 196.294564 750.470711 
L 198.333851 707.003397 
L 200.373138 750.614285 
L 202.412426 727.778202 
L 204.451713 754.900768 
L 206.491 704.39998 
L 208.530288 754.639325 
L 210.569575 742.906112 
L 214.64815 752.627298 
L 216.687437 737.491474 
L 218.726725 739.411356 
L 220.766012 753.396967 
L 222.805299 749.884962 
L 224.844587 754.243737 
L 226.883874 750.644354 
L 228.923161 750.805189 
L 230.962449 754.736406 
L 233.001736 753.739988 
L 235.041023 753.673454 
L 237.080311 753.055233 
L 239.119598 733.693534 
L 241.158885 754.403852 
L 243.198173 750.775276 
L 245.23746 753.933693 
L 247.276747 755.78908 
L 249.316035 753.358261 
L 251.355322 753.896717 
L 255.433897 731.979769 
L 257.473184 752.131154 
L 259.512471 754.622995 
L 261.551759 754.675862 
L 263.591046 753.374754 
L 265.630333 754.003706 
L 267.669621 750.915925 
L 269.708908 754.123325 
L 271.748196 754.438895 
L 273.787483 749.945008 
L 275.82677 754.351156 
L 277.866058 719.815452 
L 279.905345 754.447211 
L 281.944632 749.471023 
L 283.98392 748.178193 
L 286.023207 752.610697 
L 288.062494 731.973912 
L 290.101782 751.679321 
L 292.141069 738.251988 
L 294.180356 752.714918 
L 296.219644 732.851175 
L 298.258931 727.359435 
L 300.298218 751.035876 
L 302.337506 752.157238 
L 304.376793 754.775233 
L 306.41608 754.013937 
L 308.455368 735.890859 
L 310.494655 752.727336 
L 312.533942 754.985897 
L 314.57323 754.337664 
L 316.612517 745.565733 
L 318.651804 755.837992 
L 320.691092 715.665221 
L 322.730379 732.144106 
L 324.769667 752.221101 
L 326.808954 752.082526 
L 328.848241 754.539228 
L 330.887529 753.761203 
L 332.926816 749.864093 
L 334.966103 751.117511 
L 337.005391 695.388463 
L 339.044678 755.322994 
L 341.083965 755.674089 
L 343.123253 750.717386 
L 345.16254 726.494408 
L 347.201827 728.333258 
L 349.241115 714.204293 
L 351.280402 755.154866 
L 353.319689 751.603228 
L 355.358977 752.203251 
L 357.398264 753.624553 
L 359.437551 755.513895 
L 361.476839 754.812774 
L 363.516126 755.970665 
L 365.555413 746.936568 
L 367.594701 752.876343 
L 369.633988 753.590615 
L 371.673275 753.677452 
L 373.712563 754.784495 
L 375.75185 755.071421 
L 377.791138 721.643866 
L 379.830425 750.446317 
L 381.869712 715.225195 
L 383.909 732.383548 
L 385.948287 724.970793 
L 387.987574 752.8822 
L 390.026862 748.342104 
L 392.066149 712.467214 
L 394.105436 754.397306 
L 396.144724 754.479477 
L 398.184011 753.941349 
L 400.223298 753.726278 
L 402.262586 752.217085 
L 404.301873 692.447297 
L 406.34116 746.722453 
L 408.380448 752.313768 
L 410.419735 695.377659 
L 412.459022 699.617864 
L 414.49831 700.570474 
L 416.537597 754.680827 
L 418.576884 725.296423 
L 420.616172 689.311417 
L 422.655459 725.119463 
L 424.694746 754.635054 
L 426.734034 734.562844 
L 428.773321 699.64344 
L 430.812608 736.054044 
L 432.851896 738.220391 
L 434.891183 751.755191 
L 436.930471 752.652391 
L 438.969758 728.474527 
L 441.009045 744.00374 
L 443.048333 750.559255 
L 445.08762 755.193946 
L 447.126907 723.258881 
L 451.205482 751.641732 
L 453.244769 754.31649 
L 455.284057 674.741741 
L 457.323344 746.611356 
L 459.362631 741.759796 
L 461.401919 754.290516 
L 463.441206 732.794141 
L 467.519781 754.941278 
L 469.559068 727.306361 
L 471.598355 754.153351 
L 473.637643 751.013338 
L 475.67693 753.76195 
L 477.716217 755.049229 
L 479.755505 743.261759 
L 481.794792 754.938196 
L 483.834079 755.895995 
L 485.873367 745.248657 
L 487.912654 754.634865 
L 489.951942 729.378744 
L 491.991229 751.281181 
L 494.030516 753.594184 
L 496.069804 753.635026 
L 498.109091 690.405144 
L 498.109091 690.405144 
" clip-path="url(#p38b5798171)" style="fill: none; stroke: #1f77b4; stroke-width: 1.5; stroke-linecap: square"/>
   </g>
   <g id="patch_18">
    <path d="M 72 768.96 
L 72 624.333913 
" style="fill: none; stroke: #000000; stroke-width: 0.8; stroke-linejoin: miter; stroke-linecap: square"/>
   </g>
   <g id="patch_19">
    <path d="M 518.4 768.96 
L 518.4 624.333913 
" style="fill: none; stroke: #000000; stroke-width: 0.8; stroke-linejoin: miter; stroke-linecap: square"/>
   </g>
   <g id="patch_20">
    <path d="M 72 768.96 
L 518.4 768.96 
" style="fill: none; stroke: #000000; stroke-width: 0.8; stroke-linejoin: miter; stroke-linecap: square"/>
   </g>
   <g id="patch_21">
    <path d="M 72 624.333913 
L 518.4 624.333913 
" style="fill: none; stroke: #000000; stroke-width: 0.8; stroke-linejoin: miter; stroke-linecap: square"/>
   </g>
   <g id="text_43">
    <!-- Context 4 -->
    <g transform="translate(265.969687 618.333913) scale(0.12 -0.12)">
     <defs>
      <path id="DejaVuSans-34" d="M 2419 4116 
L 825 1625 
L 2419 1625 
L 2419 4116 
z
M 2253 4666 
L 3047 4666 
L 3047 1625 
L 3713 1625 
L 3713 1100 
L 3047 1100 
L 3047 0 
L 2419 0 
L 2419 1100 
L 313 1100 
L 313 1709 
L 2253 4666 
z
" transform="scale(0.015625)"/>
     </defs>
     <use xlink:href="#DejaVuSans-43"/>
     <use xlink:href="#DejaVuSans-6f" x="69.824219"/>
     <use xlink:href="#DejaVuSans-6e" x="131.005859"/>
     <use xlink:href="#DejaVuSans-74" x="194.384766"/>
     <use xlink:href="#DejaVuSans-65" x="233.59375"/>
     <use xlink:href="#DejaVuSans-78" x="293.367188"/>
     <use xlink:href="#DejaVuSans-74" x="352.546875"/>
     <use xlink:href="#DejaVuSans-20" x="391.755859"/>
     <use xlink:href="#DejaVuSans-34" x="423.542969"/>
    </g>
   </g>
  </g>
 </g>
 <defs>
  <clipPath id="p9ac2318aff">
   <rect x="72" y="103.68" width="446.4" height="144.626087"/>
  </clipPath>
  <clipPath id="p3a9da52bf2">
   <rect x="72" y="277.231304" width="446.4" height="144.626087"/>
  </clipPath>
  <clipPath id="p178585255d">
   <rect x="72" y="450.782609" width="446.4" height="144.626087"/>
  </clipPath>
  <clipPath id="p38b5798171">
   <rect x="72" y="624.333913" width="446.4" height="144.626087"/>
  </clipPath>
 </defs>
</svg>
