<?xml version="1.0" encoding="utf-8" standalone="no"?>
<!DOCTYPE svg PUBLIC "-//W3C//DTD SVG 1.1//EN"
  "http://www.w3.org/Graphics/SVG/1.1/DTD/svg11.dtd">
<svg xmlns:xlink="http://www.w3.org/1999/xlink" width="576pt" height="864pt" viewBox="0 0 576 864" xmlns="http://www.w3.org/2000/svg" version="1.1">
 <metadata>
  <rdf:RDF xmlns:dc="http://purl.org/dc/elements/1.1/" xmlns:cc="http://creativecommons.org/ns#" xmlns:rdf="http://www.w3.org/1999/02/22-rdf-syntax-ns#">
   <cc:Work>
    <dc:type rdf:resource="http://purl.org/dc/dcmitype/StillImage"/>
    <dc:date>2025-02-19T10:21:14.856652</dc:date>
    <dc:format>image/svg+xml</dc:format>
    <dc:creator>
     <cc:Agent>
      <dc:title>Matplotlib v3.7.5, https://matplotlib.org/</dc:title>
     </cc:Agent>
    </dc:creator>
   </cc:Work>
  </rdf:RDF>
 </metadata>
 <defs>
  <style type="text/css">*{stroke-linejoin: round; stroke-linecap: butt}</style>
 </defs>
 <g id="figure_1">
  <g id="patch_1">
   <path d="M 0 864 
L 576 864 
L 576 0 
L 0 0 
z
" style="fill: #ffffff"/>
  </g>
  <g id="axes_1">
   <g id="patch_2">
    <path d="M 72 248.306087 
L 518.4 248.306087 
L 518.4 103.68 
L 72 103.68 
z
" style="fill: #ffffff"/>
   </g>
   <g id="matplotlib.axis_1">
    <g id="xtick_1">
     <g id="line2d_1">
      <defs>
       <path id="m867fbf2b71" d="M 0 0 
L 0 3.5 
" style="stroke: #000000; stroke-width: 0.8"/>
      </defs>
      <g>
       <use xlink:href="#m867fbf2b71" x="92.290909" y="248.306087" style="stroke: #000000; stroke-width: 0.8"/>
      </g>
     </g>
    </g>
    <g id="xtick_2">
     <g id="line2d_2">
      <g>
       <use xlink:href="#m867fbf2b71" x="143.790678" y="248.306087" style="stroke: #000000; stroke-width: 0.8"/>
      </g>
     </g>
    </g>
    <g id="xtick_3">
     <g id="line2d_3">
      <g>
       <use xlink:href="#m867fbf2b71" x="195.290448" y="248.306087" style="stroke: #000000; stroke-width: 0.8"/>
      </g>
     </g>
    </g>
    <g id="xtick_4">
     <g id="line2d_4">
      <g>
       <use xlink:href="#m867fbf2b71" x="246.790217" y="248.306087" style="stroke: #000000; stroke-width: 0.8"/>
      </g>
     </g>
    </g>
    <g id="xtick_5">
     <g id="line2d_5">
      <g>
       <use xlink:href="#m867fbf2b71" x="298.289986" y="248.306087" style="stroke: #000000; stroke-width: 0.8"/>
      </g>
     </g>
    </g>
    <g id="xtick_6">
     <g id="line2d_6">
      <g>
       <use xlink:href="#m867fbf2b71" x="349.789755" y="248.306087" style="stroke: #000000; stroke-width: 0.8"/>
      </g>
     </g>
    </g>
    <g id="xtick_7">
     <g id="line2d_7">
      <g>
       <use xlink:href="#m867fbf2b71" x="401.289525" y="248.306087" style="stroke: #000000; stroke-width: 0.8"/>
      </g>
     </g>
    </g>
    <g id="xtick_8">
     <g id="line2d_8">
      <g>
       <use xlink:href="#m867fbf2b71" x="452.789294" y="248.306087" style="stroke: #000000; stroke-width: 0.8"/>
      </g>
     </g>
    </g>
    <g id="xtick_9">
     <g id="line2d_9">
      <g>
       <use xlink:href="#m867fbf2b71" x="504.289063" y="248.306087" style="stroke: #000000; stroke-width: 0.8"/>
      </g>
     </g>
    </g>
   </g>
   <g id="matplotlib.axis_2">
    <g id="ytick_1">
     <g id="line2d_10">
      <defs>
       <path id="m18f2fe9e3b" d="M 0 0 
L -3.5 0 
" style="stroke: #000000; stroke-width: 0.8"/>
      </defs>
      <g>
       <use xlink:href="#m18f2fe9e3b" x="72" y="248.306087" style="stroke: #000000; stroke-width: 0.8"/>
      </g>
     </g>
     <g id="text_1">
      <!-- −1.0 -->
      <g transform="translate(40.717187 252.105306) scale(0.1 -0.1)">
       <defs>
        <path id="DejaVuSans-2212" d="M 678 2272 
L 4684 2272 
L 4684 1741 
L 678 1741 
L 678 2272 
z
" transform="scale(0.015625)"/>
        <path id="DejaVuSans-31" d="M 794 531 
L 1825 531 
L 1825 4091 
L 703 3866 
L 703 4441 
L 1819 4666 
L 2450 4666 
L 2450 531 
L 3481 531 
L 3481 0 
L 794 0 
L 794 531 
z
" transform="scale(0.015625)"/>
        <path id="DejaVuSans-2e" d="M 684 794 
L 1344 794 
L 1344 0 
L 684 0 
L 684 794 
z
" transform="scale(0.015625)"/>
        <path id="DejaVuSans-30" d="M 2034 4250 
Q 1547 4250 1301 3770 
Q 1056 3291 1056 2328 
Q 1056 1369 1301 889 
Q 1547 409 2034 409 
Q 2525 409 2770 889 
Q 3016 1369 3016 2328 
Q 3016 3291 2770 3770 
Q 2525 4250 2034 4250 
z
M 2034 4750 
Q 2819 4750 3233 4129 
Q 3647 3509 3647 2328 
Q 3647 1150 3233 529 
Q 2819 -91 2034 -91 
Q 1250 -91 836 529 
Q 422 1150 422 2328 
Q 422 3509 836 4129 
Q 1250 4750 2034 4750 
z
" transform="scale(0.015625)"/>
       </defs>
       <use xlink:href="#DejaVuSans-2212"/>
       <use xlink:href="#DejaVuSans-31" x="83.789062"/>
       <use xlink:href="#DejaVuSans-2e" x="147.412109"/>
       <use xlink:href="#DejaVuSans-30" x="179.199219"/>
      </g>
     </g>
    </g>
    <g id="ytick_2">
     <g id="line2d_11">
      <g>
       <use xlink:href="#m18f2fe9e3b" x="72" y="212.149565" style="stroke: #000000; stroke-width: 0.8"/>
      </g>
     </g>
     <g id="text_2">
      <!-- −0.5 -->
      <g transform="translate(40.717187 215.948784) scale(0.1 -0.1)">
       <defs>
        <path id="DejaVuSans-35" d="M 691 4666 
L 3169 4666 
L 3169 4134 
L 1269 4134 
L 1269 2991 
Q 1406 3038 1543 3061 
Q 1681 3084 1819 3084 
Q 2600 3084 3056 2656 
Q 3513 2228 3513 1497 
Q 3513 744 3044 326 
Q 2575 -91 1722 -91 
Q 1428 -91 1123 -41 
Q 819 9 494 109 
L 494 744 
Q 775 591 1075 516 
Q 1375 441 1709 441 
Q 2250 441 2565 725 
Q 2881 1009 2881 1497 
Q 2881 1984 2565 2268 
Q 2250 2553 1709 2553 
Q 1456 2553 1204 2497 
Q 953 2441 691 2322 
L 691 4666 
z
" transform="scale(0.015625)"/>
       </defs>
       <use xlink:href="#DejaVuSans-2212"/>
       <use xlink:href="#DejaVuSans-30" x="83.789062"/>
       <use xlink:href="#DejaVuSans-2e" x="147.412109"/>
       <use xlink:href="#DejaVuSans-35" x="179.199219"/>
      </g>
     </g>
    </g>
    <g id="ytick_3">
     <g id="line2d_12">
      <g>
       <use xlink:href="#m18f2fe9e3b" x="72" y="175.993043" style="stroke: #000000; stroke-width: 0.8"/>
      </g>
     </g>
     <g id="text_3">
      <!-- 0.0 -->
      <g transform="translate(49.096875 179.792262) scale(0.1 -0.1)">
       <use xlink:href="#DejaVuSans-30"/>
       <use xlink:href="#DejaVuSans-2e" x="63.623047"/>
       <use xlink:href="#DejaVuSans-30" x="95.410156"/>
      </g>
     </g>
    </g>
    <g id="ytick_4">
     <g id="line2d_13">
      <g>
       <use xlink:href="#m18f2fe9e3b" x="72" y="139.836522" style="stroke: #000000; stroke-width: 0.8"/>
      </g>
     </g>
     <g id="text_4">
      <!-- 0.5 -->
      <g transform="translate(49.096875 143.63574) scale(0.1 -0.1)">
       <use xlink:href="#DejaVuSans-30"/>
       <use xlink:href="#DejaVuSans-2e" x="63.623047"/>
       <use xlink:href="#DejaVuSans-35" x="95.410156"/>
      </g>
     </g>
    </g>
    <g id="ytick_5">
     <g id="line2d_14">
      <g>
       <use xlink:href="#m18f2fe9e3b" x="72" y="103.68" style="stroke: #000000; stroke-width: 0.8"/>
      </g>
     </g>
     <g id="text_5">
      <!-- 1.0 -->
      <g transform="translate(49.096875 107.479219) scale(0.1 -0.1)">
       <use xlink:href="#DejaVuSans-31"/>
       <use xlink:href="#DejaVuSans-2e" x="63.623047"/>
       <use xlink:href="#DejaVuSans-30" x="95.410156"/>
      </g>
     </g>
    </g>
   </g>
   <g id="line2d_15">
    <path d="M 92.290909 107.324139 
L 94.3509 107.379129 
L 96.410891 108.215095 
L 98.470881 109.308259 
L 100.530872 109.376774 
L 102.590863 110.484907 
L 104.650854 113.456915 
L 106.710844 113.212359 
L 110.830826 116.710266 
L 112.890817 116.744493 
L 117.010798 125.118289 
L 119.070789 126.194208 
L 121.13078 130.599079 
L 123.190771 129.485524 
L 125.250761 131.543249 
L 127.310752 136.031475 
L 129.370743 137.77062 
L 131.430734 143.904142 
L 133.490725 143.442343 
L 135.550715 150.856699 
L 137.610706 151.268624 
L 139.670697 150.030883 
L 141.730688 159.369305 
L 143.790678 161.690331 
L 145.850669 161.270855 
L 147.91066 161.326653 
L 149.970651 160.407542 
L 152.030641 159.959135 
L 154.090632 164.660754 
L 156.150623 160.198612 
L 158.210614 178.649613 
L 160.270605 180.695847 
L 162.330595 170.540775 
L 164.390586 177.097425 
L 166.450577 166.398099 
L 168.510568 181.570062 
L 170.570558 169.496566 
L 172.630549 169.629896 
L 174.69054 162.314504 
L 176.750531 173.380138 
L 178.810521 168.066918 
L 180.870512 180.508932 
L 182.930503 181.387298 
L 184.990494 176.815134 
L 187.050485 168.536701 
L 189.110475 178.145389 
L 191.170466 169.925023 
L 193.230457 104.734101 
L 195.290448 105.052249 
L 197.350438 104.853838 
L 199.410429 105.523461 
L 201.47042 105.613492 
L 203.530411 105.924865 
L 205.590401 106.768202 
L 207.650392 106.649309 
L 209.710383 107.831414 
L 211.770374 108.231068 
L 213.830365 109.01286 
L 215.890355 109.662919 
L 217.950346 109.440953 
L 220.010337 109.858231 
L 222.070328 110.876234 
L 224.130318 110.380105 
L 226.190309 112.095377 
L 228.2503 115.283208 
L 230.310291 116.499191 
L 232.370281 119.644585 
L 234.430272 118.262427 
L 236.490263 120.571432 
L 238.550254 124.207084 
L 240.610245 222.645248 
L 242.670235 104.781828 
L 244.730226 105.299555 
L 246.790217 105.350717 
L 248.850208 106.266504 
L 252.970189 106.951238 
L 257.090171 108.385438 
L 259.150162 108.35112 
L 263.270143 110.33374 
L 265.330134 112.785887 
L 267.390125 113.284167 
L 269.450115 116.084637 
L 271.510106 117.185831 
L 273.570097 117.598209 
L 275.630088 117.76047 
L 279.750069 120.880774 
L 281.81006 125.477397 
L 283.870051 126.297636 
L 285.930042 133.136999 
L 287.990032 129.544845 
L 290.050023 134.844064 
L 292.110014 133.395735 
L 294.170005 146.860128 
L 296.229995 141.279583 
L 298.289986 141.989226 
L 300.349977 140.847568 
L 302.409968 147.525144 
L 304.469958 144.513987 
L 306.529949 155.210029 
L 308.58994 158.309232 
L 310.649931 156.019136 
L 312.709922 153.260091 
L 314.769912 162.27048 
L 316.829903 161.75087 
L 318.889894 162.623442 
L 320.949885 170.362212 
L 323.009875 166.581462 
L 325.069866 168.068866 
L 327.129857 163.473631 
L 329.189848 173.585663 
L 331.249838 170.42729 
L 333.309829 172.387798 
L 335.36982 166.018279 
L 337.429811 170.286985 
L 339.489802 164.387555 
L 341.549792 174.227566 
L 343.609783 167.891345 
L 345.669774 168.458614 
L 347.729765 174.805929 
L 349.789755 163.646113 
L 351.849746 179.173571 
L 353.909737 167.144054 
L 355.969728 171.958909 
L 358.029719 168.315332 
L 360.089709 175.303243 
L 362.1497 171.313486 
L 364.209691 180.083112 
L 366.269682 169.445369 
L 368.329672 180.055543 
L 370.389663 167.277131 
L 372.449654 166.875906 
L 374.509645 173.786934 
L 376.569635 169.884108 
L 378.629626 173.724559 
L 380.689617 179.063936 
L 382.749608 178.954778 
L 384.809599 183.392205 
L 386.869589 180.145692 
L 388.92958 167.484955 
L 390.989571 176.46195 
L 393.049562 173.715468 
L 395.109552 177.409539 
L 397.169543 173.849623 
L 399.229534 172.287377 
L 401.289525 175.74118 
L 403.349515 182.989055 
L 405.409506 178.609058 
L 407.469497 163.797206 
L 409.529488 175.270805 
L 411.589479 175.863958 
L 413.649469 184.604813 
L 415.70946 177.772247 
L 417.769451 187.785299 
L 419.829442 180.603811 
L 421.889432 177.576491 
L 423.949423 178.368574 
L 426.009414 170.85588 
L 428.069405 178.708366 
L 430.129395 183.727421 
L 432.189386 171.731345 
L 434.249377 181.618662 
L 436.309368 172.449705 
L 438.369359 168.699595 
L 440.429349 178.657418 
L 442.48934 181.280128 
L 444.549331 189.27386 
L 446.609322 176.792952 
L 450.729303 171.533109 
L 452.789294 165.025786 
L 454.849285 173.799328 
L 456.909275 175.9241 
L 458.969266 180.377518 
L 461.029257 177.326634 
L 463.089248 187.123253 
L 465.149239 187.95478 
L 467.209229 178.928105 
L 469.26922 182.882531 
L 471.329211 180.030058 
L 473.389202 174.360892 
L 475.449192 183.148637 
L 477.509183 172.543992 
L 479.569174 184.944239 
L 481.629165 169.382566 
L 483.689156 182.400696 
L 485.749146 176.778291 
L 487.809137 179.255549 
L 489.869128 182.778516 
L 493.989109 172.455945 
L 496.0491 177.963613 
L 498.109091 178.303888 
L 498.109091 178.303888 
" clip-path="url(#pc1d68f1dca)" style="fill: none; stroke: #1f77b4; stroke-width: 1.5; stroke-linecap: square"/>
   </g>
   <g id="patch_3">
    <path d="M 72 248.306087 
L 72 103.68 
" style="fill: none; stroke: #000000; stroke-width: 0.8; stroke-linejoin: miter; stroke-linecap: square"/>
   </g>
   <g id="patch_4">
    <path d="M 518.4 248.306087 
L 518.4 103.68 
" style="fill: none; stroke: #000000; stroke-width: 0.8; stroke-linejoin: miter; stroke-linecap: square"/>
   </g>
   <g id="patch_5">
    <path d="M 72 248.306087 
L 518.4 248.306087 
" style="fill: none; stroke: #000000; stroke-width: 0.8; stroke-linejoin: miter; stroke-linecap: square"/>
   </g>
   <g id="patch_6">
    <path d="M 72 103.68 
L 518.4 103.68 
" style="fill: none; stroke: #000000; stroke-width: 0.8; stroke-linejoin: miter; stroke-linecap: square"/>
   </g>
   <g id="text_6">
    <!-- Context 1 -->
    <g transform="translate(265.969687 97.68) scale(0.12 -0.12)">
     <defs>
      <path id="DejaVuSans-43" d="M 4122 4306 
L 4122 3641 
Q 3803 3938 3442 4084 
Q 3081 4231 2675 4231 
Q 1875 4231 1450 3742 
Q 1025 3253 1025 2328 
Q 1025 1406 1450 917 
Q 1875 428 2675 428 
Q 3081 428 3442 575 
Q 3803 722 4122 1019 
L 4122 359 
Q 3791 134 3420 21 
Q 3050 -91 2638 -91 
Q 1578 -91 968 557 
Q 359 1206 359 2328 
Q 359 3453 968 4101 
Q 1578 4750 2638 4750 
Q 3056 4750 3426 4639 
Q 3797 4528 4122 4306 
z
" transform="scale(0.015625)"/>
      <path id="DejaVuSans-6f" d="M 1959 3097 
Q 1497 3097 1228 2736 
Q 959 2375 959 1747 
Q 959 1119 1226 758 
Q 1494 397 1959 397 
Q 2419 397 2687 759 
Q 2956 1122 2956 1747 
Q 2956 2369 2687 2733 
Q 2419 3097 1959 3097 
z
M 1959 3584 
Q 2709 3584 3137 3096 
Q 3566 2609 3566 1747 
Q 3566 888 3137 398 
Q 2709 -91 1959 -91 
Q 1206 -91 779 398 
Q 353 888 353 1747 
Q 353 2609 779 3096 
Q 1206 3584 1959 3584 
z
" transform="scale(0.015625)"/>
      <path id="DejaVuSans-6e" d="M 3513 2113 
L 3513 0 
L 2938 0 
L 2938 2094 
Q 2938 2591 2744 2837 
Q 2550 3084 2163 3084 
Q 1697 3084 1428 2787 
Q 1159 2491 1159 1978 
L 1159 0 
L 581 0 
L 581 3500 
L 1159 3500 
L 1159 2956 
Q 1366 3272 1645 3428 
Q 1925 3584 2291 3584 
Q 2894 3584 3203 3211 
Q 3513 2838 3513 2113 
z
" transform="scale(0.015625)"/>
      <path id="DejaVuSans-74" d="M 1172 4494 
L 1172 3500 
L 2356 3500 
L 2356 3053 
L 1172 3053 
L 1172 1153 
Q 1172 725 1289 603 
Q 1406 481 1766 481 
L 2356 481 
L 2356 0 
L 1766 0 
Q 1100 0 847 248 
Q 594 497 594 1153 
L 594 3053 
L 172 3053 
L 172 3500 
L 594 3500 
L 594 4494 
L 1172 4494 
z
" transform="scale(0.015625)"/>
      <path id="DejaVuSans-65" d="M 3597 1894 
L 3597 1613 
L 953 1613 
Q 991 1019 1311 708 
Q 1631 397 2203 397 
Q 2534 397 2845 478 
Q 3156 559 3463 722 
L 3463 178 
Q 3153 47 2828 -22 
Q 2503 -91 2169 -91 
Q 1331 -91 842 396 
Q 353 884 353 1716 
Q 353 2575 817 3079 
Q 1281 3584 2069 3584 
Q 2775 3584 3186 3129 
Q 3597 2675 3597 1894 
z
M 3022 2063 
Q 3016 2534 2758 2815 
Q 2500 3097 2075 3097 
Q 1594 3097 1305 2825 
Q 1016 2553 972 2059 
L 3022 2063 
z
" transform="scale(0.015625)"/>
      <path id="DejaVuSans-78" d="M 3513 3500 
L 2247 1797 
L 3578 0 
L 2900 0 
L 1881 1375 
L 863 0 
L 184 0 
L 1544 1831 
L 300 3500 
L 978 3500 
L 1906 2253 
L 2834 3500 
L 3513 3500 
z
" transform="scale(0.015625)"/>
      <path id="DejaVuSans-20" transform="scale(0.015625)"/>
     </defs>
     <use xlink:href="#DejaVuSans-43"/>
     <use xlink:href="#DejaVuSans-6f" x="69.824219"/>
     <use xlink:href="#DejaVuSans-6e" x="131.005859"/>
     <use xlink:href="#DejaVuSans-74" x="194.384766"/>
     <use xlink:href="#DejaVuSans-65" x="233.59375"/>
     <use xlink:href="#DejaVuSans-78" x="293.367188"/>
     <use xlink:href="#DejaVuSans-74" x="352.546875"/>
     <use xlink:href="#DejaVuSans-20" x="391.755859"/>
     <use xlink:href="#DejaVuSans-31" x="423.542969"/>
    </g>
   </g>
  </g>
  <g id="axes_2">
   <g id="patch_7">
    <path d="M 72 421.857391 
L 518.4 421.857391 
L 518.4 277.231304 
L 72 277.231304 
z
" style="fill: #ffffff"/>
   </g>
   <g id="matplotlib.axis_3">
    <g id="xtick_10">
     <g id="line2d_16">
      <g>
       <use xlink:href="#m867fbf2b71" x="92.290909" y="421.857391" style="stroke: #000000; stroke-width: 0.8"/>
      </g>
     </g>
    </g>
    <g id="xtick_11">
     <g id="line2d_17">
      <g>
       <use xlink:href="#m867fbf2b71" x="143.790678" y="421.857391" style="stroke: #000000; stroke-width: 0.8"/>
      </g>
     </g>
    </g>
    <g id="xtick_12">
     <g id="line2d_18">
      <g>
       <use xlink:href="#m867fbf2b71" x="195.290448" y="421.857391" style="stroke: #000000; stroke-width: 0.8"/>
      </g>
     </g>
    </g>
    <g id="xtick_13">
     <g id="line2d_19">
      <g>
       <use xlink:href="#m867fbf2b71" x="246.790217" y="421.857391" style="stroke: #000000; stroke-width: 0.8"/>
      </g>
     </g>
    </g>
    <g id="xtick_14">
     <g id="line2d_20">
      <g>
       <use xlink:href="#m867fbf2b71" x="298.289986" y="421.857391" style="stroke: #000000; stroke-width: 0.8"/>
      </g>
     </g>
    </g>
    <g id="xtick_15">
     <g id="line2d_21">
      <g>
       <use xlink:href="#m867fbf2b71" x="349.789755" y="421.857391" style="stroke: #000000; stroke-width: 0.8"/>
      </g>
     </g>
    </g>
    <g id="xtick_16">
     <g id="line2d_22">
      <g>
       <use xlink:href="#m867fbf2b71" x="401.289525" y="421.857391" style="stroke: #000000; stroke-width: 0.8"/>
      </g>
     </g>
    </g>
    <g id="xtick_17">
     <g id="line2d_23">
      <g>
       <use xlink:href="#m867fbf2b71" x="452.789294" y="421.857391" style="stroke: #000000; stroke-width: 0.8"/>
      </g>
     </g>
    </g>
    <g id="xtick_18">
     <g id="line2d_24">
      <g>
       <use xlink:href="#m867fbf2b71" x="504.289063" y="421.857391" style="stroke: #000000; stroke-width: 0.8"/>
      </g>
     </g>
    </g>
   </g>
   <g id="matplotlib.axis_4">
    <g id="ytick_6">
     <g id="line2d_25">
      <g>
       <use xlink:href="#m18f2fe9e3b" x="72" y="421.857391" style="stroke: #000000; stroke-width: 0.8"/>
      </g>
     </g>
     <g id="text_7">
      <!-- −1.0 -->
      <g transform="translate(40.717187 425.65661) scale(0.1 -0.1)">
       <use xlink:href="#DejaVuSans-2212"/>
       <use xlink:href="#DejaVuSans-31" x="83.789062"/>
       <use xlink:href="#DejaVuSans-2e" x="147.412109"/>
       <use xlink:href="#DejaVuSans-30" x="179.199219"/>
      </g>
     </g>
    </g>
    <g id="ytick_7">
     <g id="line2d_26">
      <g>
       <use xlink:href="#m18f2fe9e3b" x="72" y="385.70087" style="stroke: #000000; stroke-width: 0.8"/>
      </g>
     </g>
     <g id="text_8">
      <!-- −0.5 -->
      <g transform="translate(40.717187 389.500088) scale(0.1 -0.1)">
       <use xlink:href="#DejaVuSans-2212"/>
       <use xlink:href="#DejaVuSans-30" x="83.789062"/>
       <use xlink:href="#DejaVuSans-2e" x="147.412109"/>
       <use xlink:href="#DejaVuSans-35" x="179.199219"/>
      </g>
     </g>
    </g>
    <g id="ytick_8">
     <g id="line2d_27">
      <g>
       <use xlink:href="#m18f2fe9e3b" x="72" y="349.544348" style="stroke: #000000; stroke-width: 0.8"/>
      </g>
     </g>
     <g id="text_9">
      <!-- 0.0 -->
      <g transform="translate(49.096875 353.343567) scale(0.1 -0.1)">
       <use xlink:href="#DejaVuSans-30"/>
       <use xlink:href="#DejaVuSans-2e" x="63.623047"/>
       <use xlink:href="#DejaVuSans-30" x="95.410156"/>
      </g>
     </g>
    </g>
    <g id="ytick_9">
     <g id="line2d_28">
      <g>
       <use xlink:href="#m18f2fe9e3b" x="72" y="313.387826" style="stroke: #000000; stroke-width: 0.8"/>
      </g>
     </g>
     <g id="text_10">
      <!-- 0.5 -->
      <g transform="translate(49.096875 317.187045) scale(0.1 -0.1)">
       <use xlink:href="#DejaVuSans-30"/>
       <use xlink:href="#DejaVuSans-2e" x="63.623047"/>
       <use xlink:href="#DejaVuSans-35" x="95.410156"/>
      </g>
     </g>
    </g>
    <g id="ytick_10">
     <g id="line2d_29">
      <g>
       <use xlink:href="#m18f2fe9e3b" x="72" y="277.231304" style="stroke: #000000; stroke-width: 0.8"/>
      </g>
     </g>
     <g id="text_11">
      <!-- 1.0 -->
      <g transform="translate(49.096875 281.030523) scale(0.1 -0.1)">
       <use xlink:href="#DejaVuSans-31"/>
       <use xlink:href="#DejaVuSans-2e" x="63.623047"/>
       <use xlink:href="#DejaVuSans-30" x="95.410156"/>
      </g>
     </g>
    </g>
   </g>
   <g id="line2d_30">
    <path d="M 92.290909 281.555411 
L 94.3509 281.350427 
L 96.410891 281.836918 
L 100.530872 283.27998 
L 102.590863 282.996265 
L 104.650854 285.398332 
L 106.710844 286.626327 
L 108.770835 287.989486 
L 110.830826 290.887445 
L 112.890817 289.518566 
L 114.950808 295.370692 
L 117.010798 295.8688 
L 119.070789 298.118385 
L 121.13078 299.76771 
L 123.190771 302.374959 
L 125.250761 309.252795 
L 127.310752 309.103925 
L 129.370743 311.14022 
L 131.430734 308.626515 
L 133.490725 315.447094 
L 135.550715 318.928289 
L 137.610706 316.9842 
L 139.670697 321.600852 
L 141.730688 323.620055 
L 143.790678 331.765348 
L 145.850669 330.662359 
L 147.91066 336.287428 
L 149.970651 333.681966 
L 152.030641 341.379881 
L 154.090632 337.803891 
L 156.150623 337.381421 
L 158.210614 352.174562 
L 160.270605 340.402342 
L 162.330595 336.726475 
L 164.390586 351.662342 
L 168.510568 351.157661 
L 170.570558 348.21352 
L 172.630549 338.580358 
L 174.69054 348.933592 
L 176.750531 341.340874 
L 180.870512 350.997842 
L 182.930503 347.127426 
L 184.990494 349.4631 
L 187.050485 355.743524 
L 189.110475 348.477679 
L 191.170466 347.195104 
L 193.230457 352.814291 
L 195.290448 349.83972 
L 197.350438 343.873587 
L 199.410429 358.662873 
L 201.47042 345.327547 
L 203.530411 352.129596 
L 205.590401 350.193945 
L 207.650392 358.858535 
L 209.710383 349.209725 
L 211.770374 349.453049 
L 213.830365 346.42912 
L 215.890355 351.163487 
L 217.950346 354.637408 
L 220.010337 340.075337 
L 222.070328 350.064182 
L 224.130318 344.761552 
L 226.190309 357.066082 
L 228.2503 356.452447 
L 230.310291 350.857254 
L 232.370281 350.795886 
L 234.430272 350.061491 
L 236.490263 355.580981 
L 238.550254 352.163668 
L 240.610245 354.689892 
L 242.670235 352.527898 
L 244.730226 350.186262 
L 246.790217 340.379668 
L 248.850208 346.128668 
L 250.910198 347.899969 
L 252.970189 355.56678 
L 255.03018 355.550889 
L 257.090171 351.245085 
L 259.150162 360.103227 
L 261.210152 348.957861 
L 263.270143 359.715154 
L 265.330134 337.39396 
L 267.390125 352.317501 
L 269.450115 365.985119 
L 271.510106 357.038952 
L 273.570097 350.87249 
L 275.630088 357.547584 
L 279.750069 348.819936 
L 281.81006 350.528936 
L 283.870051 349.417724 
L 285.930042 346.916887 
L 287.990032 358.138029 
L 290.050023 357.777496 
L 292.110014 359.896484 
L 294.170005 349.951014 
L 296.229995 343.87842 
L 298.289986 344.688692 
L 300.349977 346.779399 
L 302.409968 349.878256 
L 304.469958 352.096648 
L 306.529949 352.120444 
L 308.58994 350.460494 
L 310.649931 351.43704 
L 312.709922 357.324905 
L 314.769912 357.14746 
L 316.829903 349.764107 
L 318.889894 344.392542 
L 320.949885 347.174444 
L 323.009875 354.834338 
L 325.069866 353.858863 
L 327.129857 340.801556 
L 329.189848 350.046975 
L 331.249838 357.395295 
L 333.309829 360.654724 
L 335.36982 353.701717 
L 337.429811 349.741859 
L 339.489802 349.242077 
L 341.549792 354.269995 
L 343.609783 361.397926 
L 345.669774 353.540821 
L 347.729765 349.998124 
L 349.789755 365.412697 
L 351.849746 350.131912 
L 353.909737 357.231032 
L 355.969728 353.097901 
L 358.029719 356.655312 
L 360.089709 340.36605 
L 362.1497 351.729604 
L 364.209691 343.616548 
L 366.269682 349.690658 
L 368.329672 352.184742 
L 370.389663 350.517859 
L 372.449654 341.890164 
L 374.509645 346.642819 
L 376.569635 352.249444 
L 378.629626 348.058161 
L 380.689617 364.17593 
L 382.749608 349.027535 
L 384.809599 352.346533 
L 386.869589 358.671668 
L 388.92958 353.270257 
L 390.989571 352.959743 
L 393.049562 355.892645 
L 395.109552 341.43534 
L 397.169543 352.657048 
L 399.229534 355.24672 
L 401.289525 354.033941 
L 403.349515 345.581769 
L 405.409506 348.120013 
L 407.469497 360.561697 
L 409.529488 345.330054 
L 411.589479 361.701399 
L 413.649469 348.347743 
L 415.70946 355.881056 
L 419.829442 349.656293 
L 421.889432 348.179393 
L 423.949423 356.66724 
L 426.009414 356.323016 
L 428.069405 353.833148 
L 432.189386 350.487709 
L 434.249377 347.173611 
L 436.309368 349.838861 
L 438.369359 353.929886 
L 440.429349 352.674513 
L 442.48934 352.408519 
L 444.549331 351.222517 
L 446.609322 348.584702 
L 448.669312 358.603339 
L 450.729303 351.669384 
L 452.789294 349.010094 
L 454.849285 353.343059 
L 456.909275 356.615189 
L 458.969266 348.469524 
L 461.029257 349.634759 
L 463.089248 355.53618 
L 465.149239 354.1623 
L 467.209229 356.417046 
L 469.26922 347.486624 
L 471.329211 354.18601 
L 473.389202 354.006091 
L 475.449192 352.185525 
L 477.509183 354.383836 
L 479.569174 351.645533 
L 481.629165 356.26989 
L 483.689156 346.954533 
L 485.749146 356.405831 
L 487.809137 344.540261 
L 489.869128 349.852801 
L 491.929119 355.986844 
L 493.989109 349.304721 
L 496.0491 349.352533 
L 498.109091 346.98396 
L 498.109091 346.98396 
" clip-path="url(#pda0c2f8339)" style="fill: none; stroke: #1f77b4; stroke-width: 1.5; stroke-linecap: square"/>
   </g>
   <g id="patch_8">
    <path d="M 72 421.857391 
L 72 277.231304 
" style="fill: none; stroke: #000000; stroke-width: 0.8; stroke-linejoin: miter; stroke-linecap: square"/>
   </g>
   <g id="patch_9">
    <path d="M 518.4 421.857391 
L 518.4 277.231304 
" style="fill: none; stroke: #000000; stroke-width: 0.8; stroke-linejoin: miter; stroke-linecap: square"/>
   </g>
   <g id="patch_10">
    <path d="M 72 421.857391 
L 518.4 421.857391 
" style="fill: none; stroke: #000000; stroke-width: 0.8; stroke-linejoin: miter; stroke-linecap: square"/>
   </g>
   <g id="patch_11">
    <path d="M 72 277.231304 
L 518.4 277.231304 
" style="fill: none; stroke: #000000; stroke-width: 0.8; stroke-linejoin: miter; stroke-linecap: square"/>
   </g>
   <g id="text_12">
    <!-- Context 2 -->
    <g transform="translate(265.969687 271.231304) scale(0.12 -0.12)">
     <defs>
      <path id="DejaVuSans-32" d="M 1228 531 
L 3431 531 
L 3431 0 
L 469 0 
L 469 531 
Q 828 903 1448 1529 
Q 2069 2156 2228 2338 
Q 2531 2678 2651 2914 
Q 2772 3150 2772 3378 
Q 2772 3750 2511 3984 
Q 2250 4219 1831 4219 
Q 1534 4219 1204 4116 
Q 875 4013 500 3803 
L 500 4441 
Q 881 4594 1212 4672 
Q 1544 4750 1819 4750 
Q 2544 4750 2975 4387 
Q 3406 4025 3406 3419 
Q 3406 3131 3298 2873 
Q 3191 2616 2906 2266 
Q 2828 2175 2409 1742 
Q 1991 1309 1228 531 
z
" transform="scale(0.015625)"/>
     </defs>
     <use xlink:href="#DejaVuSans-43"/>
     <use xlink:href="#DejaVuSans-6f" x="69.824219"/>
     <use xlink:href="#DejaVuSans-6e" x="131.005859"/>
     <use xlink:href="#DejaVuSans-74" x="194.384766"/>
     <use xlink:href="#DejaVuSans-65" x="233.59375"/>
     <use xlink:href="#DejaVuSans-78" x="293.367188"/>
     <use xlink:href="#DejaVuSans-74" x="352.546875"/>
     <use xlink:href="#DejaVuSans-20" x="391.755859"/>
     <use xlink:href="#DejaVuSans-32" x="423.542969"/>
    </g>
   </g>
  </g>
  <g id="axes_3">
   <g id="patch_12">
    <path d="M 72 595.408696 
L 518.4 595.408696 
L 518.4 450.782609 
L 72 450.782609 
z
" style="fill: #ffffff"/>
   </g>
   <g id="matplotlib.axis_5">
    <g id="xtick_19">
     <g id="line2d_31">
      <g>
       <use xlink:href="#m867fbf2b71" x="92.290909" y="595.408696" style="stroke: #000000; stroke-width: 0.8"/>
      </g>
     </g>
    </g>
    <g id="xtick_20">
     <g id="line2d_32">
      <g>
       <use xlink:href="#m867fbf2b71" x="143.790678" y="595.408696" style="stroke: #000000; stroke-width: 0.8"/>
      </g>
     </g>
    </g>
    <g id="xtick_21">
     <g id="line2d_33">
      <g>
       <use xlink:href="#m867fbf2b71" x="195.290448" y="595.408696" style="stroke: #000000; stroke-width: 0.8"/>
      </g>
     </g>
    </g>
    <g id="xtick_22">
     <g id="line2d_34">
      <g>
       <use xlink:href="#m867fbf2b71" x="246.790217" y="595.408696" style="stroke: #000000; stroke-width: 0.8"/>
      </g>
     </g>
    </g>
    <g id="xtick_23">
     <g id="line2d_35">
      <g>
       <use xlink:href="#m867fbf2b71" x="298.289986" y="595.408696" style="stroke: #000000; stroke-width: 0.8"/>
      </g>
     </g>
    </g>
    <g id="xtick_24">
     <g id="line2d_36">
      <g>
       <use xlink:href="#m867fbf2b71" x="349.789755" y="595.408696" style="stroke: #000000; stroke-width: 0.8"/>
      </g>
     </g>
    </g>
    <g id="xtick_25">
     <g id="line2d_37">
      <g>
       <use xlink:href="#m867fbf2b71" x="401.289525" y="595.408696" style="stroke: #000000; stroke-width: 0.8"/>
      </g>
     </g>
    </g>
    <g id="xtick_26">
     <g id="line2d_38">
      <g>
       <use xlink:href="#m867fbf2b71" x="452.789294" y="595.408696" style="stroke: #000000; stroke-width: 0.8"/>
      </g>
     </g>
    </g>
    <g id="xtick_27">
     <g id="line2d_39">
      <g>
       <use xlink:href="#m867fbf2b71" x="504.289063" y="595.408696" style="stroke: #000000; stroke-width: 0.8"/>
      </g>
     </g>
    </g>
   </g>
   <g id="matplotlib.axis_6">
    <g id="ytick_11">
     <g id="line2d_40">
      <g>
       <use xlink:href="#m18f2fe9e3b" x="72" y="595.408696" style="stroke: #000000; stroke-width: 0.8"/>
      </g>
     </g>
     <g id="text_13">
      <!-- −1.0 -->
      <g transform="translate(40.717187 599.207914) scale(0.1 -0.1)">
       <use xlink:href="#DejaVuSans-2212"/>
       <use xlink:href="#DejaVuSans-31" x="83.789062"/>
       <use xlink:href="#DejaVuSans-2e" x="147.412109"/>
       <use xlink:href="#DejaVuSans-30" x="179.199219"/>
      </g>
     </g>
    </g>
    <g id="ytick_12">
     <g id="line2d_41">
      <g>
       <use xlink:href="#m18f2fe9e3b" x="72" y="559.252174" style="stroke: #000000; stroke-width: 0.8"/>
      </g>
     </g>
     <g id="text_14">
      <!-- −0.5 -->
      <g transform="translate(40.717187 563.051393) scale(0.1 -0.1)">
       <use xlink:href="#DejaVuSans-2212"/>
       <use xlink:href="#DejaVuSans-30" x="83.789062"/>
       <use xlink:href="#DejaVuSans-2e" x="147.412109"/>
       <use xlink:href="#DejaVuSans-35" x="179.199219"/>
      </g>
     </g>
    </g>
    <g id="ytick_13">
     <g id="line2d_42">
      <g>
       <use xlink:href="#m18f2fe9e3b" x="72" y="523.095652" style="stroke: #000000; stroke-width: 0.8"/>
      </g>
     </g>
     <g id="text_15">
      <!-- 0.0 -->
      <g transform="translate(49.096875 526.894871) scale(0.1 -0.1)">
       <use xlink:href="#DejaVuSans-30"/>
       <use xlink:href="#DejaVuSans-2e" x="63.623047"/>
       <use xlink:href="#DejaVuSans-30" x="95.410156"/>
      </g>
     </g>
    </g>
    <g id="ytick_14">
     <g id="line2d_43">
      <g>
       <use xlink:href="#m18f2fe9e3b" x="72" y="486.93913" style="stroke: #000000; stroke-width: 0.8"/>
      </g>
     </g>
     <g id="text_16">
      <!-- 0.5 -->
      <g transform="translate(49.096875 490.738349) scale(0.1 -0.1)">
       <use xlink:href="#DejaVuSans-30"/>
       <use xlink:href="#DejaVuSans-2e" x="63.623047"/>
       <use xlink:href="#DejaVuSans-35" x="95.410156"/>
      </g>
     </g>
    </g>
    <g id="ytick_15">
     <g id="line2d_44">
      <g>
       <use xlink:href="#m18f2fe9e3b" x="72" y="450.782609" style="stroke: #000000; stroke-width: 0.8"/>
      </g>
     </g>
     <g id="text_17">
      <!-- 1.0 -->
      <g transform="translate(49.096875 454.581827) scale(0.1 -0.1)">
       <use xlink:href="#DejaVuSans-31"/>
       <use xlink:href="#DejaVuSans-2e" x="63.623047"/>
       <use xlink:href="#DejaVuSans-30" x="95.410156"/>
      </g>
     </g>
    </g>
   </g>
   <g id="line2d_45">
    <path d="M 92.290909 451.730058 
L 96.410891 451.717951 
L 100.530872 451.93365 
L 102.590863 452.145138 
L 104.650854 452.135574 
L 106.710844 452.292629 
L 108.770835 453.086881 
L 110.830826 453.342489 
L 112.890817 454.011508 
L 114.950808 454.143146 
L 117.010798 455.112448 
L 119.070789 454.730332 
L 121.13078 455.020598 
L 123.190771 456.397903 
L 125.250761 459.097084 
L 127.310752 459.079739 
L 129.370743 458.716631 
L 133.490725 463.740123 
L 135.550715 465.201291 
L 137.610706 466.843078 
L 139.670697 465.407767 
L 141.730688 467.521253 
L 143.790678 468.335423 
L 147.91066 474.274283 
L 149.970651 474.391011 
L 152.030641 478.173094 
L 154.090632 479.696803 
L 156.150623 480.848405 
L 158.210614 485.126134 
L 160.270605 494.459569 
L 162.330595 491.71871 
L 164.390586 494.696424 
L 166.450577 488.748088 
L 168.510568 487.329936 
L 172.630549 492.965294 
L 174.69054 498.577068 
L 176.750531 497.945662 
L 178.810521 496.479011 
L 180.870512 500.028375 
L 182.930503 505.857459 
L 184.990494 500.138985 
L 187.050485 510.411066 
L 189.110475 510.518014 
L 191.170466 522.041749 
L 193.230457 452.014785 
L 197.350438 452.540745 
L 199.410429 452.389802 
L 201.47042 452.74335 
L 203.530411 453.591876 
L 205.590401 453.452459 
L 207.650392 454.170662 
L 209.710383 454.583204 
L 211.770374 454.615931 
L 213.830365 455.132775 
L 215.890355 456.15567 
L 217.950346 457.427552 
L 220.010337 458.380531 
L 222.070328 458.309719 
L 224.130318 457.692392 
L 226.190309 460.471768 
L 228.2503 462.812177 
L 230.310291 463.239903 
L 234.430272 465.980652 
L 236.490263 466.990177 
L 238.550254 469.175445 
L 240.610245 561.741229 
L 242.670235 452.11129 
L 246.790217 452.849428 
L 255.03018 454.024361 
L 257.090171 454.869068 
L 259.150162 456.027515 
L 261.210152 456.682574 
L 263.270143 457.682082 
L 265.330134 459.011345 
L 267.390125 458.974545 
L 269.450115 460.670425 
L 271.510106 461.436079 
L 275.630088 466.296274 
L 277.690078 466.608104 
L 279.750069 469.763174 
L 281.81006 472.218372 
L 283.870051 475.009718 
L 285.930042 480.165084 
L 287.990032 477.799353 
L 290.050023 485.843772 
L 292.110014 485.758818 
L 294.170005 487.233506 
L 296.229995 491.825407 
L 298.289986 501.551944 
L 300.349977 494.070621 
L 302.409968 499.697867 
L 304.469958 501.76118 
L 306.529949 505.908412 
L 308.58994 500.211267 
L 310.649931 508.204403 
L 312.709922 510.443408 
L 314.769912 508.806481 
L 316.829903 510.247998 
L 318.889894 516.304564 
L 320.949885 512.940048 
L 323.009875 521.053967 
L 325.069866 515.988787 
L 327.129857 524.414486 
L 329.189848 516.985156 
L 331.249838 519.22821 
L 333.309829 525.359141 
L 335.36982 519.81531 
L 337.429811 519.406091 
L 339.489802 520.51374 
L 341.549792 524.422362 
L 343.609783 513.410932 
L 345.669774 521.608791 
L 347.729765 515.946621 
L 349.789755 524.289565 
L 351.849746 521.437868 
L 353.909737 526.023714 
L 355.969728 512.183124 
L 358.029719 530.523118 
L 360.089709 519.514564 
L 362.1497 528.498212 
L 364.209691 521.630187 
L 366.269682 517.116444 
L 368.329672 519.964725 
L 370.389663 518.882774 
L 372.449654 530.487301 
L 374.509645 527.135496 
L 376.569635 527.428161 
L 378.629626 518.382164 
L 380.689617 528.750051 
L 382.749608 533.324812 
L 384.809599 525.022477 
L 386.869589 519.991044 
L 388.92958 521.583612 
L 390.989571 518.82871 
L 393.049562 518.004233 
L 395.109552 522.363317 
L 397.169543 527.773454 
L 399.229534 531.668977 
L 401.289525 528.380937 
L 403.349515 527.065416 
L 405.409506 517.719741 
L 407.469497 527.361278 
L 409.529488 517.659698 
L 411.589479 530.290938 
L 413.649469 517.684445 
L 415.70946 509.824152 
L 417.769451 524.146187 
L 419.829442 521.946842 
L 421.889432 526.928333 
L 423.949423 516.504311 
L 426.009414 528.82354 
L 428.069405 528.14371 
L 430.129395 524.261388 
L 432.189386 525.56172 
L 434.249377 523.411218 
L 436.309368 527.031413 
L 438.369359 513.671332 
L 440.429349 514.130165 
L 442.48934 515.693222 
L 444.549331 513.471435 
L 446.609322 525.382459 
L 448.669312 518.222507 
L 450.729303 523.594273 
L 452.789294 517.197563 
L 454.849285 508.747096 
L 456.909275 515.348871 
L 458.969266 515.053416 
L 461.029257 517.61547 
L 463.089248 512.791645 
L 465.149239 516.140016 
L 467.209229 510.239939 
L 469.26922 512.280424 
L 471.329211 503.708817 
L 473.389202 506.840061 
L 475.449192 511.382272 
L 477.509183 509.734371 
L 479.569174 510.178249 
L 481.629165 502.990389 
L 483.689156 509.588825 
L 485.749146 506.523641 
L 487.809137 507.709715 
L 489.869128 513.827503 
L 491.929119 515.743493 
L 493.989109 505.840055 
L 496.0491 515.422783 
L 498.109091 509.33916 
L 498.109091 509.33916 
" clip-path="url(#pb20e6321e9)" style="fill: none; stroke: #1f77b4; stroke-width: 1.5; stroke-linecap: square"/>
   </g>
   <g id="patch_13">
    <path d="M 72 595.408696 
L 72 450.782609 
" style="fill: none; stroke: #000000; stroke-width: 0.8; stroke-linejoin: miter; stroke-linecap: square"/>
   </g>
   <g id="patch_14">
    <path d="M 518.4 595.408696 
L 518.4 450.782609 
" style="fill: none; stroke: #000000; stroke-width: 0.8; stroke-linejoin: miter; stroke-linecap: square"/>
   </g>
   <g id="patch_15">
    <path d="M 72 595.408696 
L 518.4 595.408696 
" style="fill: none; stroke: #000000; stroke-width: 0.8; stroke-linejoin: miter; stroke-linecap: square"/>
   </g>
   <g id="patch_16">
    <path d="M 72 450.782609 
L 518.4 450.782609 
" style="fill: none; stroke: #000000; stroke-width: 0.8; stroke-linejoin: miter; stroke-linecap: square"/>
   </g>
   <g id="text_18">
    <!-- Context 3 -->
    <g transform="translate(265.969687 444.782609) scale(0.12 -0.12)">
     <defs>
      <path id="DejaVuSans-33" d="M 2597 2516 
Q 3050 2419 3304 2112 
Q 3559 1806 3559 1356 
Q 3559 666 3084 287 
Q 2609 -91 1734 -91 
Q 1441 -91 1130 -33 
Q 819 25 488 141 
L 488 750 
Q 750 597 1062 519 
Q 1375 441 1716 441 
Q 2309 441 2620 675 
Q 2931 909 2931 1356 
Q 2931 1769 2642 2001 
Q 2353 2234 1838 2234 
L 1294 2234 
L 1294 2753 
L 1863 2753 
Q 2328 2753 2575 2939 
Q 2822 3125 2822 3475 
Q 2822 3834 2567 4026 
Q 2313 4219 1838 4219 
Q 1578 4219 1281 4162 
Q 984 4106 628 3988 
L 628 4550 
Q 988 4650 1302 4700 
Q 1616 4750 1894 4750 
Q 2613 4750 3031 4423 
Q 3450 4097 3450 3541 
Q 3450 3153 3228 2886 
Q 3006 2619 2597 2516 
z
" transform="scale(0.015625)"/>
     </defs>
     <use xlink:href="#DejaVuSans-43"/>
     <use xlink:href="#DejaVuSans-6f" x="69.824219"/>
     <use xlink:href="#DejaVuSans-6e" x="131.005859"/>
     <use xlink:href="#DejaVuSans-74" x="194.384766"/>
     <use xlink:href="#DejaVuSans-65" x="233.59375"/>
     <use xlink:href="#DejaVuSans-78" x="293.367188"/>
     <use xlink:href="#DejaVuSans-74" x="352.546875"/>
     <use xlink:href="#DejaVuSans-20" x="391.755859"/>
     <use xlink:href="#DejaVuSans-33" x="423.542969"/>
    </g>
   </g>
  </g>
  <g id="axes_4">
   <g id="patch_17">
    <path d="M 72 768.96 
L 518.4 768.96 
L 518.4 624.333913 
L 72 624.333913 
z
" style="fill: #ffffff"/>
   </g>
   <g id="matplotlib.axis_7">
    <g id="xtick_28">
     <g id="line2d_46">
      <g>
       <use xlink:href="#m867fbf2b71" x="92.290909" y="768.96" style="stroke: #000000; stroke-width: 0.8"/>
      </g>
     </g>
     <g id="text_19">
      <!-- 0 -->
      <g transform="translate(89.109659 783.558437) scale(0.1 -0.1)">
       <use xlink:href="#DejaVuSans-30"/>
      </g>
     </g>
    </g>
    <g id="xtick_29">
     <g id="line2d_47">
      <g>
       <use xlink:href="#m867fbf2b71" x="143.790678" y="768.96" style="stroke: #000000; stroke-width: 0.8"/>
      </g>
     </g>
     <g id="text_20">
      <!-- 25 -->
      <g transform="translate(137.428178 783.558437) scale(0.1 -0.1)">
       <use xlink:href="#DejaVuSans-32"/>
       <use xlink:href="#DejaVuSans-35" x="63.623047"/>
      </g>
     </g>
    </g>
    <g id="xtick_30">
     <g id="line2d_48">
      <g>
       <use xlink:href="#m867fbf2b71" x="195.290448" y="768.96" style="stroke: #000000; stroke-width: 0.8"/>
      </g>
     </g>
     <g id="text_21">
      <!-- 50 -->
      <g transform="translate(188.927948 783.558437) scale(0.1 -0.1)">
       <use xlink:href="#DejaVuSans-35"/>
       <use xlink:href="#DejaVuSans-30" x="63.623047"/>
      </g>
     </g>
    </g>
    <g id="xtick_31">
     <g id="line2d_49">
      <g>
       <use xlink:href="#m867fbf2b71" x="246.790217" y="768.96" style="stroke: #000000; stroke-width: 0.8"/>
      </g>
     </g>
     <g id="text_22">
      <!-- 75 -->
      <g transform="translate(240.427717 783.558437) scale(0.1 -0.1)">
       <defs>
        <path id="DejaVuSans-37" d="M 525 4666 
L 3525 4666 
L 3525 4397 
L 1831 0 
L 1172 0 
L 2766 4134 
L 525 4134 
L 525 4666 
z
" transform="scale(0.015625)"/>
       </defs>
       <use xlink:href="#DejaVuSans-37"/>
       <use xlink:href="#DejaVuSans-35" x="63.623047"/>
      </g>
     </g>
    </g>
    <g id="xtick_32">
     <g id="line2d_50">
      <g>
       <use xlink:href="#m867fbf2b71" x="298.289986" y="768.96" style="stroke: #000000; stroke-width: 0.8"/>
      </g>
     </g>
     <g id="text_23">
      <!-- 100 -->
      <g transform="translate(288.746236 783.558437) scale(0.1 -0.1)">
       <use xlink:href="#DejaVuSans-31"/>
       <use xlink:href="#DejaVuSans-30" x="63.623047"/>
       <use xlink:href="#DejaVuSans-30" x="127.246094"/>
      </g>
     </g>
    </g>
    <g id="xtick_33">
     <g id="line2d_51">
      <g>
       <use xlink:href="#m867fbf2b71" x="349.789755" y="768.96" style="stroke: #000000; stroke-width: 0.8"/>
      </g>
     </g>
     <g id="text_24">
      <!-- 125 -->
      <g transform="translate(340.246005 783.558437) scale(0.1 -0.1)">
       <use xlink:href="#DejaVuSans-31"/>
       <use xlink:href="#DejaVuSans-32" x="63.623047"/>
       <use xlink:href="#DejaVuSans-35" x="127.246094"/>
      </g>
     </g>
    </g>
    <g id="xtick_34">
     <g id="line2d_52">
      <g>
       <use xlink:href="#m867fbf2b71" x="401.289525" y="768.96" style="stroke: #000000; stroke-width: 0.8"/>
      </g>
     </g>
     <g id="text_25">
      <!-- 150 -->
      <g transform="translate(391.745775 783.558437) scale(0.1 -0.1)">
       <use xlink:href="#DejaVuSans-31"/>
       <use xlink:href="#DejaVuSans-35" x="63.623047"/>
       <use xlink:href="#DejaVuSans-30" x="127.246094"/>
      </g>
     </g>
    </g>
    <g id="xtick_35">
     <g id="line2d_53">
      <g>
       <use xlink:href="#m867fbf2b71" x="452.789294" y="768.96" style="stroke: #000000; stroke-width: 0.8"/>
      </g>
     </g>
     <g id="text_26">
      <!-- 175 -->
      <g transform="translate(443.245544 783.558437) scale(0.1 -0.1)">
       <use xlink:href="#DejaVuSans-31"/>
       <use xlink:href="#DejaVuSans-37" x="63.623047"/>
       <use xlink:href="#DejaVuSans-35" x="127.246094"/>
      </g>
     </g>
    </g>
    <g id="xtick_36">
     <g id="line2d_54">
      <g>
       <use xlink:href="#m867fbf2b71" x="504.289063" y="768.96" style="stroke: #000000; stroke-width: 0.8"/>
      </g>
     </g>
     <g id="text_27">
      <!-- 200 -->
      <g transform="translate(494.745313 783.558437) scale(0.1 -0.1)">
       <use xlink:href="#DejaVuSans-32"/>
       <use xlink:href="#DejaVuSans-30" x="63.623047"/>
       <use xlink:href="#DejaVuSans-30" x="127.246094"/>
      </g>
     </g>
    </g>
    <g id="text_28">
     <!-- t -->
     <g transform="translate(293.239844 797.236562) scale(0.1 -0.1)">
      <use xlink:href="#DejaVuSans-74"/>
     </g>
    </g>
   </g>
   <g id="matplotlib.axis_8">
    <g id="ytick_16">
     <g id="line2d_55">
      <g>
       <use xlink:href="#m18f2fe9e3b" x="72" y="768.96" style="stroke: #000000; stroke-width: 0.8"/>
      </g>
     </g>
     <g id="text_29">
      <!-- −1.0 -->
      <g transform="translate(40.717187 772.759219) scale(0.1 -0.1)">
       <use xlink:href="#DejaVuSans-2212"/>
       <use xlink:href="#DejaVuSans-31" x="83.789062"/>
       <use xlink:href="#DejaVuSans-2e" x="147.412109"/>
       <use xlink:href="#DejaVuSans-30" x="179.199219"/>
      </g>
     </g>
    </g>
    <g id="ytick_17">
     <g id="line2d_56">
      <g>
       <use xlink:href="#m18f2fe9e3b" x="72" y="732.803478" style="stroke: #000000; stroke-width: 0.8"/>
      </g>
     </g>
     <g id="text_30">
      <!-- −0.5 -->
      <g transform="translate(40.717187 736.602697) scale(0.1 -0.1)">
       <use xlink:href="#DejaVuSans-2212"/>
       <use xlink:href="#DejaVuSans-30" x="83.789062"/>
       <use xlink:href="#DejaVuSans-2e" x="147.412109"/>
       <use xlink:href="#DejaVuSans-35" x="179.199219"/>
      </g>
     </g>
    </g>
    <g id="ytick_18">
     <g id="line2d_57">
      <g>
       <use xlink:href="#m18f2fe9e3b" x="72" y="696.646957" style="stroke: #000000; stroke-width: 0.8"/>
      </g>
     </g>
     <g id="text_31">
      <!-- 0.0 -->
      <g transform="translate(49.096875 700.446175) scale(0.1 -0.1)">
       <use xlink:href="#DejaVuSans-30"/>
       <use xlink:href="#DejaVuSans-2e" x="63.623047"/>
       <use xlink:href="#DejaVuSans-30" x="95.410156"/>
      </g>
     </g>
    </g>
    <g id="ytick_19">
     <g id="line2d_58">
      <g>
       <use xlink:href="#m18f2fe9e3b" x="72" y="660.490435" style="stroke: #000000; stroke-width: 0.8"/>
      </g>
     </g>
     <g id="text_32">
      <!-- 0.5 -->
      <g transform="translate(49.096875 664.289654) scale(0.1 -0.1)">
       <use xlink:href="#DejaVuSans-30"/>
       <use xlink:href="#DejaVuSans-2e" x="63.623047"/>
       <use xlink:href="#DejaVuSans-35" x="95.410156"/>
      </g>
     </g>
    </g>
    <g id="ytick_20">
     <g id="line2d_59">
      <g>
       <use xlink:href="#m18f2fe9e3b" x="72" y="624.333913" style="stroke: #000000; stroke-width: 0.8"/>
      </g>
     </g>
     <g id="text_33">
      <!-- 1.0 -->
      <g transform="translate(49.096875 628.133132) scale(0.1 -0.1)">
       <use xlink:href="#DejaVuSans-31"/>
       <use xlink:href="#DejaVuSans-2e" x="63.623047"/>
       <use xlink:href="#DejaVuSans-30" x="95.410156"/>
      </g>
     </g>
    </g>
    <g id="text_34">
     <!-- $\rho(\dot{x}(t), \dot{x}(t+1))$ -->
     <g transform="translate(34.617187 733.246957) rotate(-90) scale(0.1 -0.1)">
      <defs>
       <path id="DejaVuSans-Oblique-3c1" d="M 1203 2875 
Q 1453 3194 1981 3475 
Q 2188 3584 2756 3584 
Q 3394 3584 3694 3078 
Q 3994 2572 3834 1747 
Q 3672 922 3175 415 
Q 2678 -91 2041 -91 
Q 1656 -91 1409 63 
Q 1163 213 1044 525 
L 681 -1331 
L 103 -1331 
L 697 1716 
Q 838 2438 1203 2875 
z
M 3238 1747 
Q 3359 2381 3169 2744 
Q 2978 3103 2522 3103 
Q 2066 3103 1734 2744 
Q 1403 2381 1281 1747 
Q 1156 1113 1347 750 
Q 1538 391 1994 391 
Q 2450 391 2781 750 
Q 3113 1113 3238 1747 
z
" transform="scale(0.015625)"/>
       <path id="DejaVuSans-28" d="M 1984 4856 
Q 1566 4138 1362 3434 
Q 1159 2731 1159 2009 
Q 1159 1288 1364 580 
Q 1569 -128 1984 -844 
L 1484 -844 
Q 1016 -109 783 600 
Q 550 1309 550 2009 
Q 550 2706 781 3412 
Q 1013 4119 1484 4856 
L 1984 4856 
z
" transform="scale(0.015625)"/>
       <path id="DejaVuSans-307" d="M -1894 4863 
L -1319 4863 
L -1319 4134 
L -1894 4134 
L -1894 4863 
z
M -1600 3584 
L -1600 3584 
z
" transform="scale(0.015625)"/>
       <path id="DejaVuSans-Oblique-78" d="M 3841 3500 
L 2234 1784 
L 3219 0 
L 2559 0 
L 1819 1388 
L 531 0 
L -166 0 
L 1556 1844 
L 641 3500 
L 1300 3500 
L 1972 2234 
L 3144 3500 
L 3841 3500 
z
" transform="scale(0.015625)"/>
       <path id="DejaVuSans-Oblique-74" d="M 2706 3500 
L 2619 3053 
L 1472 3053 
L 1100 1153 
Q 1081 1047 1072 975 
Q 1063 903 1063 863 
Q 1063 663 1183 572 
Q 1303 481 1569 481 
L 2150 481 
L 2053 0 
L 1503 0 
Q 991 0 739 200 
Q 488 400 488 806 
Q 488 878 497 964 
Q 506 1050 525 1153 
L 897 3053 
L 409 3053 
L 500 3500 
L 978 3500 
L 1172 4494 
L 1747 4494 
L 1556 3500 
L 2706 3500 
z
" transform="scale(0.015625)"/>
       <path id="DejaVuSans-29" d="M 513 4856 
L 1013 4856 
Q 1481 4119 1714 3412 
Q 1947 2706 1947 2009 
Q 1947 1309 1714 600 
Q 1481 -109 1013 -844 
L 513 -844 
Q 928 -128 1133 580 
Q 1338 1288 1338 2009 
Q 1338 2731 1133 3434 
Q 928 4138 513 4856 
z
" transform="scale(0.015625)"/>
       <path id="DejaVuSans-2c" d="M 750 794 
L 1409 794 
L 1409 256 
L 897 -744 
L 494 -744 
L 750 256 
L 750 794 
z
" transform="scale(0.015625)"/>
       <path id="DejaVuSans-2b" d="M 2944 4013 
L 2944 2272 
L 4684 2272 
L 4684 1741 
L 2944 1741 
L 2944 0 
L 2419 0 
L 2419 1741 
L 678 1741 
L 678 2272 
L 2419 2272 
L 2419 4013 
L 2944 4013 
z
" transform="scale(0.015625)"/>
      </defs>
      <use xlink:href="#DejaVuSans-Oblique-3c1" transform="translate(0 0.828125)"/>
      <use xlink:href="#DejaVuSans-28" transform="translate(63.476562 0.828125)"/>
      <use xlink:href="#DejaVuSans-307" transform="translate(164.878906 12.015625)"/>
      <use xlink:href="#DejaVuSans-Oblique-78" transform="translate(102.490234 0.828125)"/>
      <use xlink:href="#DejaVuSans-28" transform="translate(161.669922 0.828125)"/>
      <use xlink:href="#DejaVuSans-Oblique-74" transform="translate(200.683594 0.828125)"/>
      <use xlink:href="#DejaVuSans-29" transform="translate(239.892578 0.828125)"/>
      <use xlink:href="#DejaVuSans-2c" transform="translate(278.90625 0.828125)"/>
      <use xlink:href="#DejaVuSans-307" transform="translate(392.564453 12.015625)"/>
      <use xlink:href="#DejaVuSans-Oblique-78" transform="translate(330.175781 0.828125)"/>
      <use xlink:href="#DejaVuSans-28" transform="translate(389.355469 0.828125)"/>
      <use xlink:href="#DejaVuSans-Oblique-74" transform="translate(428.369141 0.828125)"/>
      <use xlink:href="#DejaVuSans-2b" transform="translate(487.060547 0.828125)"/>
      <use xlink:href="#DejaVuSans-31" transform="translate(590.332031 0.828125)"/>
      <use xlink:href="#DejaVuSans-29" transform="translate(653.955078 0.828125)"/>
      <use xlink:href="#DejaVuSans-29" transform="translate(692.96875 0.828125)"/>
     </g>
    </g>
   </g>
   <g id="line2d_60">
    <path d="M 92.290909 625.146859 
L 98.470881 625.337705 
L 100.530872 625.612696 
L 102.590863 625.591214 
L 104.650854 626.128867 
L 108.770835 625.977191 
L 110.830826 626.560197 
L 112.890817 627.375918 
L 114.950808 627.540542 
L 119.070789 628.798196 
L 121.13078 630.137153 
L 123.190771 630.491296 
L 125.250761 631.5346 
L 127.310752 631.739661 
L 129.370743 633.688136 
L 131.430734 633.993457 
L 133.490725 636.576319 
L 135.550715 636.92585 
L 137.610706 639.054878 
L 139.670697 638.646699 
L 141.730688 641.377133 
L 143.790678 640.992607 
L 145.850669 645.57086 
L 147.91066 644.748609 
L 149.970651 645.414629 
L 152.030641 651.063473 
L 154.090632 650.851709 
L 156.150623 652.997332 
L 158.210614 657.701059 
L 160.270605 657.6186 
L 162.330595 659.300998 
L 164.390586 659.229992 
L 166.450577 661.892289 
L 168.510568 662.949353 
L 170.570558 662.370578 
L 172.630549 662.800923 
L 174.69054 664.450623 
L 176.750531 660.944421 
L 178.810521 660.066407 
L 180.870512 663.313586 
L 182.930503 667.949481 
L 184.990494 668.060203 
L 187.050485 671.519978 
L 189.110475 668.510631 
L 191.170466 673.583009 
L 193.230457 672.541515 
L 195.290448 667.630828 
L 197.350438 674.062958 
L 199.410429 674.417077 
L 201.47042 674.076845 
L 203.530411 669.684392 
L 205.590401 667.044334 
L 207.650392 678.67845 
L 209.710383 681.434744 
L 211.770374 676.10086 
L 213.830365 680.439028 
L 215.890355 674.373022 
L 217.950346 674.231947 
L 220.010337 676.966455 
L 222.070328 672.495159 
L 224.130318 674.840732 
L 226.190309 675.26743 
L 228.2503 672.794442 
L 230.310291 670.624143 
L 232.370281 673.066743 
L 234.430272 674.945756 
L 236.490263 674.099713 
L 238.550254 674.986162 
L 240.610245 674.238611 
L 242.670235 676.473735 
L 244.730226 672.013086 
L 246.790217 677.745449 
L 248.850208 678.553994 
L 250.910198 671.854328 
L 252.970189 673.333393 
L 255.03018 681.154247 
L 257.090171 682.910084 
L 259.150162 687.75767 
L 261.210152 668.924367 
L 263.270143 687.847624 
L 265.330134 689.050284 
L 267.390125 678.021689 
L 269.450115 683.83221 
L 271.510106 681.872347 
L 273.570097 686.527146 
L 275.630088 678.241811 
L 279.750069 701.447485 
L 281.81006 699.471557 
L 283.870051 698.006516 
L 285.930042 699.449333 
L 287.990032 687.47021 
L 290.050023 696.416968 
L 292.110014 698.632076 
L 294.170005 696.760031 
L 296.229995 697.611982 
L 298.289986 691.743354 
L 300.349977 698.930489 
L 302.409968 701.781555 
L 304.469958 695.65935 
L 306.529949 697.343433 
L 308.58994 693.937687 
L 310.649931 698.238108 
L 312.709922 697.292685 
L 314.769912 703.842747 
L 316.829903 697.433967 
L 318.889894 701.134979 
L 320.949885 696.518617 
L 323.009875 701.223122 
L 325.069866 686.403811 
L 327.129857 697.70211 
L 329.189848 698.10602 
L 331.249838 692.181944 
L 333.309829 700.165459 
L 335.36982 700.876719 
L 337.429811 703.931002 
L 339.489802 700.124605 
L 341.549792 692.666199 
L 343.609783 705.262888 
L 345.669774 708.86494 
L 347.729765 699.323551 
L 349.789755 704.697259 
L 351.849746 702.407273 
L 353.909737 693.676316 
L 355.969728 697.169436 
L 358.029719 697.934361 
L 360.089709 699.974602 
L 362.1497 704.175366 
L 364.209691 700.358364 
L 366.269682 708.553078 
L 368.329672 695.520553 
L 372.449654 706.134763 
L 374.509645 701.101831 
L 376.569635 709.927457 
L 378.629626 703.729866 
L 380.689617 699.361877 
L 382.749608 697.310012 
L 384.809599 702.609906 
L 386.869589 692.146736 
L 388.92958 696.514366 
L 390.989571 704.230336 
L 393.049562 702.657132 
L 395.109552 700.127893 
L 397.169543 705.529462 
L 399.229534 700.702159 
L 401.289525 699.933025 
L 403.349515 702.381267 
L 405.409506 705.048741 
L 407.469497 696.110989 
L 409.529488 709.331689 
L 411.589479 691.286163 
L 413.649469 708.318773 
L 415.70946 701.096542 
L 417.769451 694.428994 
L 419.829442 707.354177 
L 421.889432 699.132914 
L 423.949423 703.913158 
L 426.009414 699.83296 
L 428.069405 698.105192 
L 430.129395 690.110985 
L 432.189386 700.806352 
L 434.249377 708.222782 
L 436.309368 701.189405 
L 438.369359 700.210414 
L 442.48934 707.415507 
L 444.549331 698.16018 
L 446.609322 692.649856 
L 448.669312 699.705146 
L 450.729303 705.164138 
L 452.789294 701.053604 
L 454.849285 694.923695 
L 456.909275 695.935502 
L 458.969266 702.149697 
L 461.029257 703.314516 
L 463.089248 695.246042 
L 465.149239 709.474989 
L 467.209229 697.030474 
L 469.26922 693.350685 
L 471.329211 698.790366 
L 473.389202 695.990621 
L 475.449192 703.46288 
L 477.509183 698.946652 
L 479.569174 705.190209 
L 481.629165 702.505795 
L 483.689156 695.60762 
L 485.749146 699.848637 
L 487.809137 700.085162 
L 489.869128 698.718273 
L 491.929119 695.543905 
L 493.989109 700.082365 
L 496.0491 700.855549 
L 498.109091 695.264636 
L 498.109091 695.264636 
" clip-path="url(#pef12415c1b)" style="fill: none; stroke: #1f77b4; stroke-width: 1.5; stroke-linecap: square"/>
   </g>
   <g id="patch_18">
    <path d="M 72 768.96 
L 72 624.333913 
" style="fill: none; stroke: #000000; stroke-width: 0.8; stroke-linejoin: miter; stroke-linecap: square"/>
   </g>
   <g id="patch_19">
    <path d="M 518.4 768.96 
L 518.4 624.333913 
" style="fill: none; stroke: #000000; stroke-width: 0.8; stroke-linejoin: miter; stroke-linecap: square"/>
   </g>
   <g id="patch_20">
    <path d="M 72 768.96 
L 518.4 768.96 
" style="fill: none; stroke: #000000; stroke-width: 0.8; stroke-linejoin: miter; stroke-linecap: square"/>
   </g>
   <g id="patch_21">
    <path d="M 72 624.333913 
L 518.4 624.333913 
" style="fill: none; stroke: #000000; stroke-width: 0.8; stroke-linejoin: miter; stroke-linecap: square"/>
   </g>
   <g id="text_35">
    <!-- Context 4 -->
    <g transform="translate(265.969687 618.333913) scale(0.12 -0.12)">
     <defs>
      <path id="DejaVuSans-34" d="M 2419 4116 
L 825 1625 
L 2419 1625 
L 2419 4116 
z
M 2253 4666 
L 3047 4666 
L 3047 1625 
L 3713 1625 
L 3713 1100 
L 3047 1100 
L 3047 0 
L 2419 0 
L 2419 1100 
L 313 1100 
L 313 1709 
L 2253 4666 
z
" transform="scale(0.015625)"/>
     </defs>
     <use xlink:href="#DejaVuSans-43"/>
     <use xlink:href="#DejaVuSans-6f" x="69.824219"/>
     <use xlink:href="#DejaVuSans-6e" x="131.005859"/>
     <use xlink:href="#DejaVuSans-74" x="194.384766"/>
     <use xlink:href="#DejaVuSans-65" x="233.59375"/>
     <use xlink:href="#DejaVuSans-78" x="293.367188"/>
     <use xlink:href="#DejaVuSans-74" x="352.546875"/>
     <use xlink:href="#DejaVuSans-20" x="391.755859"/>
     <use xlink:href="#DejaVuSans-34" x="423.542969"/>
    </g>
   </g>
  </g>
 </g>
 <defs>
  <clipPath id="pc1d68f1dca">
   <rect x="72" y="103.68" width="446.4" height="144.626087"/>
  </clipPath>
  <clipPath id="pda0c2f8339">
   <rect x="72" y="277.231304" width="446.4" height="144.626087"/>
  </clipPath>
  <clipPath id="pb20e6321e9">
   <rect x="72" y="450.782609" width="446.4" height="144.626087"/>
  </clipPath>
  <clipPath id="pef12415c1b">
   <rect x="72" y="624.333913" width="446.4" height="144.626087"/>
  </clipPath>
 </defs>
</svg>
