<?xml version="1.0" encoding="utf-8" standalone="no"?>
<!DOCTYPE svg PUBLIC "-//W3C//DTD SVG 1.1//EN"
  "http://www.w3.org/Graphics/SVG/1.1/DTD/svg11.dtd">
<svg xmlns:xlink="http://www.w3.org/1999/xlink" width="576pt" height="864pt" viewBox="0 0 576 864" xmlns="http://www.w3.org/2000/svg" version="1.1">
 <metadata>
  <rdf:RDF xmlns:dc="http://purl.org/dc/elements/1.1/" xmlns:cc="http://creativecommons.org/ns#" xmlns:rdf="http://www.w3.org/1999/02/22-rdf-syntax-ns#">
   <cc:Work>
    <dc:type rdf:resource="http://purl.org/dc/dcmitype/StillImage"/>
    <dc:date>2025-02-19T10:21:15.604294</dc:date>
    <dc:format>image/svg+xml</dc:format>
    <dc:creator>
     <cc:Agent>
      <dc:title>Matplotlib v3.7.5, https://matplotlib.org/</dc:title>
     </cc:Agent>
    </dc:creator>
   </cc:Work>
  </rdf:RDF>
 </metadata>
 <defs>
  <style type="text/css">*{stroke-linejoin: round; stroke-linecap: butt}</style>
 </defs>
 <g id="figure_1">
  <g id="patch_1">
   <path d="M 0 864 
L 576 864 
L 576 0 
L 0 0 
z
" style="fill: #ffffff"/>
  </g>
  <g id="axes_1">
   <g id="patch_2">
    <path d="M 72 248.306087 
L 518.4 248.306087 
L 518.4 103.68 
L 72 103.68 
z
" style="fill: #ffffff"/>
   </g>
   <g id="matplotlib.axis_1">
    <g id="xtick_1">
     <g id="line2d_1">
      <defs>
       <path id="m399b98aff3" d="M 0 0 
L 0 3.5 
" style="stroke: #000000; stroke-width: 0.8"/>
      </defs>
      <g>
       <use xlink:href="#m399b98aff3" x="92.290909" y="248.306087" style="stroke: #000000; stroke-width: 0.8"/>
      </g>
     </g>
    </g>
    <g id="xtick_2">
     <g id="line2d_2">
      <g>
       <use xlink:href="#m399b98aff3" x="143.790678" y="248.306087" style="stroke: #000000; stroke-width: 0.8"/>
      </g>
     </g>
    </g>
    <g id="xtick_3">
     <g id="line2d_3">
      <g>
       <use xlink:href="#m399b98aff3" x="195.290448" y="248.306087" style="stroke: #000000; stroke-width: 0.8"/>
      </g>
     </g>
    </g>
    <g id="xtick_4">
     <g id="line2d_4">
      <g>
       <use xlink:href="#m399b98aff3" x="246.790217" y="248.306087" style="stroke: #000000; stroke-width: 0.8"/>
      </g>
     </g>
    </g>
    <g id="xtick_5">
     <g id="line2d_5">
      <g>
       <use xlink:href="#m399b98aff3" x="298.289986" y="248.306087" style="stroke: #000000; stroke-width: 0.8"/>
      </g>
     </g>
    </g>
    <g id="xtick_6">
     <g id="line2d_6">
      <g>
       <use xlink:href="#m399b98aff3" x="349.789755" y="248.306087" style="stroke: #000000; stroke-width: 0.8"/>
      </g>
     </g>
    </g>
    <g id="xtick_7">
     <g id="line2d_7">
      <g>
       <use xlink:href="#m399b98aff3" x="401.289525" y="248.306087" style="stroke: #000000; stroke-width: 0.8"/>
      </g>
     </g>
    </g>
    <g id="xtick_8">
     <g id="line2d_8">
      <g>
       <use xlink:href="#m399b98aff3" x="452.789294" y="248.306087" style="stroke: #000000; stroke-width: 0.8"/>
      </g>
     </g>
    </g>
    <g id="xtick_9">
     <g id="line2d_9">
      <g>
       <use xlink:href="#m399b98aff3" x="504.289063" y="248.306087" style="stroke: #000000; stroke-width: 0.8"/>
      </g>
     </g>
    </g>
   </g>
   <g id="matplotlib.axis_2">
    <g id="ytick_1">
     <g id="line2d_10">
      <defs>
       <path id="m5d88e14fb1" d="M 0 0 
L -3.5 0 
" style="stroke: #000000; stroke-width: 0.8"/>
      </defs>
      <g>
       <use xlink:href="#m5d88e14fb1" x="72" y="248.306087" style="stroke: #000000; stroke-width: 0.8"/>
      </g>
     </g>
     <g id="text_1">
      <!-- −1.0 -->
      <g transform="translate(40.717187 252.105306) scale(0.1 -0.1)">
       <defs>
        <path id="DejaVuSans-2212" d="M 678 2272 
L 4684 2272 
L 4684 1741 
L 678 1741 
L 678 2272 
z
" transform="scale(0.015625)"/>
        <path id="DejaVuSans-31" d="M 794 531 
L 1825 531 
L 1825 4091 
L 703 3866 
L 703 4441 
L 1819 4666 
L 2450 4666 
L 2450 531 
L 3481 531 
L 3481 0 
L 794 0 
L 794 531 
z
" transform="scale(0.015625)"/>
        <path id="DejaVuSans-2e" d="M 684 794 
L 1344 794 
L 1344 0 
L 684 0 
L 684 794 
z
" transform="scale(0.015625)"/>
        <path id="DejaVuSans-30" d="M 2034 4250 
Q 1547 4250 1301 3770 
Q 1056 3291 1056 2328 
Q 1056 1369 1301 889 
Q 1547 409 2034 409 
Q 2525 409 2770 889 
Q 3016 1369 3016 2328 
Q 3016 3291 2770 3770 
Q 2525 4250 2034 4250 
z
M 2034 4750 
Q 2819 4750 3233 4129 
Q 3647 3509 3647 2328 
Q 3647 1150 3233 529 
Q 2819 -91 2034 -91 
Q 1250 -91 836 529 
Q 422 1150 422 2328 
Q 422 3509 836 4129 
Q 1250 4750 2034 4750 
z
" transform="scale(0.015625)"/>
       </defs>
       <use xlink:href="#DejaVuSans-2212"/>
       <use xlink:href="#DejaVuSans-31" x="83.789062"/>
       <use xlink:href="#DejaVuSans-2e" x="147.412109"/>
       <use xlink:href="#DejaVuSans-30" x="179.199219"/>
      </g>
     </g>
    </g>
    <g id="ytick_2">
     <g id="line2d_11">
      <g>
       <use xlink:href="#m5d88e14fb1" x="72" y="212.149565" style="stroke: #000000; stroke-width: 0.8"/>
      </g>
     </g>
     <g id="text_2">
      <!-- −0.5 -->
      <g transform="translate(40.717187 215.948784) scale(0.1 -0.1)">
       <defs>
        <path id="DejaVuSans-35" d="M 691 4666 
L 3169 4666 
L 3169 4134 
L 1269 4134 
L 1269 2991 
Q 1406 3038 1543 3061 
Q 1681 3084 1819 3084 
Q 2600 3084 3056 2656 
Q 3513 2228 3513 1497 
Q 3513 744 3044 326 
Q 2575 -91 1722 -91 
Q 1428 -91 1123 -41 
Q 819 9 494 109 
L 494 744 
Q 775 591 1075 516 
Q 1375 441 1709 441 
Q 2250 441 2565 725 
Q 2881 1009 2881 1497 
Q 2881 1984 2565 2268 
Q 2250 2553 1709 2553 
Q 1456 2553 1204 2497 
Q 953 2441 691 2322 
L 691 4666 
z
" transform="scale(0.015625)"/>
       </defs>
       <use xlink:href="#DejaVuSans-2212"/>
       <use xlink:href="#DejaVuSans-30" x="83.789062"/>
       <use xlink:href="#DejaVuSans-2e" x="147.412109"/>
       <use xlink:href="#DejaVuSans-35" x="179.199219"/>
      </g>
     </g>
    </g>
    <g id="ytick_3">
     <g id="line2d_12">
      <g>
       <use xlink:href="#m5d88e14fb1" x="72" y="175.993043" style="stroke: #000000; stroke-width: 0.8"/>
      </g>
     </g>
     <g id="text_3">
      <!-- 0.0 -->
      <g transform="translate(49.096875 179.792262) scale(0.1 -0.1)">
       <use xlink:href="#DejaVuSans-30"/>
       <use xlink:href="#DejaVuSans-2e" x="63.623047"/>
       <use xlink:href="#DejaVuSans-30" x="95.410156"/>
      </g>
     </g>
    </g>
    <g id="ytick_4">
     <g id="line2d_13">
      <g>
       <use xlink:href="#m5d88e14fb1" x="72" y="139.836522" style="stroke: #000000; stroke-width: 0.8"/>
      </g>
     </g>
     <g id="text_4">
      <!-- 0.5 -->
      <g transform="translate(49.096875 143.63574) scale(0.1 -0.1)">
       <use xlink:href="#DejaVuSans-30"/>
       <use xlink:href="#DejaVuSans-2e" x="63.623047"/>
       <use xlink:href="#DejaVuSans-35" x="95.410156"/>
      </g>
     </g>
    </g>
    <g id="ytick_5">
     <g id="line2d_14">
      <g>
       <use xlink:href="#m5d88e14fb1" x="72" y="103.68" style="stroke: #000000; stroke-width: 0.8"/>
      </g>
     </g>
     <g id="text_5">
      <!-- 1.0 -->
      <g transform="translate(49.096875 107.479219) scale(0.1 -0.1)">
       <use xlink:href="#DejaVuSans-31"/>
       <use xlink:href="#DejaVuSans-2e" x="63.623047"/>
       <use xlink:href="#DejaVuSans-30" x="95.410156"/>
      </g>
     </g>
    </g>
   </g>
   <g id="line2d_15">
    <path d="M 92.290909 118.454455 
L 94.3509 123.527625 
L 98.470881 145.710832 
L 100.530872 141.897665 
L 104.650854 161.046718 
L 106.710844 160.895083 
L 108.770835 157.696605 
L 110.830826 160.878838 
L 112.890817 173.663264 
L 114.950808 167.682969 
L 117.010798 170.849865 
L 119.070789 172.978048 
L 121.13078 181.692348 
L 123.190771 167.172823 
L 125.250761 169.457594 
L 127.310752 181.836515 
L 129.370743 164.511648 
L 131.430734 181.630951 
L 133.490725 172.606892 
L 135.550715 184.139429 
L 137.610706 183.05339 
L 139.670697 175.285841 
L 141.730688 177.391817 
L 143.790678 173.371167 
L 145.850669 173.594458 
L 147.91066 177.79878 
L 149.970651 189.902979 
L 152.030641 185.301048 
L 154.090632 172.450617 
L 156.150623 169.504111 
L 158.210614 190.50654 
L 160.270605 185.498431 
L 162.330595 175.629428 
L 164.390586 184.155821 
L 166.450577 173.002217 
L 168.510568 191.164458 
L 170.570558 175.052254 
L 172.630549 170.458899 
L 174.69054 164.8289 
L 176.750531 167.828712 
L 178.810521 167.053323 
L 180.870512 192.383822 
L 182.930503 189.067509 
L 184.990494 170.037441 
L 187.050485 177.274487 
L 189.110475 183.028828 
L 191.170466 165.694714 
L 193.230457 116.242757 
L 195.290448 116.168863 
L 197.350438 117.45655 
L 199.410429 112.632556 
L 201.47042 117.27966 
L 203.530411 111.621281 
L 205.590401 110.972291 
L 209.710383 115.455388 
L 211.770374 123.44621 
L 213.830365 119.874896 
L 215.890355 122.585676 
L 217.950346 123.155876 
L 222.070328 127.217134 
L 224.130318 127.280347 
L 226.190309 148.98439 
L 228.2503 154.890085 
L 230.310291 138.399736 
L 232.370281 133.264322 
L 234.430272 135.621799 
L 236.490263 155.253721 
L 238.550254 157.201795 
L 240.610245 171.039242 
L 242.670235 120.486163 
L 244.730226 114.784898 
L 246.790217 113.129228 
L 248.850208 116.776108 
L 250.910198 119.274378 
L 252.970189 119.326795 
L 255.03018 122.15304 
L 257.090171 120.158645 
L 259.150162 122.206396 
L 261.210152 120.764167 
L 263.270143 123.506342 
L 265.330134 127.143697 
L 267.390125 124.590877 
L 269.450115 131.869311 
L 271.510106 124.316619 
L 273.570097 127.304609 
L 275.630088 131.425792 
L 277.690078 134.74933 
L 279.750069 136.888393 
L 281.81006 140.047189 
L 283.870051 137.095592 
L 285.930042 148.851907 
L 287.990032 151.447876 
L 290.050023 151.233278 
L 292.110014 145.825678 
L 294.170005 167.997101 
L 296.229995 164.654331 
L 298.289986 164.039259 
L 300.349977 154.026777 
L 302.409968 171.110381 
L 304.469958 160.290922 
L 306.529949 168.186786 
L 308.58994 162.730548 
L 310.649931 170.771558 
L 312.709922 168.798268 
L 314.769912 172.107038 
L 316.829903 160.489061 
L 318.889894 178.58755 
L 320.949885 173.150197 
L 323.009875 169.751999 
L 325.069866 175.549759 
L 327.129857 172.563337 
L 329.189848 168.520543 
L 331.249838 188.14913 
L 333.309829 182.144133 
L 335.36982 172.757061 
L 337.429811 168.110754 
L 339.489802 161.004107 
L 341.549792 171.584528 
L 343.609783 179.649401 
L 345.669774 173.852133 
L 347.729765 180.958425 
L 349.789755 173.402423 
L 351.849746 185.981248 
L 353.909737 178.065628 
L 355.969728 190.602263 
L 358.029719 167.665789 
L 360.089709 180.309438 
L 362.1497 168.239392 
L 364.209691 176.111302 
L 366.269682 160.086395 
L 368.329672 174.256203 
L 370.389663 164.01127 
L 372.449654 173.682696 
L 374.509645 171.714637 
L 376.569635 176.108195 
L 378.629626 179.952944 
L 380.689617 183.31716 
L 382.749608 175.611007 
L 384.809599 185.082408 
L 386.869589 176.782505 
L 388.92958 165.036819 
L 390.989571 178.652753 
L 393.049562 171.895134 
L 395.109552 172.156061 
L 397.169543 184.945026 
L 399.229534 177.565336 
L 401.289525 177.384716 
L 403.349515 189.116851 
L 405.409506 183.342143 
L 407.469497 160.733991 
L 409.529488 171.294069 
L 411.589479 175.017271 
L 413.649469 181.521668 
L 415.70946 180.587596 
L 417.769451 194.566074 
L 419.829442 192.970744 
L 421.889432 178.74303 
L 423.949423 174.128657 
L 426.009414 174.163028 
L 428.069405 180.718108 
L 430.129395 174.117143 
L 432.189386 173.874436 
L 434.249377 178.651037 
L 436.309368 179.8161 
L 438.369359 165.188819 
L 440.429349 182.378904 
L 442.48934 184.085992 
L 444.549331 192.268937 
L 446.609322 179.066317 
L 448.669312 180.917536 
L 450.729303 177.744271 
L 452.789294 172.647658 
L 454.849285 181.225883 
L 456.909275 180.976617 
L 458.969266 174.52389 
L 461.029257 177.845729 
L 463.089248 197.432695 
L 465.149239 189.282208 
L 467.209229 175.485315 
L 469.26922 189.379845 
L 473.389202 180.17515 
L 475.449192 186.752626 
L 477.509183 174.505709 
L 479.569174 187.318856 
L 481.629165 165.867174 
L 483.689156 169.86292 
L 485.749146 183.539557 
L 487.809137 169.467913 
L 489.869128 176.529299 
L 491.929119 172.339252 
L 493.989109 178.583868 
L 496.0491 180.898365 
L 498.109091 183.873118 
L 498.109091 183.873118 
" clip-path="url(#p3b2eaf47bd)" style="fill: none; stroke: #1f77b4; stroke-width: 1.5; stroke-linecap: square"/>
   </g>
   <g id="patch_3">
    <path d="M 72 248.306087 
L 72 103.68 
" style="fill: none; stroke: #000000; stroke-width: 0.8; stroke-linejoin: miter; stroke-linecap: square"/>
   </g>
   <g id="patch_4">
    <path d="M 518.4 248.306087 
L 518.4 103.68 
" style="fill: none; stroke: #000000; stroke-width: 0.8; stroke-linejoin: miter; stroke-linecap: square"/>
   </g>
   <g id="patch_5">
    <path d="M 72 248.306087 
L 518.4 248.306087 
" style="fill: none; stroke: #000000; stroke-width: 0.8; stroke-linejoin: miter; stroke-linecap: square"/>
   </g>
   <g id="patch_6">
    <path d="M 72 103.68 
L 518.4 103.68 
" style="fill: none; stroke: #000000; stroke-width: 0.8; stroke-linejoin: miter; stroke-linecap: square"/>
   </g>
   <g id="text_6">
    <!-- Context 1 -->
    <g transform="translate(265.969687 97.68) scale(0.12 -0.12)">
     <defs>
      <path id="DejaVuSans-43" d="M 4122 4306 
L 4122 3641 
Q 3803 3938 3442 4084 
Q 3081 4231 2675 4231 
Q 1875 4231 1450 3742 
Q 1025 3253 1025 2328 
Q 1025 1406 1450 917 
Q 1875 428 2675 428 
Q 3081 428 3442 575 
Q 3803 722 4122 1019 
L 4122 359 
Q 3791 134 3420 21 
Q 3050 -91 2638 -91 
Q 1578 -91 968 557 
Q 359 1206 359 2328 
Q 359 3453 968 4101 
Q 1578 4750 2638 4750 
Q 3056 4750 3426 4639 
Q 3797 4528 4122 4306 
z
" transform="scale(0.015625)"/>
      <path id="DejaVuSans-6f" d="M 1959 3097 
Q 1497 3097 1228 2736 
Q 959 2375 959 1747 
Q 959 1119 1226 758 
Q 1494 397 1959 397 
Q 2419 397 2687 759 
Q 2956 1122 2956 1747 
Q 2956 2369 2687 2733 
Q 2419 3097 1959 3097 
z
M 1959 3584 
Q 2709 3584 3137 3096 
Q 3566 2609 3566 1747 
Q 3566 888 3137 398 
Q 2709 -91 1959 -91 
Q 1206 -91 779 398 
Q 353 888 353 1747 
Q 353 2609 779 3096 
Q 1206 3584 1959 3584 
z
" transform="scale(0.015625)"/>
      <path id="DejaVuSans-6e" d="M 3513 2113 
L 3513 0 
L 2938 0 
L 2938 2094 
Q 2938 2591 2744 2837 
Q 2550 3084 2163 3084 
Q 1697 3084 1428 2787 
Q 1159 2491 1159 1978 
L 1159 0 
L 581 0 
L 581 3500 
L 1159 3500 
L 1159 2956 
Q 1366 3272 1645 3428 
Q 1925 3584 2291 3584 
Q 2894 3584 3203 3211 
Q 3513 2838 3513 2113 
z
" transform="scale(0.015625)"/>
      <path id="DejaVuSans-74" d="M 1172 4494 
L 1172 3500 
L 2356 3500 
L 2356 3053 
L 1172 3053 
L 1172 1153 
Q 1172 725 1289 603 
Q 1406 481 1766 481 
L 2356 481 
L 2356 0 
L 1766 0 
Q 1100 0 847 248 
Q 594 497 594 1153 
L 594 3053 
L 172 3053 
L 172 3500 
L 594 3500 
L 594 4494 
L 1172 4494 
z
" transform="scale(0.015625)"/>
      <path id="DejaVuSans-65" d="M 3597 1894 
L 3597 1613 
L 953 1613 
Q 991 1019 1311 708 
Q 1631 397 2203 397 
Q 2534 397 2845 478 
Q 3156 559 3463 722 
L 3463 178 
Q 3153 47 2828 -22 
Q 2503 -91 2169 -91 
Q 1331 -91 842 396 
Q 353 884 353 1716 
Q 353 2575 817 3079 
Q 1281 3584 2069 3584 
Q 2775 3584 3186 3129 
Q 3597 2675 3597 1894 
z
M 3022 2063 
Q 3016 2534 2758 2815 
Q 2500 3097 2075 3097 
Q 1594 3097 1305 2825 
Q 1016 2553 972 2059 
L 3022 2063 
z
" transform="scale(0.015625)"/>
      <path id="DejaVuSans-78" d="M 3513 3500 
L 2247 1797 
L 3578 0 
L 2900 0 
L 1881 1375 
L 863 0 
L 184 0 
L 1544 1831 
L 300 3500 
L 978 3500 
L 1906 2253 
L 2834 3500 
L 3513 3500 
z
" transform="scale(0.015625)"/>
      <path id="DejaVuSans-20" transform="scale(0.015625)"/>
     </defs>
     <use xlink:href="#DejaVuSans-43"/>
     <use xlink:href="#DejaVuSans-6f" x="69.824219"/>
     <use xlink:href="#DejaVuSans-6e" x="131.005859"/>
     <use xlink:href="#DejaVuSans-74" x="194.384766"/>
     <use xlink:href="#DejaVuSans-65" x="233.59375"/>
     <use xlink:href="#DejaVuSans-78" x="293.367188"/>
     <use xlink:href="#DejaVuSans-74" x="352.546875"/>
     <use xlink:href="#DejaVuSans-20" x="391.755859"/>
     <use xlink:href="#DejaVuSans-31" x="423.542969"/>
    </g>
   </g>
  </g>
  <g id="axes_2">
   <g id="patch_7">
    <path d="M 72 421.857391 
L 518.4 421.857391 
L 518.4 277.231304 
L 72 277.231304 
z
" style="fill: #ffffff"/>
   </g>
   <g id="matplotlib.axis_3">
    <g id="xtick_10">
     <g id="line2d_16">
      <g>
       <use xlink:href="#m399b98aff3" x="92.290909" y="421.857391" style="stroke: #000000; stroke-width: 0.8"/>
      </g>
     </g>
    </g>
    <g id="xtick_11">
     <g id="line2d_17">
      <g>
       <use xlink:href="#m399b98aff3" x="143.790678" y="421.857391" style="stroke: #000000; stroke-width: 0.8"/>
      </g>
     </g>
    </g>
    <g id="xtick_12">
     <g id="line2d_18">
      <g>
       <use xlink:href="#m399b98aff3" x="195.290448" y="421.857391" style="stroke: #000000; stroke-width: 0.8"/>
      </g>
     </g>
    </g>
    <g id="xtick_13">
     <g id="line2d_19">
      <g>
       <use xlink:href="#m399b98aff3" x="246.790217" y="421.857391" style="stroke: #000000; stroke-width: 0.8"/>
      </g>
     </g>
    </g>
    <g id="xtick_14">
     <g id="line2d_20">
      <g>
       <use xlink:href="#m399b98aff3" x="298.289986" y="421.857391" style="stroke: #000000; stroke-width: 0.8"/>
      </g>
     </g>
    </g>
    <g id="xtick_15">
     <g id="line2d_21">
      <g>
       <use xlink:href="#m399b98aff3" x="349.789755" y="421.857391" style="stroke: #000000; stroke-width: 0.8"/>
      </g>
     </g>
    </g>
    <g id="xtick_16">
     <g id="line2d_22">
      <g>
       <use xlink:href="#m399b98aff3" x="401.289525" y="421.857391" style="stroke: #000000; stroke-width: 0.8"/>
      </g>
     </g>
    </g>
    <g id="xtick_17">
     <g id="line2d_23">
      <g>
       <use xlink:href="#m399b98aff3" x="452.789294" y="421.857391" style="stroke: #000000; stroke-width: 0.8"/>
      </g>
     </g>
    </g>
    <g id="xtick_18">
     <g id="line2d_24">
      <g>
       <use xlink:href="#m399b98aff3" x="504.289063" y="421.857391" style="stroke: #000000; stroke-width: 0.8"/>
      </g>
     </g>
    </g>
   </g>
   <g id="matplotlib.axis_4">
    <g id="ytick_6">
     <g id="line2d_25">
      <g>
       <use xlink:href="#m5d88e14fb1" x="72" y="421.857391" style="stroke: #000000; stroke-width: 0.8"/>
      </g>
     </g>
     <g id="text_7">
      <!-- −1.0 -->
      <g transform="translate(40.717187 425.65661) scale(0.1 -0.1)">
       <use xlink:href="#DejaVuSans-2212"/>
       <use xlink:href="#DejaVuSans-31" x="83.789062"/>
       <use xlink:href="#DejaVuSans-2e" x="147.412109"/>
       <use xlink:href="#DejaVuSans-30" x="179.199219"/>
      </g>
     </g>
    </g>
    <g id="ytick_7">
     <g id="line2d_26">
      <g>
       <use xlink:href="#m5d88e14fb1" x="72" y="385.70087" style="stroke: #000000; stroke-width: 0.8"/>
      </g>
     </g>
     <g id="text_8">
      <!-- −0.5 -->
      <g transform="translate(40.717187 389.500088) scale(0.1 -0.1)">
       <use xlink:href="#DejaVuSans-2212"/>
       <use xlink:href="#DejaVuSans-30" x="83.789062"/>
       <use xlink:href="#DejaVuSans-2e" x="147.412109"/>
       <use xlink:href="#DejaVuSans-35" x="179.199219"/>
      </g>
     </g>
    </g>
    <g id="ytick_8">
     <g id="line2d_27">
      <g>
       <use xlink:href="#m5d88e14fb1" x="72" y="349.544348" style="stroke: #000000; stroke-width: 0.8"/>
      </g>
     </g>
     <g id="text_9">
      <!-- 0.0 -->
      <g transform="translate(49.096875 353.343567) scale(0.1 -0.1)">
       <use xlink:href="#DejaVuSans-30"/>
       <use xlink:href="#DejaVuSans-2e" x="63.623047"/>
       <use xlink:href="#DejaVuSans-30" x="95.410156"/>
      </g>
     </g>
    </g>
    <g id="ytick_9">
     <g id="line2d_28">
      <g>
       <use xlink:href="#m5d88e14fb1" x="72" y="313.387826" style="stroke: #000000; stroke-width: 0.8"/>
      </g>
     </g>
     <g id="text_10">
      <!-- 0.5 -->
      <g transform="translate(49.096875 317.187045) scale(0.1 -0.1)">
       <use xlink:href="#DejaVuSans-30"/>
       <use xlink:href="#DejaVuSans-2e" x="63.623047"/>
       <use xlink:href="#DejaVuSans-35" x="95.410156"/>
      </g>
     </g>
    </g>
    <g id="ytick_10">
     <g id="line2d_29">
      <g>
       <use xlink:href="#m5d88e14fb1" x="72" y="277.231304" style="stroke: #000000; stroke-width: 0.8"/>
      </g>
     </g>
     <g id="text_11">
      <!-- 1.0 -->
      <g transform="translate(49.096875 281.030523) scale(0.1 -0.1)">
       <use xlink:href="#DejaVuSans-31"/>
       <use xlink:href="#DejaVuSans-2e" x="63.623047"/>
       <use xlink:href="#DejaVuSans-30" x="95.410156"/>
      </g>
     </g>
    </g>
   </g>
   <g id="line2d_30">
    <path d="M 92.290909 294.36606 
L 94.3509 296.650893 
L 96.410891 304.633806 
L 98.470881 308.837003 
L 100.530872 321.192194 
L 102.590863 320.857917 
L 104.650854 333.733435 
L 106.710844 326.667131 
L 108.770835 341.446741 
L 110.830826 352.804195 
L 112.890817 335.952959 
L 114.950808 345.167398 
L 117.010798 335.462056 
L 119.070789 351.925863 
L 121.13078 353.497848 
L 123.190771 348.133726 
L 125.250761 358.431736 
L 127.310752 342.777391 
L 129.370743 342.0604 
L 131.430734 345.185439 
L 133.490725 359.6441 
L 135.550715 354.456281 
L 137.610706 341.281685 
L 139.670697 363.875815 
L 141.730688 358.14914 
L 143.790678 357.309387 
L 145.850669 346.607338 
L 147.91066 350.332911 
L 149.970651 344.061457 
L 152.030641 354.225597 
L 154.090632 357.498951 
L 156.150623 348.80715 
L 158.210614 366.476177 
L 160.270605 349.114678 
L 162.330595 351.274648 
L 164.390586 362.639878 
L 166.450577 362.123082 
L 168.510568 349.872433 
L 170.570558 351.951569 
L 172.630549 342.324522 
L 174.69054 348.352193 
L 176.750531 344.460628 
L 178.810521 353.761425 
L 180.870512 351.167967 
L 182.930503 344.750059 
L 184.990494 349.722467 
L 187.050485 359.422839 
L 189.110475 344.96257 
L 191.170466 347.294149 
L 193.230457 353.764206 
L 195.290448 339.184507 
L 197.350438 353.673646 
L 199.410429 354.414324 
L 201.47042 336.397805 
L 203.530411 361.056196 
L 205.590401 356.108406 
L 207.650392 356.868417 
L 209.710383 349.344699 
L 211.770374 337.779927 
L 213.830365 348.445371 
L 215.890355 356.670048 
L 217.950346 351.46946 
L 220.010337 337.504909 
L 222.070328 348.846729 
L 224.130318 344.558421 
L 226.190309 363.993723 
L 228.2503 350.632226 
L 230.310291 348.021703 
L 232.370281 353.855311 
L 234.430272 351.149339 
L 236.490263 364.497229 
L 238.550254 360.201544 
L 240.610245 348.689998 
L 242.670235 353.376418 
L 244.730226 355.070988 
L 246.790217 337.074492 
L 250.910198 345.436484 
L 252.970189 359.123123 
L 255.03018 365.365353 
L 257.090171 354.615273 
L 259.150162 368.581278 
L 261.210152 347.806178 
L 263.270143 362.693694 
L 265.330134 331.597565 
L 267.390125 343.682527 
L 269.450115 364.216083 
L 271.510106 354.409524 
L 273.570097 358.92489 
L 275.630088 356.104485 
L 277.690078 352.337161 
L 279.750069 356.571009 
L 281.81006 346.077011 
L 283.870051 349.26379 
L 285.930042 351.937058 
L 287.990032 355.953528 
L 290.050023 356.055153 
L 292.110014 366.420249 
L 296.229995 333.858188 
L 298.289986 349.22554 
L 300.349977 350.574074 
L 302.409968 352.076943 
L 304.469958 347.09434 
L 306.529949 352.140594 
L 308.58994 345.860891 
L 310.649931 361.909684 
L 312.709922 354.699744 
L 314.769912 358.297156 
L 316.829903 346.581645 
L 318.889894 344.279284 
L 320.949885 349.009113 
L 323.009875 354.582648 
L 325.069866 352.01351 
L 327.129857 345.478249 
L 329.189848 352.259308 
L 331.249838 362.059352 
L 333.309829 358.968705 
L 335.36982 350.95935 
L 337.429811 345.479184 
L 339.489802 351.010633 
L 341.549792 348.329703 
L 343.609783 352.879906 
L 345.669774 354.693286 
L 347.729765 344.176558 
L 349.789755 372.350182 
L 351.849746 353.240287 
L 353.909737 370.130264 
L 355.969728 355.072582 
L 358.029719 349.507012 
L 360.089709 351.953453 
L 362.1497 353.55584 
L 364.209691 346.256282 
L 366.269682 356.05947 
L 368.329672 352.215709 
L 370.389663 362.018536 
L 372.449654 345.848224 
L 374.509645 351.618249 
L 376.569635 362.817788 
L 378.629626 335.040157 
L 380.689617 361.583208 
L 382.749608 347.144636 
L 384.809599 343.738848 
L 386.869589 354.637208 
L 388.92958 356.190352 
L 390.989571 350.414694 
L 393.049562 350.663027 
L 395.109552 338.523928 
L 397.169543 359.170884 
L 399.229534 355.517693 
L 401.289525 351.390993 
L 403.349515 342.182537 
L 405.409506 342.174853 
L 407.469497 365.938489 
L 409.529488 342.968932 
L 411.589479 368.545085 
L 413.649469 346.666679 
L 415.70946 363.082021 
L 417.769451 355.267506 
L 419.829442 354.433981 
L 421.889432 359.027575 
L 423.949423 356.691695 
L 426.009414 364.598163 
L 428.069405 332.022615 
L 430.129395 357.253434 
L 432.189386 351.608187 
L 434.249377 351.835641 
L 436.309368 353.853882 
L 438.369359 359.508353 
L 440.429349 358.729665 
L 442.48934 360.07729 
L 446.609322 354.013389 
L 448.669312 356.542067 
L 450.729303 364.368841 
L 452.789294 359.178537 
L 454.849285 355.213337 
L 456.909275 354.981682 
L 458.969266 355.809488 
L 461.029257 350.360296 
L 463.089248 359.421512 
L 465.149239 357.619071 
L 467.209229 358.936083 
L 469.26922 346.93593 
L 471.329211 357.960987 
L 473.389202 355.495398 
L 475.449192 353.576523 
L 477.509183 347.611682 
L 479.569174 344.104368 
L 481.629165 347.039892 
L 483.689156 339.268491 
L 485.749146 350.569011 
L 487.809137 354.895619 
L 489.869128 351.331184 
L 491.929119 346.381494 
L 493.989109 346.175521 
L 496.0491 352.130575 
L 498.109091 353.775774 
L 498.109091 353.775774 
" clip-path="url(#p7e35a933b8)" style="fill: none; stroke: #1f77b4; stroke-width: 1.5; stroke-linecap: square"/>
   </g>
   <g id="patch_8">
    <path d="M 72 421.857391 
L 72 277.231304 
" style="fill: none; stroke: #000000; stroke-width: 0.8; stroke-linejoin: miter; stroke-linecap: square"/>
   </g>
   <g id="patch_9">
    <path d="M 518.4 421.857391 
L 518.4 277.231304 
" style="fill: none; stroke: #000000; stroke-width: 0.8; stroke-linejoin: miter; stroke-linecap: square"/>
   </g>
   <g id="patch_10">
    <path d="M 72 421.857391 
L 518.4 421.857391 
" style="fill: none; stroke: #000000; stroke-width: 0.8; stroke-linejoin: miter; stroke-linecap: square"/>
   </g>
   <g id="patch_11">
    <path d="M 72 277.231304 
L 518.4 277.231304 
" style="fill: none; stroke: #000000; stroke-width: 0.8; stroke-linejoin: miter; stroke-linecap: square"/>
   </g>
   <g id="text_12">
    <!-- Context 2 -->
    <g transform="translate(265.969687 271.231304) scale(0.12 -0.12)">
     <defs>
      <path id="DejaVuSans-32" d="M 1228 531 
L 3431 531 
L 3431 0 
L 469 0 
L 469 531 
Q 828 903 1448 1529 
Q 2069 2156 2228 2338 
Q 2531 2678 2651 2914 
Q 2772 3150 2772 3378 
Q 2772 3750 2511 3984 
Q 2250 4219 1831 4219 
Q 1534 4219 1204 4116 
Q 875 4013 500 3803 
L 500 4441 
Q 881 4594 1212 4672 
Q 1544 4750 1819 4750 
Q 2544 4750 2975 4387 
Q 3406 4025 3406 3419 
Q 3406 3131 3298 2873 
Q 3191 2616 2906 2266 
Q 2828 2175 2409 1742 
Q 1991 1309 1228 531 
z
" transform="scale(0.015625)"/>
     </defs>
     <use xlink:href="#DejaVuSans-43"/>
     <use xlink:href="#DejaVuSans-6f" x="69.824219"/>
     <use xlink:href="#DejaVuSans-6e" x="131.005859"/>
     <use xlink:href="#DejaVuSans-74" x="194.384766"/>
     <use xlink:href="#DejaVuSans-65" x="233.59375"/>
     <use xlink:href="#DejaVuSans-78" x="293.367188"/>
     <use xlink:href="#DejaVuSans-74" x="352.546875"/>
     <use xlink:href="#DejaVuSans-20" x="391.755859"/>
     <use xlink:href="#DejaVuSans-32" x="423.542969"/>
    </g>
   </g>
  </g>
  <g id="axes_3">
   <g id="patch_12">
    <path d="M 72 595.408696 
L 518.4 595.408696 
L 518.4 450.782609 
L 72 450.782609 
z
" style="fill: #ffffff"/>
   </g>
   <g id="matplotlib.axis_5">
    <g id="xtick_19">
     <g id="line2d_31">
      <g>
       <use xlink:href="#m399b98aff3" x="92.290909" y="595.408696" style="stroke: #000000; stroke-width: 0.8"/>
      </g>
     </g>
    </g>
    <g id="xtick_20">
     <g id="line2d_32">
      <g>
       <use xlink:href="#m399b98aff3" x="143.790678" y="595.408696" style="stroke: #000000; stroke-width: 0.8"/>
      </g>
     </g>
    </g>
    <g id="xtick_21">
     <g id="line2d_33">
      <g>
       <use xlink:href="#m399b98aff3" x="195.290448" y="595.408696" style="stroke: #000000; stroke-width: 0.8"/>
      </g>
     </g>
    </g>
    <g id="xtick_22">
     <g id="line2d_34">
      <g>
       <use xlink:href="#m399b98aff3" x="246.790217" y="595.408696" style="stroke: #000000; stroke-width: 0.8"/>
      </g>
     </g>
    </g>
    <g id="xtick_23">
     <g id="line2d_35">
      <g>
       <use xlink:href="#m399b98aff3" x="298.289986" y="595.408696" style="stroke: #000000; stroke-width: 0.8"/>
      </g>
     </g>
    </g>
    <g id="xtick_24">
     <g id="line2d_36">
      <g>
       <use xlink:href="#m399b98aff3" x="349.789755" y="595.408696" style="stroke: #000000; stroke-width: 0.8"/>
      </g>
     </g>
    </g>
    <g id="xtick_25">
     <g id="line2d_37">
      <g>
       <use xlink:href="#m399b98aff3" x="401.289525" y="595.408696" style="stroke: #000000; stroke-width: 0.8"/>
      </g>
     </g>
    </g>
    <g id="xtick_26">
     <g id="line2d_38">
      <g>
       <use xlink:href="#m399b98aff3" x="452.789294" y="595.408696" style="stroke: #000000; stroke-width: 0.8"/>
      </g>
     </g>
    </g>
    <g id="xtick_27">
     <g id="line2d_39">
      <g>
       <use xlink:href="#m399b98aff3" x="504.289063" y="595.408696" style="stroke: #000000; stroke-width: 0.8"/>
      </g>
     </g>
    </g>
   </g>
   <g id="matplotlib.axis_6">
    <g id="ytick_11">
     <g id="line2d_40">
      <g>
       <use xlink:href="#m5d88e14fb1" x="72" y="595.408696" style="stroke: #000000; stroke-width: 0.8"/>
      </g>
     </g>
     <g id="text_13">
      <!-- −1.0 -->
      <g transform="translate(40.717187 599.207914) scale(0.1 -0.1)">
       <use xlink:href="#DejaVuSans-2212"/>
       <use xlink:href="#DejaVuSans-31" x="83.789062"/>
       <use xlink:href="#DejaVuSans-2e" x="147.412109"/>
       <use xlink:href="#DejaVuSans-30" x="179.199219"/>
      </g>
     </g>
    </g>
    <g id="ytick_12">
     <g id="line2d_41">
      <g>
       <use xlink:href="#m5d88e14fb1" x="72" y="559.252174" style="stroke: #000000; stroke-width: 0.8"/>
      </g>
     </g>
     <g id="text_14">
      <!-- −0.5 -->
      <g transform="translate(40.717187 563.051393) scale(0.1 -0.1)">
       <use xlink:href="#DejaVuSans-2212"/>
       <use xlink:href="#DejaVuSans-30" x="83.789062"/>
       <use xlink:href="#DejaVuSans-2e" x="147.412109"/>
       <use xlink:href="#DejaVuSans-35" x="179.199219"/>
      </g>
     </g>
    </g>
    <g id="ytick_13">
     <g id="line2d_42">
      <g>
       <use xlink:href="#m5d88e14fb1" x="72" y="523.095652" style="stroke: #000000; stroke-width: 0.8"/>
      </g>
     </g>
     <g id="text_15">
      <!-- 0.0 -->
      <g transform="translate(49.096875 526.894871) scale(0.1 -0.1)">
       <use xlink:href="#DejaVuSans-30"/>
       <use xlink:href="#DejaVuSans-2e" x="63.623047"/>
       <use xlink:href="#DejaVuSans-30" x="95.410156"/>
      </g>
     </g>
    </g>
    <g id="ytick_14">
     <g id="line2d_43">
      <g>
       <use xlink:href="#m5d88e14fb1" x="72" y="486.93913" style="stroke: #000000; stroke-width: 0.8"/>
      </g>
     </g>
     <g id="text_16">
      <!-- 0.5 -->
      <g transform="translate(49.096875 490.738349) scale(0.1 -0.1)">
       <use xlink:href="#DejaVuSans-30"/>
       <use xlink:href="#DejaVuSans-2e" x="63.623047"/>
       <use xlink:href="#DejaVuSans-35" x="95.410156"/>
      </g>
     </g>
    </g>
    <g id="ytick_15">
     <g id="line2d_44">
      <g>
       <use xlink:href="#m5d88e14fb1" x="72" y="450.782609" style="stroke: #000000; stroke-width: 0.8"/>
      </g>
     </g>
     <g id="text_17">
      <!-- 1.0 -->
      <g transform="translate(49.096875 454.581827) scale(0.1 -0.1)">
       <use xlink:href="#DejaVuSans-31"/>
       <use xlink:href="#DejaVuSans-2e" x="63.623047"/>
       <use xlink:href="#DejaVuSans-30" x="95.410156"/>
      </g>
     </g>
    </g>
   </g>
   <g id="line2d_45">
    <path d="M 92.290909 466.066985 
L 94.3509 465.745492 
L 96.410891 471.066835 
L 98.470881 473.161124 
L 100.530872 474.533416 
L 102.590863 482.321185 
L 104.650854 485.827217 
L 106.710844 487.44805 
L 108.770835 498.163279 
L 110.830826 503.800292 
L 112.890817 500.273493 
L 114.950808 495.893837 
L 117.010798 527.256877 
L 119.070789 503.947782 
L 121.13078 514.347947 
L 123.190771 508.42892 
L 125.250761 513.647355 
L 127.310752 526.776242 
L 129.370743 514.190575 
L 131.430734 530.676638 
L 133.490725 521.058818 
L 135.550715 542.363742 
L 137.610706 502.661631 
L 139.670697 503.955245 
L 141.730688 523.89786 
L 143.790678 516.494187 
L 145.850669 525.476179 
L 147.91066 519.569265 
L 149.970651 515.612272 
L 152.030641 528.871731 
L 154.090632 524.584558 
L 156.150623 534.936687 
L 158.210614 520.009638 
L 160.270605 523.643184 
L 162.330595 514.116792 
L 164.390586 522.791862 
L 166.450577 495.000013 
L 168.510568 527.921671 
L 170.570558 525.110018 
L 172.630549 528.945436 
L 174.69054 525.024508 
L 176.750531 514.344547 
L 178.810521 520.361955 
L 180.870512 526.806261 
L 182.930503 536.188486 
L 184.990494 517.667817 
L 187.050485 530.116656 
L 189.110475 549.609017 
L 191.170466 530.350206 
L 193.230457 459.830976 
L 195.290448 461.635839 
L 197.350438 455.605129 
L 199.410429 458.837963 
L 201.47042 461.333083 
L 203.530411 460.321127 
L 205.590401 460.087786 
L 207.650392 457.708339 
L 209.710383 456.951866 
L 211.770374 462.332164 
L 213.830365 456.19878 
L 215.890355 459.7839 
L 217.950346 455.229284 
L 220.010337 455.195035 
L 222.070328 458.205266 
L 224.130318 461.848142 
L 226.190309 460.312377 
L 228.2503 485.048128 
L 230.310291 473.308006 
L 232.370281 487.426568 
L 234.430272 473.415334 
L 236.490263 471.793835 
L 238.550254 467.357082 
L 240.610245 577.179518 
L 242.670235 461.992374 
L 244.730226 460.831471 
L 246.790217 457.811133 
L 248.850208 459.375393 
L 250.910198 457.624247 
L 252.970189 463.471999 
L 255.03018 464.162961 
L 257.090171 457.588762 
L 259.150162 457.411501 
L 261.210152 455.743861 
L 263.270143 471.665486 
L 265.330134 469.167342 
L 267.390125 464.321115 
L 269.450115 461.936173 
L 271.510106 463.106089 
L 273.570097 462.41107 
L 275.630088 463.220378 
L 277.690078 465.536805 
L 279.750069 466.829152 
L 281.81006 472.309662 
L 283.870051 493.557745 
L 285.930042 503.153595 
L 287.990032 488.169923 
L 290.050023 507.230204 
L 292.110014 508.102208 
L 294.170005 493.486424 
L 296.229995 505.598326 
L 298.289986 525.731749 
L 300.349977 500.531954 
L 302.409968 515.46929 
L 304.469958 506.149519 
L 306.529949 508.155332 
L 308.58994 499.902384 
L 310.649931 502.65494 
L 312.709922 517.782229 
L 314.769912 516.207487 
L 316.829903 505.02999 
L 318.889894 510.369485 
L 320.949885 524.684045 
L 323.009875 539.933054 
L 325.069866 517.592192 
L 327.129857 520.867268 
L 329.189848 532.348016 
L 331.249838 526.998307 
L 333.309829 524.260057 
L 335.36982 515.828346 
L 337.429811 517.750288 
L 339.489802 525.354139 
L 341.549792 535.515356 
L 343.609783 524.042387 
L 345.669774 535.694072 
L 347.729765 509.393702 
L 349.789755 532.354959 
L 351.849746 530.108166 
L 353.909737 517.062067 
L 355.969728 510.745783 
L 358.029719 532.268742 
L 360.089709 517.909318 
L 362.1497 529.684513 
L 364.209691 503.818804 
L 366.269682 516.336522 
L 368.329672 524.27865 
L 370.389663 515.778075 
L 372.449654 511.909633 
L 374.509645 534.189475 
L 376.569635 537.857429 
L 378.629626 527.357708 
L 380.689617 522.696679 
L 382.749608 540.322267 
L 384.809599 535.739496 
L 386.869589 516.560658 
L 388.92958 533.070808 
L 390.989571 517.052091 
L 393.049562 526.766719 
L 395.109552 519.144528 
L 397.169543 521.037273 
L 399.229534 540.819014 
L 401.289525 521.637662 
L 403.349515 537.400108 
L 405.409506 529.131478 
L 407.469497 525.52885 
L 409.529488 531.86851 
L 411.589479 528.06972 
L 413.649469 517.448134 
L 415.70946 517.521167 
L 417.769451 531.079295 
L 419.829442 528.101296 
L 421.889432 540.064247 
L 423.949423 525.960017 
L 426.009414 545.083534 
L 428.069405 530.232375 
L 430.129395 523.782131 
L 432.189386 522.269995 
L 434.249377 520.513152 
L 436.309368 536.10295 
L 438.369359 504.375882 
L 440.429349 521.907665 
L 442.48934 526.78551 
L 444.549331 526.197274 
L 446.609322 535.753233 
L 448.669312 533.595113 
L 450.729303 531.674453 
L 452.789294 520.493558 
L 454.849285 521.940752 
L 456.909275 523.898594 
L 458.969266 511.856166 
L 461.029257 527.836881 
L 463.089248 518.709607 
L 465.149239 514.46645 
L 467.209229 530.653184 
L 469.26922 526.051827 
L 471.329211 511.82684 
L 473.389202 513.191914 
L 475.449192 508.114229 
L 477.509183 507.772542 
L 479.569174 522.147029 
L 481.629165 513.906787 
L 483.689156 516.074848 
L 485.749146 520.749069 
L 487.809137 506.286765 
L 489.869128 521.176202 
L 491.929119 530.304741 
L 493.989109 511.57799 
L 496.0491 514.648441 
L 498.109091 518.293613 
L 498.109091 518.293613 
" clip-path="url(#pc1119f3ebd)" style="fill: none; stroke: #1f77b4; stroke-width: 1.5; stroke-linecap: square"/>
   </g>
   <g id="patch_13">
    <path d="M 72 595.408696 
L 72 450.782609 
" style="fill: none; stroke: #000000; stroke-width: 0.8; stroke-linejoin: miter; stroke-linecap: square"/>
   </g>
   <g id="patch_14">
    <path d="M 518.4 595.408696 
L 518.4 450.782609 
" style="fill: none; stroke: #000000; stroke-width: 0.8; stroke-linejoin: miter; stroke-linecap: square"/>
   </g>
   <g id="patch_15">
    <path d="M 72 595.408696 
L 518.4 595.408696 
" style="fill: none; stroke: #000000; stroke-width: 0.8; stroke-linejoin: miter; stroke-linecap: square"/>
   </g>
   <g id="patch_16">
    <path d="M 72 450.782609 
L 518.4 450.782609 
" style="fill: none; stroke: #000000; stroke-width: 0.8; stroke-linejoin: miter; stroke-linecap: square"/>
   </g>
   <g id="text_18">
    <!-- Context 3 -->
    <g transform="translate(265.969687 444.782609) scale(0.12 -0.12)">
     <defs>
      <path id="DejaVuSans-33" d="M 2597 2516 
Q 3050 2419 3304 2112 
Q 3559 1806 3559 1356 
Q 3559 666 3084 287 
Q 2609 -91 1734 -91 
Q 1441 -91 1130 -33 
Q 819 25 488 141 
L 488 750 
Q 750 597 1062 519 
Q 1375 441 1716 441 
Q 2309 441 2620 675 
Q 2931 909 2931 1356 
Q 2931 1769 2642 2001 
Q 2353 2234 1838 2234 
L 1294 2234 
L 1294 2753 
L 1863 2753 
Q 2328 2753 2575 2939 
Q 2822 3125 2822 3475 
Q 2822 3834 2567 4026 
Q 2313 4219 1838 4219 
Q 1578 4219 1281 4162 
Q 984 4106 628 3988 
L 628 4550 
Q 988 4650 1302 4700 
Q 1616 4750 1894 4750 
Q 2613 4750 3031 4423 
Q 3450 4097 3450 3541 
Q 3450 3153 3228 2886 
Q 3006 2619 2597 2516 
z
" transform="scale(0.015625)"/>
     </defs>
     <use xlink:href="#DejaVuSans-43"/>
     <use xlink:href="#DejaVuSans-6f" x="69.824219"/>
     <use xlink:href="#DejaVuSans-6e" x="131.005859"/>
     <use xlink:href="#DejaVuSans-74" x="194.384766"/>
     <use xlink:href="#DejaVuSans-65" x="233.59375"/>
     <use xlink:href="#DejaVuSans-78" x="293.367188"/>
     <use xlink:href="#DejaVuSans-74" x="352.546875"/>
     <use xlink:href="#DejaVuSans-20" x="391.755859"/>
     <use xlink:href="#DejaVuSans-33" x="423.542969"/>
    </g>
   </g>
  </g>
  <g id="axes_4">
   <g id="patch_17">
    <path d="M 72 768.96 
L 518.4 768.96 
L 518.4 624.333913 
L 72 624.333913 
z
" style="fill: #ffffff"/>
   </g>
   <g id="matplotlib.axis_7">
    <g id="xtick_28">
     <g id="line2d_46">
      <g>
       <use xlink:href="#m399b98aff3" x="92.290909" y="768.96" style="stroke: #000000; stroke-width: 0.8"/>
      </g>
     </g>
     <g id="text_19">
      <!-- 0 -->
      <g transform="translate(89.109659 783.558437) scale(0.1 -0.1)">
       <use xlink:href="#DejaVuSans-30"/>
      </g>
     </g>
    </g>
    <g id="xtick_29">
     <g id="line2d_47">
      <g>
       <use xlink:href="#m399b98aff3" x="143.790678" y="768.96" style="stroke: #000000; stroke-width: 0.8"/>
      </g>
     </g>
     <g id="text_20">
      <!-- 25 -->
      <g transform="translate(137.428178 783.558437) scale(0.1 -0.1)">
       <use xlink:href="#DejaVuSans-32"/>
       <use xlink:href="#DejaVuSans-35" x="63.623047"/>
      </g>
     </g>
    </g>
    <g id="xtick_30">
     <g id="line2d_48">
      <g>
       <use xlink:href="#m399b98aff3" x="195.290448" y="768.96" style="stroke: #000000; stroke-width: 0.8"/>
      </g>
     </g>
     <g id="text_21">
      <!-- 50 -->
      <g transform="translate(188.927948 783.558437) scale(0.1 -0.1)">
       <use xlink:href="#DejaVuSans-35"/>
       <use xlink:href="#DejaVuSans-30" x="63.623047"/>
      </g>
     </g>
    </g>
    <g id="xtick_31">
     <g id="line2d_49">
      <g>
       <use xlink:href="#m399b98aff3" x="246.790217" y="768.96" style="stroke: #000000; stroke-width: 0.8"/>
      </g>
     </g>
     <g id="text_22">
      <!-- 75 -->
      <g transform="translate(240.427717 783.558437) scale(0.1 -0.1)">
       <defs>
        <path id="DejaVuSans-37" d="M 525 4666 
L 3525 4666 
L 3525 4397 
L 1831 0 
L 1172 0 
L 2766 4134 
L 525 4134 
L 525 4666 
z
" transform="scale(0.015625)"/>
       </defs>
       <use xlink:href="#DejaVuSans-37"/>
       <use xlink:href="#DejaVuSans-35" x="63.623047"/>
      </g>
     </g>
    </g>
    <g id="xtick_32">
     <g id="line2d_50">
      <g>
       <use xlink:href="#m399b98aff3" x="298.289986" y="768.96" style="stroke: #000000; stroke-width: 0.8"/>
      </g>
     </g>
     <g id="text_23">
      <!-- 100 -->
      <g transform="translate(288.746236 783.558437) scale(0.1 -0.1)">
       <use xlink:href="#DejaVuSans-31"/>
       <use xlink:href="#DejaVuSans-30" x="63.623047"/>
       <use xlink:href="#DejaVuSans-30" x="127.246094"/>
      </g>
     </g>
    </g>
    <g id="xtick_33">
     <g id="line2d_51">
      <g>
       <use xlink:href="#m399b98aff3" x="349.789755" y="768.96" style="stroke: #000000; stroke-width: 0.8"/>
      </g>
     </g>
     <g id="text_24">
      <!-- 125 -->
      <g transform="translate(340.246005 783.558437) scale(0.1 -0.1)">
       <use xlink:href="#DejaVuSans-31"/>
       <use xlink:href="#DejaVuSans-32" x="63.623047"/>
       <use xlink:href="#DejaVuSans-35" x="127.246094"/>
      </g>
     </g>
    </g>
    <g id="xtick_34">
     <g id="line2d_52">
      <g>
       <use xlink:href="#m399b98aff3" x="401.289525" y="768.96" style="stroke: #000000; stroke-width: 0.8"/>
      </g>
     </g>
     <g id="text_25">
      <!-- 150 -->
      <g transform="translate(391.745775 783.558437) scale(0.1 -0.1)">
       <use xlink:href="#DejaVuSans-31"/>
       <use xlink:href="#DejaVuSans-35" x="63.623047"/>
       <use xlink:href="#DejaVuSans-30" x="127.246094"/>
      </g>
     </g>
    </g>
    <g id="xtick_35">
     <g id="line2d_53">
      <g>
       <use xlink:href="#m399b98aff3" x="452.789294" y="768.96" style="stroke: #000000; stroke-width: 0.8"/>
      </g>
     </g>
     <g id="text_26">
      <!-- 175 -->
      <g transform="translate(443.245544 783.558437) scale(0.1 -0.1)">
       <use xlink:href="#DejaVuSans-31"/>
       <use xlink:href="#DejaVuSans-37" x="63.623047"/>
       <use xlink:href="#DejaVuSans-35" x="127.246094"/>
      </g>
     </g>
    </g>
    <g id="xtick_36">
     <g id="line2d_54">
      <g>
       <use xlink:href="#m399b98aff3" x="504.289063" y="768.96" style="stroke: #000000; stroke-width: 0.8"/>
      </g>
     </g>
     <g id="text_27">
      <!-- 200 -->
      <g transform="translate(494.745313 783.558437) scale(0.1 -0.1)">
       <use xlink:href="#DejaVuSans-32"/>
       <use xlink:href="#DejaVuSans-30" x="63.623047"/>
       <use xlink:href="#DejaVuSans-30" x="127.246094"/>
      </g>
     </g>
    </g>
    <g id="text_28">
     <!-- t -->
     <g transform="translate(293.239844 797.236562) scale(0.1 -0.1)">
      <use xlink:href="#DejaVuSans-74"/>
     </g>
    </g>
   </g>
   <g id="matplotlib.axis_8">
    <g id="ytick_16">
     <g id="line2d_55">
      <g>
       <use xlink:href="#m5d88e14fb1" x="72" y="768.96" style="stroke: #000000; stroke-width: 0.8"/>
      </g>
     </g>
     <g id="text_29">
      <!-- −1.0 -->
      <g transform="translate(40.717187 772.759219) scale(0.1 -0.1)">
       <use xlink:href="#DejaVuSans-2212"/>
       <use xlink:href="#DejaVuSans-31" x="83.789062"/>
       <use xlink:href="#DejaVuSans-2e" x="147.412109"/>
       <use xlink:href="#DejaVuSans-30" x="179.199219"/>
      </g>
     </g>
    </g>
    <g id="ytick_17">
     <g id="line2d_56">
      <g>
       <use xlink:href="#m5d88e14fb1" x="72" y="732.803478" style="stroke: #000000; stroke-width: 0.8"/>
      </g>
     </g>
     <g id="text_30">
      <!-- −0.5 -->
      <g transform="translate(40.717187 736.602697) scale(0.1 -0.1)">
       <use xlink:href="#DejaVuSans-2212"/>
       <use xlink:href="#DejaVuSans-30" x="83.789062"/>
       <use xlink:href="#DejaVuSans-2e" x="147.412109"/>
       <use xlink:href="#DejaVuSans-35" x="179.199219"/>
      </g>
     </g>
    </g>
    <g id="ytick_18">
     <g id="line2d_57">
      <g>
       <use xlink:href="#m5d88e14fb1" x="72" y="696.646957" style="stroke: #000000; stroke-width: 0.8"/>
      </g>
     </g>
     <g id="text_31">
      <!-- 0.0 -->
      <g transform="translate(49.096875 700.446175) scale(0.1 -0.1)">
       <use xlink:href="#DejaVuSans-30"/>
       <use xlink:href="#DejaVuSans-2e" x="63.623047"/>
       <use xlink:href="#DejaVuSans-30" x="95.410156"/>
      </g>
     </g>
    </g>
    <g id="ytick_19">
     <g id="line2d_58">
      <g>
       <use xlink:href="#m5d88e14fb1" x="72" y="660.490435" style="stroke: #000000; stroke-width: 0.8"/>
      </g>
     </g>
     <g id="text_32">
      <!-- 0.5 -->
      <g transform="translate(49.096875 664.289654) scale(0.1 -0.1)">
       <use xlink:href="#DejaVuSans-30"/>
       <use xlink:href="#DejaVuSans-2e" x="63.623047"/>
       <use xlink:href="#DejaVuSans-35" x="95.410156"/>
      </g>
     </g>
    </g>
    <g id="ytick_20">
     <g id="line2d_59">
      <g>
       <use xlink:href="#m5d88e14fb1" x="72" y="624.333913" style="stroke: #000000; stroke-width: 0.8"/>
      </g>
     </g>
     <g id="text_33">
      <!-- 1.0 -->
      <g transform="translate(49.096875 628.133132) scale(0.1 -0.1)">
       <use xlink:href="#DejaVuSans-31"/>
       <use xlink:href="#DejaVuSans-2e" x="63.623047"/>
       <use xlink:href="#DejaVuSans-30" x="95.410156"/>
      </g>
     </g>
    </g>
    <g id="text_34">
     <!-- $\rho(\dot{r}(t), \dot{r}(t+1))$ -->
     <g transform="translate(34.617187 731.446957) rotate(-90) scale(0.1 -0.1)">
      <defs>
       <path id="DejaVuSans-Oblique-3c1" d="M 1203 2875 
Q 1453 3194 1981 3475 
Q 2188 3584 2756 3584 
Q 3394 3584 3694 3078 
Q 3994 2572 3834 1747 
Q 3672 922 3175 415 
Q 2678 -91 2041 -91 
Q 1656 -91 1409 63 
Q 1163 213 1044 525 
L 681 -1331 
L 103 -1331 
L 697 1716 
Q 838 2438 1203 2875 
z
M 3238 1747 
Q 3359 2381 3169 2744 
Q 2978 3103 2522 3103 
Q 2066 3103 1734 2744 
Q 1403 2381 1281 1747 
Q 1156 1113 1347 750 
Q 1538 391 1994 391 
Q 2450 391 2781 750 
Q 3113 1113 3238 1747 
z
" transform="scale(0.015625)"/>
       <path id="DejaVuSans-28" d="M 1984 4856 
Q 1566 4138 1362 3434 
Q 1159 2731 1159 2009 
Q 1159 1288 1364 580 
Q 1569 -128 1984 -844 
L 1484 -844 
Q 1016 -109 783 600 
Q 550 1309 550 2009 
Q 550 2706 781 3412 
Q 1013 4119 1484 4856 
L 1984 4856 
z
" transform="scale(0.015625)"/>
       <path id="DejaVuSans-307" d="M -1894 4863 
L -1319 4863 
L -1319 4134 
L -1894 4134 
L -1894 4863 
z
M -1600 3584 
L -1600 3584 
z
" transform="scale(0.015625)"/>
       <path id="DejaVuSans-Oblique-72" d="M 2853 2969 
Q 2766 3016 2653 3041 
Q 2541 3066 2413 3066 
Q 1953 3066 1609 2717 
Q 1266 2369 1153 1784 
L 800 0 
L 225 0 
L 909 3500 
L 1484 3500 
L 1375 2956 
Q 1603 3259 1920 3421 
Q 2238 3584 2597 3584 
Q 2691 3584 2781 3573 
Q 2872 3563 2963 3538 
L 2853 2969 
z
" transform="scale(0.015625)"/>
       <path id="DejaVuSans-Oblique-74" d="M 2706 3500 
L 2619 3053 
L 1472 3053 
L 1100 1153 
Q 1081 1047 1072 975 
Q 1063 903 1063 863 
Q 1063 663 1183 572 
Q 1303 481 1569 481 
L 2150 481 
L 2053 0 
L 1503 0 
Q 991 0 739 200 
Q 488 400 488 806 
Q 488 878 497 964 
Q 506 1050 525 1153 
L 897 3053 
L 409 3053 
L 500 3500 
L 978 3500 
L 1172 4494 
L 1747 4494 
L 1556 3500 
L 2706 3500 
z
" transform="scale(0.015625)"/>
       <path id="DejaVuSans-29" d="M 513 4856 
L 1013 4856 
Q 1481 4119 1714 3412 
Q 1947 2706 1947 2009 
Q 1947 1309 1714 600 
Q 1481 -109 1013 -844 
L 513 -844 
Q 928 -128 1133 580 
Q 1338 1288 1338 2009 
Q 1338 2731 1133 3434 
Q 928 4138 513 4856 
z
" transform="scale(0.015625)"/>
       <path id="DejaVuSans-2c" d="M 750 794 
L 1409 794 
L 1409 256 
L 897 -744 
L 494 -744 
L 750 256 
L 750 794 
z
" transform="scale(0.015625)"/>
       <path id="DejaVuSans-2b" d="M 2944 4013 
L 2944 2272 
L 4684 2272 
L 4684 1741 
L 2944 1741 
L 2944 0 
L 2419 0 
L 2419 1741 
L 678 1741 
L 678 2272 
L 2419 2272 
L 2419 4013 
L 2944 4013 
z
" transform="scale(0.015625)"/>
      </defs>
      <use xlink:href="#DejaVuSans-Oblique-3c1" transform="translate(0 0.515625)"/>
      <use xlink:href="#DejaVuSans-28" transform="translate(63.476562 0.515625)"/>
      <use xlink:href="#DejaVuSans-307" transform="translate(153.362305 13.015625)"/>
      <use xlink:href="#DejaVuSans-Oblique-72" transform="translate(102.490234 0.515625)"/>
      <use xlink:href="#DejaVuSans-28" transform="translate(143.603516 0.515625)"/>
      <use xlink:href="#DejaVuSans-Oblique-74" transform="translate(182.617188 0.515625)"/>
      <use xlink:href="#DejaVuSans-29" transform="translate(221.826172 0.515625)"/>
      <use xlink:href="#DejaVuSans-2c" transform="translate(260.839844 0.515625)"/>
      <use xlink:href="#DejaVuSans-307" transform="translate(362.981445 13.015625)"/>
      <use xlink:href="#DejaVuSans-Oblique-72" transform="translate(312.109375 0.515625)"/>
      <use xlink:href="#DejaVuSans-28" transform="translate(353.222656 0.515625)"/>
      <use xlink:href="#DejaVuSans-Oblique-74" transform="translate(392.236328 0.515625)"/>
      <use xlink:href="#DejaVuSans-2b" transform="translate(450.927734 0.515625)"/>
      <use xlink:href="#DejaVuSans-31" transform="translate(554.199219 0.515625)"/>
      <use xlink:href="#DejaVuSans-29" transform="translate(617.822266 0.515625)"/>
      <use xlink:href="#DejaVuSans-29" transform="translate(656.835938 0.515625)"/>
     </g>
    </g>
   </g>
   <g id="line2d_60">
    <path d="M 92.290909 639.011354 
L 94.3509 641.137921 
L 96.410891 647.185325 
L 98.470881 649.375248 
L 100.530872 657.670896 
L 102.590863 662.612882 
L 104.650854 668.046915 
L 106.710844 670.112325 
L 108.770835 658.478376 
L 110.830826 681.596466 
L 112.890817 694.053588 
L 114.950808 681.637773 
L 117.010798 682.171414 
L 119.070789 683.162805 
L 121.13078 690.848598 
L 123.190771 685.923882 
L 125.250761 691.497867 
L 127.310752 690.175988 
L 129.370743 698.425288 
L 133.490725 693.467278 
L 135.550715 703.290868 
L 137.610706 694.788001 
L 139.670697 685.335534 
L 141.730688 697.087662 
L 143.790678 678.309407 
L 145.850669 698.359012 
L 147.91066 692.584169 
L 149.970651 687.283094 
L 152.030641 687.673303 
L 154.090632 684.549343 
L 156.150623 676.150841 
L 158.210614 692.095422 
L 160.270605 698.643843 
L 162.330595 693.894249 
L 164.390586 689.891139 
L 166.450577 684.333687 
L 168.510568 700.779246 
L 170.570558 696.519318 
L 172.630549 701.992147 
L 174.69054 693.03332 
L 176.750531 691.889582 
L 178.810521 672.756857 
L 180.870512 697.663873 
L 182.930503 680.432558 
L 184.990494 690.189209 
L 187.050485 689.630433 
L 189.110475 676.632568 
L 191.170466 699.307823 
L 193.230457 683.654851 
L 195.290448 676.398306 
L 197.350438 674.932011 
L 199.410429 682.851441 
L 201.47042 693.353749 
L 203.530411 678.262097 
L 205.590401 673.072762 
L 207.650392 693.041714 
L 209.710383 696.924407 
L 211.770374 689.404959 
L 213.830365 682.976023 
L 215.890355 672.255125 
L 217.950346 678.382025 
L 220.010337 715.531898 
L 222.070328 690.586352 
L 224.130318 678.100691 
L 226.190309 673.823794 
L 228.2503 683.111329 
L 230.310291 700.312154 
L 232.370281 682.328789 
L 234.430272 668.271045 
L 236.490263 676.075266 
L 238.550254 676.160864 
L 240.610245 689.223569 
L 242.670235 675.411574 
L 244.730226 668.025569 
L 246.790217 700.498824 
L 248.850208 691.683006 
L 250.910198 657.849282 
L 252.970189 686.475984 
L 257.090171 705.3688 
L 259.150162 708.520834 
L 261.210152 690.810723 
L 263.270143 690.462541 
L 265.330134 682.205798 
L 267.390125 675.01245 
L 269.450115 679.233413 
L 271.510106 692.944921 
L 273.570097 683.086532 
L 275.630088 688.526033 
L 277.690078 710.530833 
L 279.750069 704.441359 
L 281.81006 684.056072 
L 283.870051 682.533489 
L 285.930042 698.864098 
L 287.990032 677.719389 
L 290.050023 683.189423 
L 292.110014 705.718963 
L 294.170005 714.1282 
L 296.229995 700.497901 
L 298.289986 713.387833 
L 300.349977 711.340861 
L 302.409968 682.648238 
L 304.469958 706.412578 
L 306.529949 686.458972 
L 308.58994 691.576111 
L 310.649931 703.40175 
L 312.709922 685.116193 
L 314.769912 686.559858 
L 316.829903 700.128046 
L 318.889894 698.565851 
L 320.949885 689.29617 
L 323.009875 700.40281 
L 325.069866 667.495216 
L 327.129857 717.848215 
L 331.249838 675.447127 
L 333.309829 680.09144 
L 335.36982 688.038355 
L 337.429811 707.012573 
L 339.489802 707.543636 
L 341.549792 687.738174 
L 343.609783 685.133545 
L 345.669774 713.76969 
L 347.729765 712.288046 
L 349.789755 687.52647 
L 351.849746 698.626534 
L 353.909737 711.232738 
L 355.969728 699.343586 
L 358.029719 691.869651 
L 360.089709 690.232349 
L 362.1497 685.169481 
L 364.209691 684.210353 
L 366.269682 697.745234 
L 368.329672 700.930475 
L 370.389663 713.622473 
L 372.449654 719.396288 
L 374.509645 722.13884 
L 376.569635 726.500351 
L 378.629626 706.199736 
L 380.689617 703.956567 
L 382.749608 698.751818 
L 384.809599 708.299534 
L 386.869589 699.178579 
L 388.92958 687.900494 
L 390.989571 695.698907 
L 393.049562 698.779312 
L 395.109552 705.011419 
L 397.169543 687.46304 
L 399.229534 692.339661 
L 401.289525 702.74671 
L 403.349515 719.276014 
L 405.409506 692.391852 
L 407.469497 682.05574 
L 409.529488 689.451006 
L 411.589479 706.462183 
L 413.649469 711.889769 
L 415.70946 698.451259 
L 417.769451 695.680599 
L 419.829442 689.908157 
L 421.889432 712.141846 
L 423.949423 686.1481 
L 426.009414 679.993924 
L 428.069405 715.455694 
L 430.129395 694.739907 
L 432.189386 691.851713 
L 434.249377 717.506273 
L 436.309368 701.845346 
L 438.369359 683.455642 
L 440.429349 703.048303 
L 442.48934 688.53133 
L 444.549331 707.552261 
L 446.609322 687.958458 
L 448.669312 688.452037 
L 450.729303 702.133947 
L 452.789294 698.686737 
L 454.849285 691.334293 
L 456.909275 696.382185 
L 458.969266 691.268412 
L 461.029257 723.828246 
L 463.089248 670.183749 
L 465.149239 691.394468 
L 467.209229 681.414001 
L 469.26922 705.204663 
L 471.329211 698.931807 
L 473.389202 710.557912 
L 475.449192 664.963062 
L 477.509183 662.919804 
L 479.569174 722.21979 
L 481.629165 699.975472 
L 483.689156 701.620014 
L 485.749146 702.76609 
L 487.809137 715.342157 
L 489.869128 692.356203 
L 491.929119 688.553854 
L 493.989109 691.397394 
L 496.0491 700.629196 
L 498.109091 699.064682 
L 498.109091 699.064682 
" clip-path="url(#p5221b1f7cf)" style="fill: none; stroke: #1f77b4; stroke-width: 1.5; stroke-linecap: square"/>
   </g>
   <g id="patch_18">
    <path d="M 72 768.96 
L 72 624.333913 
" style="fill: none; stroke: #000000; stroke-width: 0.8; stroke-linejoin: miter; stroke-linecap: square"/>
   </g>
   <g id="patch_19">
    <path d="M 518.4 768.96 
L 518.4 624.333913 
" style="fill: none; stroke: #000000; stroke-width: 0.8; stroke-linejoin: miter; stroke-linecap: square"/>
   </g>
   <g id="patch_20">
    <path d="M 72 768.96 
L 518.4 768.96 
" style="fill: none; stroke: #000000; stroke-width: 0.8; stroke-linejoin: miter; stroke-linecap: square"/>
   </g>
   <g id="patch_21">
    <path d="M 72 624.333913 
L 518.4 624.333913 
" style="fill: none; stroke: #000000; stroke-width: 0.8; stroke-linejoin: miter; stroke-linecap: square"/>
   </g>
   <g id="text_35">
    <!-- Context 4 -->
    <g transform="translate(265.969687 618.333913) scale(0.12 -0.12)">
     <defs>
      <path id="DejaVuSans-34" d="M 2419 4116 
L 825 1625 
L 2419 1625 
L 2419 4116 
z
M 2253 4666 
L 3047 4666 
L 3047 1625 
L 3713 1625 
L 3713 1100 
L 3047 1100 
L 3047 0 
L 2419 0 
L 2419 1100 
L 313 1100 
L 313 1709 
L 2253 4666 
z
" transform="scale(0.015625)"/>
     </defs>
     <use xlink:href="#DejaVuSans-43"/>
     <use xlink:href="#DejaVuSans-6f" x="69.824219"/>
     <use xlink:href="#DejaVuSans-6e" x="131.005859"/>
     <use xlink:href="#DejaVuSans-74" x="194.384766"/>
     <use xlink:href="#DejaVuSans-65" x="233.59375"/>
     <use xlink:href="#DejaVuSans-78" x="293.367188"/>
     <use xlink:href="#DejaVuSans-74" x="352.546875"/>
     <use xlink:href="#DejaVuSans-20" x="391.755859"/>
     <use xlink:href="#DejaVuSans-34" x="423.542969"/>
    </g>
   </g>
  </g>
 </g>
 <defs>
  <clipPath id="p3b2eaf47bd">
   <rect x="72" y="103.68" width="446.4" height="144.626087"/>
  </clipPath>
  <clipPath id="p7e35a933b8">
   <rect x="72" y="277.231304" width="446.4" height="144.626087"/>
  </clipPath>
  <clipPath id="pc1119f3ebd">
   <rect x="72" y="450.782609" width="446.4" height="144.626087"/>
  </clipPath>
  <clipPath id="p5221b1f7cf">
   <rect x="72" y="624.333913" width="446.4" height="144.626087"/>
  </clipPath>
 </defs>
</svg>
